RobotoAvar2-opsz144-wdth151-wght1000soedits.ufo
<glyph name="exclam" format="2">
  <advance width="1059"/>
  <unicode hex="0021"/>
  <outline>
    <contour>
      <point x="224" y="243" type="qcurve" smooth="yes"/>
      <point x="224" y="365"/>
      <point x="382" y="538"/>
      <point x="530" y="538" type="qcurve" smooth="yes"/>
      <point x="679" y="538"/>
      <point x="836" y="365"/>
      <point x="836" y="243" type="qcurve" smooth="yes"/>
      <point x="836" y="123"/>
      <point x="679" y="-50"/>
      <point x="530" y="-50" type="qcurve" smooth="yes"/>
      <point x="382" y="-50"/>
      <point x="224" y="123"/>
    </contour>
    <contour>
      <point x="276" y="560" type="line"/>
      <point x="233" y="1456" type="line"/>
      <point x="827" y="1456" type="line"/>
      <point x="784" y="560" type="line"/>
    </contour>
  </outline>
</glyph>
<glyph name="quotedbl" format="2">
  <advance width="1541"/>
  <unicode hex="0022"/>
  <outline>
    <contour>
      <point x="152" y="749" type="line"/>
      <point x="137.5" y="1129.3457943925234" type="line"/>
      <point x="137.5" y="1456.0" type="line"/>
      <point x="698.8084112149533" y="1456.0" type="line"/>
      <point x="698.8084112149533" y="1129.3457943925234" type="line"/>
      <point x="683" y="749" type="line"/>
    </contour>
    <contour>
      <point x="857" y="749" type="line"/>
      <point x="842.1417445482866" y="1129.3457943925234" type="line"/>
      <point x="842.1417445482866" y="1456.0" type="line"/>
      <point x="1403.4501557632398" y="1456.0" type="line"/>
      <point x="1403.4501557632398" y="1129.3457943925234" type="line"/>
      <point x="1388" y="749" type="line"/>
    </contour>
  </outline>
</glyph>
<glyph name="numbersign" format="2">
  <advance width="1325.3333333333335"/>
  <unicode hex="0023"/>
  <outline>
    <contour>
      <point x="-172.55472636815918" y="-20.0" type="line"/>
      <point x="389.04228855721396" y="1501.0" type="line"/>
      <point x="873.3407960199006" y="1501.0" type="line"/>
      <point x="311.7437810945273" y="-20.0" type="line"/>
    </contour>
    <contour>
      <point x="467.7935323383085" y="-20.0" type="line"/>
      <point x="1029.3905472636816" y="1501.0" type="line"/>
      <point x="1513.6890547263683" y="1501.0" type="line"/>
      <point x="952.092039800995" y="-20.0" type="line"/>
    </contour>
    <contour>
      <point x="-283.8880597014925" y="213.34579439252337" type="line"/>
      <point x="-283.8880597014925" y="637.3271028037383" type="line"/>
      <point x="1609.6492537313434" y="637.3271028037383" type="line"/>
      <point x="1609.6492537313434" y="213.34579439252337" type="line"/>
    </contour>
    <contour>
      <point x="-236.22139303482584" y="748.3457943925234" type="line"/>
      <point x="-236.22139303482584" y="1172.3271028037384" type="line"/>
      <point x="1653.9825870646769" y="1172.3271028037384" type="line"/>
      <point x="1653.9825870646769" y="748.3457943925234" type="line"/>
    </contour>
  </outline>
</glyph>
<glyph name="quotesingle" format="2">
  <advance width="856.3084112149533"/>
  <unicode hex="0027"/>
  <outline>
    <contour>
      <point x="162.5" y="489.3644859813084" type="line"/>
      <point x="137.5" y="1129.3457943925234" type="line"/>
      <point x="137.5" y="1456.0" type="line"/>
      <point x="718.8084112149533" y="1456.0" type="line"/>
      <point x="718.8084112149533" y="1129.3457943925234" type="line"/>
      <point x="693.8084112149533" y="489.3644859813084" type="line"/>
    </contour>
  </outline>
</glyph>
<glyph name="parenleft" format="2">
  <advance width="1053.9750778816197"/>
  <unicode hex="0028"/>
  <outline>
    <contour>
      <point x="980.4750778816198" y="-436.0" type="line"/>
      <point x="613.4875389408099" y="-340.0"/>
      <point x="161.5" y="140.0"/>
      <point x="161.5" y="515.0" type="qcurve" smooth="yes"/>
      <point x="161.5" y="525.0" type="line" smooth="yes"/>
      <point x="161.5" y="917.0"/>
      <point x="613.4875389408099" y="1380.0"/>
      <point x="980.4750778816198" y="1476.0" type="qcurve"/>
      <point x="980.4750778816198" y="1040.7761194029852" type="line"/>
      <point x="839.7984609661971" y="935.0"/>
      <point x="737.8084112149533" y="695.1044776119403"/>
      <point x="737.8084112149533" y="532.0" type="qcurve" smooth="yes"/>
      <point x="737.8084112149533" y="508.0" type="line" smooth="yes"/>
      <point x="737.8084112149533" y="346.98507462686564"/>
      <point x="839.7984609661971" y="105.0"/>
      <point x="980.4750778816198" y="-0.7761194029850742" type="qcurve"/>
    </contour>
  </outline>
</glyph>
<glyph name="parenright" format="2">
  <advance width="1053.9750778816197"/>
  <unicode hex="0029"/>
  <outline>
    <contour>
      <point x="73.5" y="-436.0" type="qcurve"/>
      <point x="73.5" y="-0.7761194029850742" type="line"/>
      <point x="214.1766169154229" y="105.0"/>
      <point x="316.1666666666667" y="343.16915422885575"/>
      <point x="316.1666666666667" y="508.0" type="qcurve" smooth="yes"/>
      <point x="316.1666666666667" y="532.0" type="line" smooth="yes"/>
      <point x="316.1666666666667" y="689.5870646766169"/>
      <point x="214.1766169154229" y="935.0"/>
      <point x="73.5" y="1040.7761194029852" type="qcurve"/>
      <point x="73.5" y="1476.0" type="line"/>
      <point x="440.48753894080994" y="1380.0"/>
      <point x="892.4750778816199" y="911.3333333333334"/>
      <point x="892.4750778816199" y="525.0" type="qcurve" smooth="yes"/>
      <point x="892.4750778816199" y="515.0" type="line" smooth="yes"/>
      <point x="892.4750778816199" y="134.33333333333334"/>
      <point x="440.48753894080994" y="-340.0"/>
    </contour>
  </outline>
</glyph>
<glyph name="asterisk" format="2">
  <advance width="1148"/>
  <unicode hex="002A"/>
  <outline>
    <contour>
      <point x="-12" y="908" type="line"/>
      <point x="151" y="1336" type="line"/>
      <point x="348" y="1221" type="line"/>
      <point x="340" y="1476" type="line"/>
      <point x="808" y="1476" type="line"/>
      <point x="801" y="1221" type="line"/>
      <point x="997" y="1336" type="line"/>
      <point x="1160" y="908" type="line"/>
      <point x="940" y="817" type="line"/>
      <point x="1111" y="631" type="line"/>
      <point x="724" y="360" type="line"/>
      <point x="575" y="568" type="line"/>
      <point x="426" y="360" type="line"/>
      <point x="39" y="631" type="line"/>
      <point x="209" y="817" type="line"/>
    </contour>
  </outline>
</glyph>
<glyph name="plus" format="2">
  <advance width="1471"/>
  <unicode hex="002B"/>
  <outline>
    <contour>
      <point x="95" y="458" type="line"/>
      <point x="95" y="889" type="line"/>
      <point x="1377" y="889" type="line"/>
      <point x="1377" y="458" type="line"/>
    </contour>
    <contour>
      <point x="456" y="77" type="line"/>
      <point x="456" y="1261" type="line"/>
      <point x="1018" y="1261" type="line"/>
      <point x="1018" y="77" type="line"/>
    </contour>
  </outline>
</glyph>
<glyph name="hyphen" format="2">
  <advance width="686.3333333333334"/>
  <unicode hex="002D"/>
  <outline>
    <contour>
      <point x="112.5" y="414.3551401869159" type="line"/>
      <point x="112.5" y="845.6448598130842" type="line"/>
      <point x="573.8333333333334" y="845.6448598130842" type="line"/>
      <point x="573.8333333333334" y="414.3551401869159" type="line"/>
    </contour>
  </outline>
</glyph>
<glyph name="period" format="2">
  <advance width="1039"/>
  <unicode hex="002E"/>
  <outline>
    <contour>
      <point x="197.5" y="287.93457943925233" type="qcurve" smooth="yes"/>
      <point x="197.5" y="416.196261682243"/>
      <point x="363.64018691588785" y="596.9158878504672"/>
      <point x="520.0607476635514" y="596.9158878504672" type="qcurve" smooth="yes"/>
      <point x="675.5280373831775" y="596.9158878504672"/>
      <point x="841.6682242990654" y="416.196261682243"/>
      <point x="841.6682242990654" y="287.93457943925233" type="qcurve" smooth="yes"/>
      <point x="841.6682242990654" y="158.7196261682243"/>
      <point x="675.5280373831775" y="-22.0"/>
      <point x="520.0607476635514" y="-22.0" type="qcurve" smooth="yes"/>
      <point x="363.64018691588785" y="-22.0"/>
      <point x="197.5" y="158.7196261682243"/>
    </contour>
  </outline>
</glyph>
<glyph name="zero" format="2">
  <advance width="2115"/>
  <unicode hex="0030"/>
  <outline>
    <contour>
      <point x="150" y="733" type="qcurve" smooth="yes"/>
      <point x="150" y="751" type="line" smooth="yes"/>
      <point x="150" y="1118"/>
      <point x="622" y="1480"/>
      <point x="1057" y="1480" type="qcurve" smooth="yes"/>
      <point x="1492" y="1480"/>
      <point x="1965" y="1128"/>
      <point x="1965" y="752" type="qcurve" smooth="yes"/>
      <point x="1965" y="731" type="line" smooth="yes"/>
      <point x="1965" y="340"/>
      <point x="1465" y="-24"/>
      <point x="1057" y="-24" type="qcurve" smooth="yes"/>
      <point x="618" y="-24"/>
      <point x="150" y="355"/>
    </contour>
    <contour>
      <point x="743" y="723" type="line" smooth="yes"/>
      <point x="743" y="529"/>
      <point x="895" y="358"/>
      <point x="1057" y="358" type="qcurve" smooth="yes"/>
      <point x="1218" y="358"/>
      <point x="1372" y="529"/>
      <point x="1372" y="721" type="qcurve" smooth="yes"/>
      <point x="1372" y="762" type="line" smooth="yes"/>
      <point x="1372" y="943"/>
      <point x="1214" y="1086"/>
      <point x="1057" y="1086" type="qcurve" smooth="yes"/>
      <point x="899" y="1086"/>
      <point x="743" y="944"/>
      <point x="743" y="763" type="qcurve" smooth="yes"/>
    </contour>
  </outline>
</glyph>
<glyph name="one" format="2">
  <advance width="1758"/>
  <unicode hex="0031"/>
  <outline>
    <contour>
      <point x="775" y="0" type="line"/>
      <point x="775" y="936" type="line"/>
      <point x="184" y="766" type="line"/>
      <point x="184" y="1240" type="line"/>
      <point x="866" y="1444" type="line"/>
      <point x="1370" y="1444" type="line"/>
      <point x="1370" y="0" type="line"/>
    </contour>
  </outline>
</glyph>
<glyph name="three" format="2">
  <advance width="1832.3894080996884"/>
  <unicode hex="0033"/>
  <outline>
    <contour>
      <point x="169.15732087227414" y="548.1172176500675" type="qcurve" smooth="yes"/>
      <point x="169.15732087227414" y="578.5907378992886" type="line"/>
      <point x="786.0358255451713" y="578.5907378992886" type="line"/>
      <point x="786.0358255451713" y="548.1172176500675" type="line" smooth="yes"/>
      <point x="786.0358255451713" y="487.0105547031199"/>
      <point x="802.2508718091785" y="449.5820895522388"/>
      <point x="904.3411214953271" y="449.5820895522388" type="qcurve" smooth="yes"/>
      <point x="971.888106197982" y="449.5820895522388"/>
      <point x="1002.9143302180685" y="454.5993397498489"/>
      <point x="1002.9143302180685" y="500.3880597014925" type="qcurve" smooth="yes"/>
      <point x="1002.9143302180685" y="536.759055191333"/>
      <point x="960.8127818849676" y="549.2835820895523"/>
      <point x="877.3473520249221" y="549.2835820895523" type="qcurve" smooth="yes"/>
      <point x="654.9361370716512" y="549.2835820895523" type="line"/>
      <point x="654.9361370716512" y="927.8805970149253" type="line"/>
      <point x="874.2538940809969" y="927.8805970149253" type="line" smooth="yes"/>
      <point x="919.1487655182034" y="927.8805970149253"/>
      <point x="952.1822429906542" y="939.1085693030176"/>
      <point x="952.1822429906542" y="979.5774863997767" type="qcurve" smooth="yes"/>
      <point x="952.1822429906542" y="1010.5074626865671"/>
      <point x="901.58053191984" y="1008.9701492537313"/>
      <point x="876.9336727577067" y="1008.9701492537313" type="qcurve" smooth="yes"/>
      <point x="829.5398474915145" y="1008.9701492537313"/>
      <point x="789.5841121495328" y="982.7343190589112"/>
      <point x="789.5841121495328" y="936.1145208536756" type="qcurve" smooth="yes"/>
      <point x="789.5841121495328" y="908.0210629097504" type="line"/>
      <point x="187.95794392523365" y="908.0210629097504" type="line"/>
      <point x="187.95794392523365" y="936.1145208536756" type="line" smooth="yes"/>
      <point x="187.95794392523365" y="1211.089552238806"/>
      <point x="544.5518900822988" y="1486.0"/>
      <point x="893.9485981308411" y="1486.0" type="qcurve" smooth="yes"/>
      <point x="1268.4956758264752" y="1486.0"/>
      <point x="1575.0607476635514" y="1298.8642767471056"/>
      <point x="1575.0607476635514" y="1100.0" type="qcurve" smooth="yes"/>
      <point x="1575.0607476635514" y="944.7227414330217"/>
      <point x="1398.026479750779" y="783.9726135676757"/>
      <point x="1265.8551401869158" y="748.9850746268656" type="qcurve"/>
      <point x="1265.8551401869158" y="744.9850746268656" type="line"/>
      <point x="1437.1978193146417" y="727.0909936299809"/>
      <point x="1632.5591900311526" y="567.1588785046729"/>
      <point x="1632.5591900311526" y="401.0" type="qcurve" smooth="yes"/>
      <point x="1632.5591900311526" y="187.3718789231413"/>
      <point x="1314.5811828706933" y="-30.0"/>
      <point x="895.7616822429907" y="-30.0" type="qcurve" smooth="yes"/>
      <point x="512.9744036825219" y="-30.0"/>
      <point x="169.15732087227414" y="278.99879109127255"/>
    </contour>
  </outline>
</glyph>
<glyph name="four" format="2">
  <advance width="1722.7632398753892"/>
  <unicode hex="0034"/>
  <outline>
    <contour>
      <point x="866.4048216859627" y="0.0" type="line"/>
      <point x="866.4048216859627" y="388.4672897196262" type="line"/>
      <point x="866.4048216859627" y="440.4672897196262" type="line"/>
      <point x="866.4048216859627" y="910.1456735016508" type="line"/>
      <point x="854.4048216859627" y="910.1456735016508" type="line"/>
      <point x="673.1497884409728" y="715.2388059701493" type="line"/>
      <point x="1127.1244478541869" y="715.2388059701493" type="line"/>
      <point x="1204.1244478541869" y="722.044776119403" type="line"/>
      <point x="1625.5965732087227" y="722.044776119403" type="line"/>
      <point x="1625.5965732087227" y="235.65671641791045" type="line"/>
      <point x="91.5" y="235.65671641791045" type="line"/>
      <point x="91.5" y="664.5223880597015" type="line"/>
      <point x="758.7033291486493" y="1456.0" type="line"/>
      <point x="1472.5169712186728" y="1456.0" type="line"/>
      <point x="1472.5169712186728" y="0.0" type="line"/>
    </contour>
  </outline>
</glyph>
<glyph name="six" format="2">
  <advance width="1758.0342679127725"/>
  <unicode hex="0036"/>
  <outline>
    <contour>
      <point x="128.83333333333331" y="614.0" type="qcurve" smooth="yes"/>
      <point x="128.83333333333331" y="644.0" type="line" smooth="yes"/>
      <point x="128.83333333333331" y="1024.0"/>
      <point x="774.6993769470404" y="1429.972939043102"/>
      <point x="1200.1448598130842" y="1431.879481099177" type="qcurve" smooth="yes"/>
      <point x="1486.9143302180685" y="1431.879481099177" type="line"/>
      <point x="1486.9143302180685" y="917.4167945320128" type="line"/>
      <point x="1200.1448598130842" y="917.4167945320128" type="line" smooth="yes"/>
      <point x="931.940461245176" y="917.4167945320128"/>
      <point x="806.8146417445483" y="735.1641791044776"/>
      <point x="806.8146417445483" y="602.1044776119403" type="qcurve" smooth="yes"/>
      <point x="806.8146417445483" y="508.7164179104478" type="line" smooth="yes"/>
      <point x="806.8146417445483" y="417.14925373134326"/>
      <point x="826.138257311573" y="415.55223880597015"/>
      <point x="918.942367601246" y="415.55223880597015" type="qcurve" smooth="yes"/>
      <point x="995.7663783884316" y="415.55223880597015"/>
      <point x="1026.848909657321" y="415.3960570976891"/>
      <point x="1027.5155763239877" y="480.26670386385825" type="qcurve" smooth="yes"/>
      <point x="1028.1822429906542" y="545.1373506300275"/>
      <point x="993.099711721765" y="542.776119402985"/>
      <point x="915.702492211838" y="542.776119402985" type="qcurve" smooth="yes"/>
      <point x="843.9103315199703" y="542.776119402985"/>
      <point x="800.8146417445483" y="524.044776119403"/>
      <point x="800.8146417445483" y="464.0" type="qcurve"/>
      <point x="730.8146417445483" y="464.0" type="line"/>
      <point x="730.8146417445483" y="684.0"/>
      <point x="855.0514018691589" y="956.9532710280374"/>
      <point x="1050.5093457943926" y="956.9532710280374" type="qcurve" smooth="yes"/>
      <point x="1326.9953271028037" y="956.9532710280374"/>
      <point x="1645.5342679127725" y="698.619937694704"/>
      <point x="1645.5342679127725" y="464.95327102803736" type="qcurve" smooth="yes"/>
      <point x="1645.5342679127725" y="231.28660436137073"/>
      <point x="1298.5155763239875" y="-30.0"/>
      <point x="933.0015576323988" y="-30.0" type="qcurve" smooth="yes"/>
      <point x="554.2881619937694" y="-30.0"/>
      <point x="128.83333333333331" y="260.6666666666667"/>
    </contour>
  </outline>
</glyph>
<glyph name="seven" format="2">
  <advance width="1832"/>
  <unicode hex="0037"/>
  <outline>
    <contour>
      <point x="353" y="0" type="line"/>
      <point x="1071" y="1000" type="line"/>
      <point x="98" y="1000" type="line"/>
      <point x="98" y="1456" type="line"/>
      <point x="1679" y="1456" type="line"/>
      <point x="1679" y="1012" type="line"/>
      <point x="961" y="0" type="line"/>
    </contour>
  </outline>
</glyph>
<glyph name="eight" format="2">
  <advance width="1832"/>
  <unicode hex="0038"/>
  <outline>
    <contour>
      <point x="68" y="447" type="qcurve" smooth="yes"/>
      <point x="68" y="584"/>
      <point x="318" y="738"/>
      <point x="438" y="763" type="qcurve"/>
      <point x="438" y="767" type="line"/>
      <point x="296" y="808"/>
      <point x="114" y="952"/>
      <point x="114" y="1099" type="qcurve" smooth="yes"/>
      <point x="114" y="1263"/>
      <point x="533" y="1479"/>
      <point x="921" y="1479" type="qcurve" smooth="yes"/>
      <point x="1299" y="1479"/>
      <point x="1718" y="1263"/>
      <point x="1718" y="1100" type="qcurve" smooth="yes"/>
      <point x="1718" y="952"/>
      <point x="1537" y="807"/>
      <point x="1404" y="767" type="qcurve"/>
      <point x="1404" y="763" type="line"/>
      <point x="1524" y="738"/>
      <point x="1764" y="584"/>
      <point x="1764" y="447" type="qcurve" smooth="yes"/>
      <point x="1764" y="216"/>
      <point x="1324" y="-23"/>
      <point x="921" y="-23" type="qcurve" smooth="yes"/>
      <point x="507" y="-23"/>
      <point x="68" y="216"/>
    </contour>
    <contour>
      <point x="661" y="492" type="qcurve" smooth="yes"/>
      <point x="661" y="402"/>
      <point x="802" y="346"/>
      <point x="920" y="346" type="qcurve" smooth="yes"/>
      <point x="1038" y="346"/>
      <point x="1171" y="405"/>
      <point x="1171" y="491" type="qcurve" smooth="yes"/>
      <point x="1171" y="567"/>
      <point x="1051" y="614"/>
      <point x="921" y="614" type="qcurve" smooth="yes"/>
      <point x="791" y="614"/>
      <point x="661" y="569"/>
    </contour>
    <contour>
      <point x="681" y="989" type="qcurve" smooth="yes"/>
      <point x="681" y="913"/>
      <point x="795" y="870"/>
      <point x="921" y="870" type="qcurve" smooth="yes"/>
      <point x="1047" y="870"/>
      <point x="1149" y="913"/>
      <point x="1149" y="989" type="qcurve" smooth="yes"/>
      <point x="1149" y="1053"/>
      <point x="1021" y="1101"/>
      <point x="920" y="1101" type="qcurve" smooth="yes"/>
      <point x="819" y="1101"/>
      <point x="681" y="1053"/>
    </contour>
  </outline>
</glyph>
<glyph name="nine" format="2">
  <advance width="1832"/>
  <unicode hex="0039"/>
  <outline>
    <contour>
      <point x="26" y="946" type="qcurve" smooth="yes"/>
      <point x="27" y="1180"/>
      <point x="524" y="1476"/>
      <point x="912" y="1476" type="qcurve" smooth="yes"/>
      <point x="1299" y="1476"/>
      <point x="1786" y="1164"/>
      <point x="1786" y="839" type="qcurve" smooth="yes"/>
      <point x="1786" y="809" type="line" smooth="yes"/>
      <point x="1786" y="440"/>
      <point x="1061" y="-23"/>
      <point x="338" y="-23" type="qcurve" smooth="yes"/>
      <point x="261" y="-23" type="line"/>
      <point x="261" y="397" type="line"/>
      <point x="318" y="397" type="line" smooth="yes"/>
      <point x="770" y="397"/>
      <point x="1193" y="589"/>
      <point x="1193" y="905" type="qcurve" smooth="yes"/>
      <point x="1193" y="925" type="line" smooth="yes"/>
      <point x="1193" y="1019"/>
      <point x="1043" y="1097"/>
      <point x="905" y="1097" type="qcurve" smooth="yes"/>
      <point x="767" y="1097"/>
      <point x="620" y="1019"/>
      <point x="620" y="928" type="qcurve" smooth="yes"/>
      <point x="620" y="835"/>
      <point x="743" y="763"/>
      <point x="895" y="763" type="qcurve" smooth="yes"/>
      <point x="1047" y="763"/>
      <point x="1193" y="841"/>
      <point x="1193" y="988" type="qcurve"/>
      <point x="1263" y="988" type="line"/>
      <point x="1263" y="712"/>
      <point x="857" y="504"/>
      <point x="658" y="504" type="qcurve" smooth="yes"/>
      <point x="366" y="504"/>
      <point x="25" y="712"/>
    </contour>
  </outline>
</glyph>
<glyph name="colon" format="2">
  <advance width="1024"/>
  <unicode hex="003A"/>
  <outline>
    <contour>
      <point x="214" y="826" type="qcurve" smooth="yes"/>
      <point x="214" y="946"/>
      <point x="368" y="1104"/>
      <point x="511" y="1104" type="qcurve" smooth="yes"/>
      <point x="657" y="1104"/>
      <point x="810" y="946"/>
      <point x="810" y="825" type="qcurve" smooth="yes"/>
      <point x="810" y="704"/>
      <point x="655" y="547"/>
      <point x="511" y="547" type="qcurve" smooth="yes"/>
      <point x="368" y="547"/>
      <point x="214" y="708"/>
    </contour>
    <contour>
      <point x="214" y="257" type="qcurve" smooth="yes"/>
      <point x="214" y="377"/>
      <point x="368" y="535"/>
      <point x="511" y="535" type="qcurve" smooth="yes"/>
      <point x="657" y="535"/>
      <point x="810" y="377"/>
      <point x="810" y="256" type="qcurve" smooth="yes"/>
      <point x="810" y="135"/>
      <point x="655" y="-22"/>
      <point x="511" y="-22" type="qcurve" smooth="yes"/>
      <point x="368" y="-22"/>
      <point x="214" y="139"/>
    </contour>
  </outline>
</glyph>
<glyph name="semicolon" format="2">
  <advance width="1029"/>
  <unicode hex="003B"/>
  <outline>
    <contour>
      <point x="-28" y="-197" type="line"/>
      <point x="107" y="-148"/>
      <point x="248" y="-20"/>
      <point x="248" y="70" type="qcurve" smooth="yes"/>
      <point x="248" y="487" type="line"/>
      <point x="810" y="487" type="line"/>
      <point x="810" y="70" type="line" smooth="yes"/>
      <point x="810" y="-94"/>
      <point x="526" y="-350"/>
      <point x="266" y="-398" type="qcurve"/>
    </contour>
    <contour>
      <point x="231" y="826" type="qcurve" smooth="yes"/>
      <point x="231" y="946"/>
      <point x="385" y="1104"/>
      <point x="528" y="1104" type="qcurve" smooth="yes"/>
      <point x="674" y="1104"/>
      <point x="827" y="946"/>
      <point x="827" y="825" type="qcurve" smooth="yes"/>
      <point x="827" y="704"/>
      <point x="672" y="547"/>
      <point x="528" y="547" type="qcurve" smooth="yes"/>
      <point x="385" y="547"/>
      <point x="231" y="708"/>
    </contour>
  </outline>
</glyph>
<glyph name="equal" format="2">
  <advance width="1417.4984423676012"/>
  <unicode hex="003D"/>
  <outline>
    <contour>
      <point x="94.5" y="279.0" type="line"/>
      <point x="94.5" y="645.3271028037383" type="line"/>
      <point x="1322.9984423676012" y="645.3271028037383" type="line"/>
      <point x="1322.9984423676012" y="279.0" type="line"/>
    </contour>
    <contour>
      <point x="94.5" y="680.6728971962617" type="line"/>
      <point x="94.5" y="1047.0" type="line"/>
      <point x="1322.9984423676012" y="1047.0" type="line"/>
      <point x="1322.9984423676012" y="680.6728971962617" type="line"/>
    </contour>
  </outline>
</glyph>
<glyph name="greater" format="2">
  <advance width="1428.8317757009345"/>
  <unicode hex="003E"/>
  <outline>
    <contour>
      <point x="143.5" y="30.345794392523374" type="line"/>
      <point x="143.5" y="529.0093457943925" type="line"/>
      <point x="722.5560747663551" y="679.8660436137072" type="line"/>
      <point x="143.5" y="834.5358255451713" type="line"/>
      <point x="143.5" y="1313.6542056074766" type="line"/>
      <point x="1291.3317757009345" y="883.1775700934579" type="line"/>
      <point x="1291.3317757009345" y="464.6355140186916" type="line"/>
    </contour>
  </outline>
</glyph>
<glyph name="question" format="2">
  <advance width="1649"/>
  <unicode hex="003F"/>
  <outline>
    <contour>
      <point x="491.68691588785043" y="242.5171339563863" type="qcurve" smooth="yes"/>
      <point x="491.68691588785043" y="363.9657320872274"/>
      <point x="650.0607476635514" y="536.9190031152648"/>
      <point x="797.7616822429907" y="536.9190031152648" type="qcurve" smooth="yes"/>
      <point x="946.4158878504672" y="536.9190031152648"/>
      <point x="1103.8364485981308" y="363.9657320872274"/>
      <point x="1103.8364485981308" y="242.5171339563863" type="qcurve" smooth="yes"/>
      <point x="1103.8364485981308" y="122.02180685358256"/>
      <point x="946.4158878504672" y="-50.93146417445483"/>
      <point x="797.7616822429907" y="-50.93146417445483" type="qcurve" smooth="yes"/>
      <point x="650.0607476635514" y="-50.93146417445483"/>
      <point x="491.68691588785043" y="122.02180685358256"/>
    </contour>
    <contour>
      <point x="94" y="935" type="line"/>
      <point x="94" y="983" type="line" smooth="yes"/>
      <point x="94" y="1225"/>
      <point x="457.45638629283485" y="1485.5327102803737"/>
      <point x="795.4563862928348" y="1485.5327102803737" type="qcurve" smooth="yes"/>
      <point x="1141.4563862928348" y="1485.5327102803737"/>
      <point x="1514.0514018691588" y="1263.1028037383178"/>
      <point x="1514.0514018691588" y="1057.1028037383178" type="qcurve" smooth="yes"/>
      <point x="1514.0514018691588" y="945.981308411215"/>
      <point x="1442.848909657321" y="806.1308411214953"/>
      <point x="1274.7959501557632" y="746.7102803738318" type="qcurve" smooth="yes"/>
      <point x="1109.5155763239875" y="691.0155763239876"/>
      <point x="1090" y="614"/>
      <point x="1090" y="572" type="qcurve" smooth="yes"/>
      <point x="1090" y="560" type="line"/>
      <point x="473" y="560" type="line"/>
      <point x="473" y="577" type="line" smooth="yes"/>
      <point x="473" y="708"/>
      <point x="556.9143302180685" y="850.5295950155763"/>
      <point x="667.9454828660437" y="885.9532710280374" type="qcurve" smooth="yes"/>
      <point x="762.3661366066862" y="912.0034872367136"/>
      <point x="863" y="938"/>
      <point x="863" y="985" type="qcurve" smooth="yes"/>
      <point x="863" y="1009"/>
      <point x="822" y="1034"/>
      <point x="784" y="1034" type="qcurve" smooth="yes"/>
      <point x="742" y="1034"/>
      <point x="697" y="993"/>
      <point x="697" y="955" type="qcurve" smooth="yes"/>
      <point x="697" y="935" type="line"/>
    </contour>
  </outline>
</glyph>
<glyph name="A" format="2">
  <advance width="1952"/>
  <unicode hex="0041"/>
  <anchor x="1207.578532570791" y="0.0" name="bottom"/>
  <anchor x="1842.0489375552147" y="0.0" name="ogonek"/>
  <anchor x="1237.12993443995" y="1456.0" name="top"/>
  <anchor x="589.1237039103548" y="1074.0" name="tonos"/>
  <outline>
    <contour>
      <point x="38" y="0" type="line"/>
      <point x="617" y="1461" type="line"/>
      <point x="1324" y="1461" type="line"/>
      <point x="1915" y="0" type="line"/>
      <point x="1249" y="0" type="line"/>
      <point x="953" y="929" type="line" smooth="yes"/>
      <point x="953" y="929"/>
      <point x="953" y="929"/>
      <point x="953" y="929" type="qcurve"/>
      <point x="953" y="929" type="line"/>
      <point x="953" y="929"/>
      <point x="953" y="929"/>
      <point x="953" y="929" type="qcurve" smooth="yes"/>
      <point x="669" y="0" type="line"/>
    </contour>
    <contour>
      <point x="394" y="191" type="line"/>
      <point x="527" y="584" type="line"/>
      <point x="1363" y="584" type="line"/>
      <point x="1511" y="191" type="line"/>
    </contour>
  </outline>
</glyph>
<glyph name="B" format="2">
  <advance width="1973"/>
  <unicode hex="0042"/>
  <anchor x="973.5404984423675" y="0.0" name="bottom"/>
  <anchor x="973.5404984423675" y="1456.0" name="top"/>
  <outline>
    <contour>
      <point x="208" y="0" type="line"/>
      <point x="208" y="1456" type="line"/>
      <point x="1156" y="1456" type="line" smooth="yes"/>
      <point x="1487" y="1456"/>
      <point x="1789" y="1270"/>
      <point x="1789" y="1091" type="qcurve" smooth="yes"/>
      <point x="1789" y="945"/>
      <point x="1664" y="779"/>
      <point x="1563" y="762" type="qcurve"/>
      <point x="1563" y="758" type="line"/>
      <point x="1677" y="744"/>
      <point x="1836" y="570"/>
      <point x="1836" y="420" type="qcurve" smooth="yes"/>
      <point x="1836" y="220"/>
      <point x="1527" y="0"/>
      <point x="1201" y="0" type="qcurve" smooth="yes"/>
    </contour>
    <contour>
      <point x="807" y="372" type="line"/>
      <point x="1124" y="372" type="line" smooth="yes"/>
      <point x="1172" y="372"/>
      <point x="1224" y="429"/>
      <point x="1224" y="482" type="qcurve" smooth="yes"/>
      <point x="1224" y="531"/>
      <point x="1172" y="583"/>
      <point x="1124" y="583" type="qcurve" smooth="yes"/>
      <point x="516" y="583" type="line"/>
      <point x="516" y="855" type="line"/>
      <point x="1102" y="855" type="line" smooth="yes"/>
      <point x="1147" y="855"/>
      <point x="1196" y="909"/>
      <point x="1196" y="959" type="qcurve" smooth="yes"/>
      <point x="1196" y="1008"/>
      <point x="1147" y="1060"/>
      <point x="1102" y="1060" type="qcurve" smooth="yes"/>
      <point x="807" y="1060" type="line"/>
    </contour>
  </outline>
</glyph>
<glyph name="C" format="2">
  <advance width="2012"/>
  <unicode hex="0043"/>
  <anchor x="1063.2040498442368" y="0.0" name="bottom"/>
  <anchor x="1073.2040498442368" y="1456.0" name="top"/>
  <outline>
    <contour>
      <point x="153" y="713" type="qcurve" smooth="yes"/>
      <point x="153" y="739" type="line" smooth="yes"/>
      <point x="153" y="1099"/>
      <point x="621" y="1486"/>
      <point x="1057" y="1486" type="qcurve" smooth="yes"/>
      <point x="1445" y="1486"/>
      <point x="1885" y="1163"/>
      <point x="1907" y="862" type="qcurve" smooth="yes"/>
      <point x="1909" y="820" type="line"/>
      <point x="1298" y="820" type="line"/>
      <point x="1296" y="862" type="line" smooth="yes"/>
      <point x="1293" y="928"/>
      <point x="1166" y="1000"/>
      <point x="1051" y="1000" type="qcurve" smooth="yes"/>
      <point x="917" y="1000"/>
      <point x="772" y="868"/>
      <point x="772" y="745" type="qcurve" smooth="yes"/>
      <point x="772" y="711" type="line" smooth="yes"/>
      <point x="772" y="586"/>
      <point x="917" y="452"/>
      <point x="1051" y="452" type="qcurve" smooth="yes"/>
      <point x="1166" y="452"/>
      <point x="1293" y="523"/>
      <point x="1296" y="589" type="qcurve" smooth="yes"/>
      <point x="1298" y="637" type="line"/>
      <point x="1910" y="637" type="line"/>
      <point x="1909" y="601" type="line" smooth="yes"/>
      <point x="1890" y="297"/>
      <point x="1449" y="-30"/>
      <point x="1057" y="-30" type="qcurve" smooth="yes"/>
      <point x="621" y="-30"/>
      <point x="153" y="355"/>
    </contour>
  </outline>
</glyph>
<glyph name="D" format="2">
  <advance width="2055.158878504673"/>
  <unicode hex="0044"/>
  <anchor x="1004.2788161993768" y="0.0" name="bottom"/>
  <anchor x="543.4875389408098" y="728.0" name="center"/>
  <anchor x="1004.2788161993768" y="1456.0" name="top"/>
  <outline>
    <contour>
      <point x="207.5" y="0.0" type="line"/>
      <point x="207.5" y="1456.0" type="line"/>
      <point x="1086.1791277258565" y="1456.0" type="line" smooth="yes"/>
      <point x="1522.0527967638443" y="1456.0"/>
      <point x="1902.6588785046729" y="1147.6222625191797"/>
      <point x="1902.6588785046729" y="734.9158878504672" type="qcurve" smooth="yes"/>
      <point x="1902.6588785046729" y="711.5514018691589" type="line" smooth="yes"/>
      <point x="1902.6588785046729" y="314.3777374808202"/>
      <point x="1527.0527967638443" y="0.0"/>
      <point x="1086.1791277258565" y="0.0" type="qcurve" smooth="yes"/>
    </contour>
    <contour>
      <point x="808.4532710280373" y="477.02985074626866" type="line"/>
      <point x="971.7866043613707" y="477.02985074626866" type="line" smooth="yes"/>
      <point x="1089.7468033663458" y="477.02985074626866"/>
      <point x="1284.4532710280373" y="544.6218905472638"/>
      <point x="1284.4532710280373" y="740.4767750034872" type="qcurve" smooth="yes"/>
      <point x="1284.4532710280373" y="705.9905147161389" type="line" smooth="yes"/>
      <point x="1284.4532710280373" y="908.3084577114429"/>
      <point x="1089.7468033663458" y="972.1641791044776"/>
      <point x="971.7866043613707" y="973.0149253731342" type="qcurve" smooth="yes"/>
      <point x="808.4532710280373" y="973.0149253731342" type="line"/>
    </contour>
  </outline>
</glyph>
<glyph name="E" format="2">
  <advance width="1839"/>
  <unicode hex="0045"/>
  <anchor x="1244.2124192123495" y="0.0" name="bottom"/>
  <anchor x="1946.4987910912728" y="0.0" name="ogonek"/>
  <anchor x="1243.5914120983866" y="1456.0" name="top"/>
  <anchor x="370.4310922025387" y="1074.0" name="tonos"/>
  <outline>
    <contour>
      <point x="208" y="0" type="line"/>
      <point x="208" y="1456" type="line"/>
      <point x="1726" y="1456" type="line"/>
      <point x="1726" y="979" type="line"/>
      <point x="809" y="979" type="line"/>
      <point x="809" y="459" type="line"/>
      <point x="1734" y="459" type="line"/>
      <point x="1734" y="0" type="line"/>
    </contour>
    <contour>
      <point x="509" y="528" type="line"/>
      <point x="509" y="921" type="line"/>
      <point x="1658" y="921" type="line"/>
      <point x="1658" y="528" type="line"/>
    </contour>
  </outline>
</glyph>
<glyph name="F" format="2">
  <advance width="1710"/>
  <unicode hex="0046"/>
  <anchor x="1040.842679127726" y="0.0" name="bottom"/>
  <anchor x="1074.3847352024923" y="1457.0" name="top"/>
  <outline>
    <contour>
      <point x="208" y="0" type="line"/>
      <point x="208" y="1456" type="line"/>
      <point x="1615" y="1456" type="line"/>
      <point x="1615" y="961" type="line"/>
      <point x="808" y="961" type="line"/>
      <point x="808" y="0" type="line"/>
    </contour>
    <contour>
      <point x="508" y="390" type="line"/>
      <point x="508" y="878" type="line"/>
      <point x="1539" y="878" type="line"/>
      <point x="1539" y="390" type="line"/>
    </contour>
  </outline>
</glyph>
<glyph name="G" format="2">
  <advance width="2067"/>
  <unicode hex="0047"/>
  <anchor x="1105.9423676012461" y="0.0" name="bottom"/>
  <anchor x="1067.811526479751" y="1456.0" name="top"/>
  <outline>
    <contour>
      <point x="153" y="713" type="qcurve" smooth="yes"/>
      <point x="153" y="739" type="line" smooth="yes"/>
      <point x="153" y="1099"/>
      <point x="624" y="1486"/>
      <point x="1062" y="1486" type="qcurve" smooth="yes"/>
      <point x="1432" y="1486"/>
      <point x="1849" y="1215"/>
      <point x="1866" y="963" type="qcurve" smooth="yes"/>
      <point x="1869" y="926" type="line"/>
      <point x="1280" y="926" type="line"/>
      <point x="1278" y="940" type="line" smooth="yes"/>
      <point x="1273" y="970"/>
      <point x="1149" y="1003"/>
      <point x="1039" y="1003" type="qcurve" smooth="yes"/>
      <point x="911" y="1003"/>
      <point x="773" y="869"/>
      <point x="773" y="745" type="qcurve" smooth="yes"/>
      <point x="773" y="711" type="line" smooth="yes"/>
      <point x="773" y="575"/>
      <point x="928" y="428"/>
      <point x="1072" y="428" type="qcurve" smooth="yes"/>
      <point x="1149" y="428"/>
      <point x="1269" y="439"/>
      <point x="1305" y="450" type="qcurve"/>
      <point x="1305" y="501" type="line"/>
      <point x="1057" y="501" type="line"/>
      <point x="1057" y="830" type="line"/>
      <point x="1898" y="830" type="line"/>
      <point x="1901" y="160" type="line"/>
      <point x="1776" y="68"/>
      <point x="1364" y="-30"/>
      <point x="1107" y="-30" type="qcurve" smooth="yes"/>
      <point x="647" y="-30"/>
      <point x="153" y="355"/>
    </contour>
  </outline>
</glyph>
<glyph name="H" format="2">
  <advance width="2118"/>
  <unicode hex="0048"/>
  <anchor x="1058.1199376947038" y="0.0" name="bottom"/>
  <anchor x="1057.7866043613708" y="1100.0" name="center"/>
  <anchor x="1058.1199376947038" y="1456.0" name="top"/>
  <anchor x="1823.3193146417445" y="0.0" name="cy_descender"/>
  <anchor x="-10.5" y="1074.0" name="tonos"/>
  <outline>
    <contour>
      <point x="207.5" y="0.0" type="line"/>
      <point x="207.5" y="1456.0" type="line"/>
      <point x="808.4532710280373" y="1456.0" type="line"/>
      <point x="808.4532710280373" y="0.0" type="line"/>
    </contour>
    <contour>
      <point x="501.62916724787283" y="501.85074626865674" type="line"/>
      <point x="501.62916724787283" y="1001.8507462686567" type="line"/>
      <point x="1604.1904728692984" y="1001.8507462686567" type="line"/>
      <point x="1604.1904728692984" y="501.85074626865674" type="line"/>
    </contour>
    <contour>
      <point x="1308.739875389408" y="0.0" type="line"/>
      <point x="1308.739875389408" y="1456.0" type="line"/>
      <point x="1909.6931464174452" y="1456.0" type="line"/>
      <point x="1909.6931464174452" y="0.0" type="line"/>
    </contour>
  </outline>
</glyph>
<glyph name="J" format="2">
  <advance width="1732"/>
  <unicode hex="004A"/>
  <anchor x="762.714953271028" y="0.0" name="bottom"/>
  <anchor x="1276.923676012461" y="1456.0" name="top"/>
  <outline>
    <contour>
      <point x="66" y="624" type="qcurve" smooth="yes"/>
      <point x="66" y="677" type="line"/>
      <point x="597" y="677" type="line"/>
      <point x="597" y="624" type="line" smooth="yes"/>
      <point x="597" y="542"/>
      <point x="692" y="453"/>
      <point x="781" y="453" type="qcurve" smooth="yes"/>
      <point x="870" y="453"/>
      <point x="965" y="566"/>
      <point x="965" y="672" type="qcurve" smooth="yes"/>
      <point x="965" y="1456" type="line"/>
      <point x="1566" y="1456" type="line"/>
      <point x="1566" y="672" type="line" smooth="yes"/>
      <point x="1566" y="334"/>
      <point x="1159" y="-30"/>
      <point x="781" y="-30" type="qcurve" smooth="yes"/>
      <point x="437" y="-30"/>
      <point x="66" y="309"/>
    </contour>
  </outline>
</glyph>
<glyph name="K" format="2">
  <advance width="2232.0510531454875"/>
  <unicode hex="004B"/>
  <anchor x="994.2071651090342" y="0.0" name="bottom"/>
  <anchor x="994.2071651090342" y="1456.0" name="top"/>
  <outline>
    <contour>
      <point x="207.5" y="0.0" type="line"/>
      <point x="207.5" y="1456.0" type="line"/>
      <point x="808.4532710280373" y="1456.0" type="line"/>
      <point x="808.4532710280373" y="0.0" type="line"/>
    </contour>
    <contour>
      <point x="1451.6935183893615" y="0.0" type="line"/>
      <point x="900.7646580183197" y="764.5937136746174" type="line"/>
      <point x="1309.761263774585" y="1185.1890082298787" type="line"/>
      <point x="2211.9988143395176" y="0.0" type="line"/>
    </contour>
    <contour>
      <point x="505.58439112846986" y="158.35179243967082" type="line"/>
      <point x="503.8828985911564" y="623.0333844794718" type="line"/>
      <point x="1339.779583391454" y="1456.0" type="line"/>
      <point x="1897.2113032966013" y="1456.0" type="line"/>
    </contour>
  </outline>
</glyph>
<glyph name="L" format="2">
  <advance width="1678"/>
  <unicode hex="004C"/>
  <anchor x="959.088785046729" y="0.0" name="bottom"/>
  <anchor x="1251.683800623053" y="728.0" name="center"/>
  <anchor x="657.8302180685358" y="1456.0" name="top"/>
  <anchor x="1234.677570093458" y="1052.0" name="topright"/>
  <outline>
    <contour>
      <point x="208" y="0" type="line"/>
      <point x="208" y="1456" type="line"/>
      <point x="828" y="1456" type="line"/>
      <point x="828" y="500" type="line"/>
      <point x="1583" y="500" type="line"/>
      <point x="1583" y="0" type="line"/>
    </contour>
  </outline>
</glyph>
<glyph name="M" format="2">
  <advance width="2647.663551401869"/>
  <unicode hex="004D"/>
  <anchor x="1656.5424977914165" y="0.0" name="bottom"/>
  <anchor x="1657.4957688194538" y="1456.0" name="top"/>
  <outline>
    <contour>
      <point x="207.5" y="0.0" type="line"/>
      <point x="207.5" y="1456.0" type="line"/>
      <point x="963.107476635514" y="1456.0" type="line"/>
      <point x="1259.5872274143303" y="943.4485981308411" type="line" smooth="yes"/>
      <point x="1266.6339563862928" y="929.3208722741433"/>
      <point x="1307.6588785046729" y="803.644859813084"/>
      <point x="1308.2258566978192" y="760.2990654205607" type="qcurve"/>
      <point x="1313.3660436137072" y="760.2990654205607" type="line"/>
      <point x="1315.8395638629283" y="803.644859813084"/>
      <point x="1363.53738317757" y="927.0809968847352"/>
      <point x="1373.443925233645" y="943.4485981308411" type="qcurve" smooth="yes"/>
      <point x="1668.3504672897197" y="1456.0" type="line"/>
      <point x="2440.163551401869" y="1456.0" type="line"/>
      <point x="2440.163551401869" y="0.0" type="line"/>
      <point x="1836.6308411214955" y="0.0" type="line"/>
      <point x="1836.6308411214955" y="782.1308411214953" type="line" smooth="yes"/>
      <point x="1836.6308411214955" y="818.803738317757"/>
      <point x="1839.8707165109035" y="905.2429906542056"/>
      <point x="1842.2507788161995" y="941.2959501557633" type="qcurve"/>
      <point x="1834.2507788161995" y="941.2959501557633" type="line"/>
      <point x="1830.8239875389409" y="905.2429906542056"/>
      <point x="1831.936137071651" y="818.183800623053"/>
      <point x="1814.070093457944" y="782.1308411214953" type="qcurve" smooth="yes"/>
      <point x="1470.4408099688474" y="0.0" type="line"/>
      <point x="1004.1604361370718" y="0.0" type="line"/>
      <point x="674.2102803738318" y="641.0467289719627" type="line" smooth="yes"/>
      <point x="655.7242990654206" y="672.3333333333334"/>
      <point x="646.303738317757" y="764.1588785046729"/>
      <point x="643.5436137071652" y="799.8785046728972" type="qcurve"/>
      <point x="635.5436137071652" y="799.8785046728972" type="line"/>
      <point x="637.2570093457944" y="764.1588785046729"/>
      <point x="640.2102803738318" y="677.7196261682243"/>
      <point x="640.2102803738318" y="641.0467289719627" type="qcurve" smooth="yes"/>
      <point x="640.2102803738318" y="0.0" type="line"/>
    </contour>
  </outline>
</glyph>
<glyph name="N" format="2">
  <advance width="2053"/>
  <unicode hex="004E"/>
  <anchor x="1403.5096712698191" y="0.0" name="bottom"/>
  <anchor x="1403.5096712698191" y="1456.0" name="top"/>
  <anchor x="1966.3289859115637" y="0.0" name="engtail"/>
  <outline>
    <contour>
      <point x="208" y="0" type="line"/>
      <point x="208" y="1456" type="line"/>
      <point x="787" y="1456" type="line"/>
      <point x="1342" y="758" type="line" smooth="yes"/>
      <point x="1342" y="758"/>
      <point x="1342" y="758"/>
      <point x="1342" y="758" type="qcurve"/>
      <point x="1342" y="758" type="line"/>
      <point x="1342" y="758"/>
      <point x="1342" y="758"/>
      <point x="1342" y="758" type="qcurve" smooth="yes"/>
      <point x="1342" y="1456" type="line"/>
      <point x="1845" y="1456" type="line"/>
      <point x="1845" y="0" type="line"/>
      <point x="1285" y="0" type="line"/>
      <point x="713" y="727" type="line" smooth="yes"/>
      <point x="713" y="727"/>
      <point x="713" y="727"/>
      <point x="713" y="727" type="qcurve"/>
      <point x="713" y="727" type="line"/>
      <point x="713" y="727"/>
      <point x="713" y="727"/>
      <point x="713" y="727" type="qcurve" smooth="yes"/>
      <point x="713" y="0" type="line"/>
    </contour>
  </outline>
</glyph>
<glyph name="O" format="2">
  <advance width="2114.6510903426793"/>
  <unicode hex="004F"/>
  <anchor x="1057.3255451713396" y="0.0" name="bottom"/>
  <anchor x="1057.3255451713396" y="728.0" name="center"/>
  <anchor x="1374.1822429906542" y="0.0" name="ogonek"/>
  <anchor x="1057.3255451713396" y="1456.0" name="top"/>
  <anchor x="1371.848909657321" y="1456.0" name="topright"/>
  <anchor x="31.188473520249225" y="1074.0" name="tonos"/>
  <anchor x="739.4190031152647" y="750.0" name="yu_dash"/>
  <outline>
    <contour>
      <point x="152.5" y="713.4579439252336" type="qcurve" smooth="yes"/>
      <point x="152.5" y="738.7289719626168" type="line" smooth="yes"/>
      <point x="152.5" y="1120.9345794392523"/>
      <point x="601.8676012461059" y="1486.0"/>
      <point x="1057.3255451713396" y="1486.0" type="qcurve" smooth="yes"/>
      <point x="1512.7834890965732" y="1486.0"/>
      <point x="1962.1510903426793" y="1120.9345794392523"/>
      <point x="1962.1510903426793" y="738.7289719626168" type="qcurve" smooth="yes"/>
      <point x="1962.1510903426793" y="713.4579439252336" type="line" smooth="yes"/>
      <point x="1962.1510903426793" y="332.2056074766355"/>
      <point x="1502.2975077881622" y="-30.0"/>
      <point x="1057.3255451713396" y="-30.0" type="qcurve" smooth="yes"/>
      <point x="612.3535825545171" y="-30.0"/>
      <point x="152.5" y="332.2056074766355"/>
    </contour>
    <contour>
      <point x="772.6121495327103" y="710.9253731343283" type="line" smooth="yes"/>
      <point x="772.6121495327103" y="535.7164179104477"/>
      <point x="927.9454828660437" y="455.5820895522388"/>
      <point x="1058.278816199377" y="455.5820895522388" type="qcurve" smooth="yes"/>
      <point x="1188.6121495327102" y="455.5820895522388"/>
      <point x="1343.9454828660437" y="535.7164179104477"/>
      <point x="1343.9454828660437" y="710.9253731343283" type="qcurve" smooth="yes"/>
      <point x="1343.9454828660437" y="745.0746268656717" type="line" smooth="yes"/>
      <point x="1343.9454828660437" y="926.950248756219"/>
      <point x="1187.6121495327102" y="1000.4179104477612"/>
      <point x="1058.278816199377" y="1000.4179104477612" type="qcurve" smooth="yes"/>
      <point x="928.6121495327103" y="1000.4179104477612"/>
      <point x="772.6121495327103" y="926.950248756219"/>
      <point x="772.6121495327103" y="745.0746268656717" type="qcurve" smooth="yes"/>
    </contour>
  </outline>
</glyph>
<glyph name="P" format="2">
  <advance width="1934.2647975077882"/>
  <unicode hex="0050"/>
  <anchor x="821.076323987539" y="0.0" name="bottom"/>
  <anchor x="970.7398753894082" y="1456.0" name="top"/>
  <outline>
    <contour>
      <point x="207.5" y="0.0" type="line"/>
      <point x="207.5" y="1456.0" type="line"/>
      <point x="1318.5062305295949" y="1456.0" type="line" smooth="yes"/>
      <point x="1563.7897196261683" y="1456.0"/>
      <point x="1843.4314641744547" y="1191.1791044776119"/>
      <point x="1843.4314641744547" y="906.1044776119403" type="qcurve" smooth="yes"/>
      <point x="1843.4314641744547" y="617.6268656716418"/>
      <point x="1563.7897196261683" y="310.5223880597015"/>
      <point x="1318.5062305295949" y="309.67164179104475" type="qcurve" smooth="yes"/>
      <point x="514.4532710280374" y="309.67164179104475" type="line"/>
      <point x="514.4532710280374" y="781.5970149253732" type="line"/>
      <point x="1017.2258566978193" y="781.5970149253732" type="line" smooth="yes"/>
      <point x="1138.1462547077695" y="781.5970149253732"/>
      <point x="1227.2258566978192" y="787.9751243781095"/>
      <point x="1227.2258566978192" y="883.1343283582089" type="qcurve" smooth="yes"/>
      <point x="1227.2258566978192" y="978.2935323383085"/>
      <point x="1138.1462547077695" y="978.9701492537313"/>
      <point x="1017.2258566978193" y="979.8208955223881" type="qcurve" smooth="yes"/>
      <point x="819.8925233644859" y="979.8208955223881" type="line"/>
      <point x="819.8925233644859" y="0.0" type="line"/>
    </contour>
  </outline>
</glyph>
<glyph name="Q" format="2">
  <advance width="2115"/>
  <unicode hex="0051"/>
  <anchor x="1057.3255451713396" y="0.0" name="bottom"/>
  <anchor x="1057.3255451713396" y="1456.0" name="top"/>
  <outline>
    <contour>
      <point x="153" y="713" type="qcurve" smooth="yes"/>
      <point x="153" y="739" type="line" smooth="yes"/>
      <point x="153" y="1099"/>
      <point x="621" y="1496"/>
      <point x="1057" y="1496" type="qcurve" smooth="yes"/>
      <point x="1493" y="1496"/>
      <point x="1962" y="1099"/>
      <point x="1962" y="739" type="qcurve" smooth="yes"/>
      <point x="1962" y="713" type="line" smooth="yes"/>
      <point x="1962" y="355"/>
      <point x="1493" y="-40"/>
      <point x="1057" y="-40" type="qcurve" smooth="yes"/>
      <point x="621" y="-40"/>
      <point x="153" y="355"/>
    </contour>
    <contour>
      <point x="773" y="711" type="line" smooth="yes"/>
      <point x="773" y="588"/>
      <point x="920" y="446"/>
      <point x="1058" y="446" type="qcurve" smooth="yes"/>
      <point x="1196" y="446"/>
      <point x="1344" y="588"/>
      <point x="1344" y="711" type="qcurve" smooth="yes"/>
      <point x="1344" y="745" type="line" smooth="yes"/>
      <point x="1344" y="868"/>
      <point x="1196" y="1010"/>
      <point x="1058" y="1010" type="qcurve" smooth="yes"/>
      <point x="920" y="1010"/>
      <point x="773" y="868"/>
      <point x="773" y="745" type="qcurve" smooth="yes"/>
    </contour>
    <contour>
      <point x="1720" y="-267" type="line"/>
      <point x="995" y="167" type="line"/>
      <point x="1281" y="521" type="line"/>
      <point x="2009" y="90" type="line"/>
    </contour>
  </outline>
</glyph>
<glyph name="R" format="2">
  <advance width="1953"/>
  <unicode hex="0052"/>
  <anchor x="1045.820899242107" y="0.0" name="bottom"/>
  <anchor x="1045.820899242107" y="1456.0" name="top"/>
  <outline>
    <contour>
      <point x="213" y="0" type="line"/>
      <point x="213" y="1456" type="line"/>
      <point x="1228" y="1456" type="line" smooth="yes"/>
      <point x="1536" y="1456"/>
      <point x="1812" y="1183"/>
      <point x="1812" y="916" type="qcurve" smooth="yes"/>
      <point x="1812" y="645"/>
      <point x="1518" y="304"/>
      <point x="1237" y="305" type="qcurve" smooth="yes"/>
      <point x="512" y="305" type="line"/>
      <point x="512" y="772" type="line"/>
      <point x="1098" y="772" type="line" smooth="yes"/>
      <point x="1149" y="772"/>
      <point x="1204" y="826"/>
      <point x="1204" y="876" type="qcurve" smooth="yes"/>
      <point x="1204" y="926"/>
      <point x="1149" y="979"/>
      <point x="1098" y="979" type="qcurve" smooth="yes"/>
      <point x="811" y="979" type="line"/>
      <point x="811" y="0" type="line"/>
    </contour>
    <contour>
      <point x="1195" y="0" type="line"/>
      <point x="883" y="537" type="line"/>
      <point x="1429" y="690" type="line"/>
      <point x="1876" y="0" type="line"/>
    </contour>
  </outline>
</glyph>
<glyph name="S" format="2">
  <advance width="1902"/>
  <unicode hex="0053"/>
  <anchor x="951.0732087227415" y="0.0" name="bottom"/>
  <anchor x="951.0732087227415" y="1456.0" name="top"/>
  <outline>
    <contour>
      <point x="132" y="436" type="qcurve" smooth="yes"/>
      <point x="128" y="513" type="line"/>
      <point x="756" y="513" type="line"/>
      <point x="757" y="482" type="line" smooth="yes"/>
      <point x="758" y="415"/>
      <point x="864" y="343"/>
      <point x="962" y="343" type="qcurve" smooth="yes"/>
      <point x="1048" y="343"/>
      <point x="1140" y="378"/>
      <point x="1140" y="410" type="qcurve" smooth="yes"/>
      <point x="1141" y="438"/>
      <point x="1041" y="487"/>
      <point x="903" y="504" type="qcurve" smooth="yes"/>
      <point x="503" y="554"/>
      <point x="145" y="784"/>
      <point x="145" y="991" type="qcurve" smooth="yes"/>
      <point x="145" y="1229"/>
      <point x="563" y="1486"/>
      <point x="951" y="1486" type="qcurve" smooth="yes"/>
      <point x="1326" y="1486"/>
      <point x="1736" y="1225"/>
      <point x="1742" y="983" type="qcurve" smooth="yes"/>
      <point x="1741" y="961" type="line"/>
      <point x="1140" y="961" type="line"/>
      <point x="1140" y="982" type="line" smooth="yes"/>
      <point x="1139" y="1037"/>
      <point x="1031" y="1096"/>
      <point x="932" y="1096" type="qcurve" smooth="yes"/>
      <point x="848" y="1096"/>
      <point x="757" y="1065"/>
      <point x="757" y="1036" type="qcurve" smooth="yes"/>
      <point x="757" y="1007"/>
      <point x="906" y="971"/>
      <point x="1106" y="948" type="qcurve" smooth="yes"/>
      <point x="1464" y="906"/>
      <point x="1785" y="695"/>
      <point x="1785" y="501" type="qcurve" smooth="yes"/>
      <point x="1785" y="245"/>
      <point x="1368" y="-30"/>
      <point x="981" y="-30" type="qcurve" smooth="yes"/>
      <point x="586" y="-30"/>
      <point x="144" y="240"/>
    </contour>
  </outline>
</glyph>
<glyph name="T" format="2">
  <advance width="1852"/>
  <unicode hex="0054"/>
  <anchor x="928.0856697819314" y="0.0" name="bottom"/>
  <anchor x="928.0856697819314" y="728.0" name="center"/>
  <anchor x="928.0856697819314" y="1456.0" name="top"/>
  <anchor x="1131.9922118380061" y="0.0" name="cy_descender"/>
  <outline>
    <contour>
      <point x="621" y="0" type="line"/>
      <point x="621" y="1378" type="line"/>
      <point x="1232" y="1378" type="line"/>
      <point x="1232" y="0" type="line"/>
    </contour>
    <contour>
      <point x="62" y="956" type="line"/>
      <point x="62" y="1456" type="line"/>
      <point x="1791" y="1456" type="line"/>
      <point x="1791" y="956" type="line"/>
    </contour>
  </outline>
</glyph>
<glyph name="U" format="2">
  <advance width="2042.619937694704"/>
  <unicode hex="0055"/>
  <anchor x="848.291277258567" y="0.0" name="bottom"/>
  <anchor x="1101.6121495327102" y="0.0" name="ogonek"/>
  <anchor x="977.9361370716512" y="1456.0" name="top"/>
  <anchor x="1713.572674013112" y="1456.0" name="topright"/>
  <outline>
    <contour>
      <point x="192.5" y="707.2692611707815" type="qcurve" smooth="yes"/>
      <point x="192.5" y="1456.0" type="line"/>
      <point x="792.5" y="1456.0" type="line"/>
      <point x="792.5" y="714.0099502487562" type="line" smooth="yes"/>
      <point x="792.5" y="581.6517412935324"/>
      <point x="909.4283954061468" y="496.4179104477612"/>
      <point x="1022.1199376947039" y="496.4179104477612" type="qcurve" smooth="yes"/>
      <point x="1134.8114799832613" y="496.4179104477612"/>
      <point x="1250.119937694704" y="581.6517412935324"/>
      <point x="1250.119937694704" y="714.0099502487562" type="qcurve" smooth="yes"/>
      <point x="1250.119937694704" y="1456.0" type="line"/>
      <point x="1850.119937694704" y="1456.0" type="line"/>
      <point x="1850.119937694704" y="548.5157390617009" type="line" smooth="yes"/>
      <point x="1850.119937694704" y="277.94764495280606"/>
      <point x="1468.5093457943926" y="-30.0"/>
      <point x="1019.6025247593806" y="-30.0" type="qcurve" smooth="yes"/>
      <point x="544.7523364485982" y="-30.0"/>
      <point x="192.5" y="310.59445761844984"/>
    </contour>
  </outline>
</glyph>
<glyph name="V" format="2">
  <advance width="2038"/>
  <unicode hex="0056"/>
  <anchor x="1074.4376947040498" y="0.0" name="bottom"/>
  <anchor x="1098.2694704049845" y="1456.0" name="top"/>
  <outline>
    <contour>
      <point x="38" y="1456" type="line"/>
      <point x="759" y="1456" type="line"/>
      <point x="1095" y="625" type="line" smooth="yes"/>
      <point x="1095" y="625"/>
      <point x="1095" y="625"/>
      <point x="1095" y="625" type="qcurve"/>
      <point x="1095" y="625" type="line"/>
      <point x="1095" y="625"/>
      <point x="1095" y="625"/>
      <point x="1095" y="625" type="qcurve" smooth="yes"/>
      <point x="1426" y="1456" type="line"/>
      <point x="2001" y="1456" type="line"/>
      <point x="1378" y="-10" type="line"/>
      <point x="667" y="-10" type="line"/>
    </contour>
  </outline>
</glyph>
<glyph name="W" format="2">
  <advance width="3006"/>
  <unicode hex="0057"/>
  <anchor x="917.5357558004371" y="0.0" name="bottom"/>
  <anchor x="917.5357558004371" y="1456.0" name="top"/>
  <outline>
    <contour>
      <point x="498" y="-10" type="line"/>
      <point x="88" y="1456" type="line"/>
      <point x="681" y="1456" type="line"/>
      <point x="930" y="563" type="line" smooth="yes"/>
      <point x="930" y="563"/>
      <point x="930" y="563"/>
      <point x="930" y="563" type="qcurve"/>
      <point x="930" y="563" type="line"/>
      <point x="930" y="563"/>
      <point x="930" y="563"/>
      <point x="930" y="563" type="qcurve" smooth="yes"/>
      <point x="1211" y="1456" type="line"/>
      <point x="1933" y="1456" type="line"/>
      <point x="2206" y="563" type="line" smooth="yes"/>
      <point x="2206" y="563"/>
      <point x="2206" y="563"/>
      <point x="2206" y="563" type="qcurve"/>
      <point x="2206" y="563" type="line"/>
      <point x="2206" y="563"/>
      <point x="2206" y="563"/>
      <point x="2206" y="563" type="qcurve" smooth="yes"/>
      <point x="2450" y="1456" type="line"/>
      <point x="2919" y="1456" type="line"/>
      <point x="2534" y="-10" type="line"/>
      <point x="1775" y="-10" type="line"/>
      <point x="1499" y="848" type="line" smooth="yes"/>
      <point x="1499" y="848"/>
      <point x="1499" y="848"/>
      <point x="1499" y="848" type="qcurve"/>
      <point x="1499" y="848" type="line"/>
      <point x="1499" y="848"/>
      <point x="1499" y="848"/>
      <point x="1499" y="848" type="qcurve" smooth="yes"/>
      <point x="1223" y="-10" type="line"/>
    </contour>
  </outline>
</glyph>
<glyph name="X" format="2">
  <advance width="1978"/>
  <unicode hex="0058"/>
  <anchor x="982.0638629283488" y="0.0" name="bottom"/>
  <anchor x="982.0638629283488" y="1456.0" name="top"/>
  <anchor x="1437.4781931464174" y="0.0" name="cy_descender"/>
  <outline>
    <contour>
      <point x="63" y="0" type="line"/>
      <point x="630" y="834" type="line"/>
      <point x="843" y="834" type="line"/>
      <point x="1250" y="1456" type="line"/>
      <point x="1900" y="1456" type="line"/>
      <point x="1368" y="656" type="line"/>
      <point x="1136" y="656" type="line"/>
      <point x="712" y="0" type="line"/>
    </contour>
    <contour>
      <point x="74" y="1456" type="line"/>
      <point x="832" y="1456" type="line"/>
      <point x="1310" y="806" type="line"/>
      <point x="1320" y="806" type="line"/>
      <point x="1916" y="0" type="line"/>
      <point x="1156" y="0" type="line"/>
      <point x="663" y="670" type="line"/>
      <point x="653" y="670" type="line"/>
    </contour>
  </outline>
</glyph>
<glyph name="Y" format="2">
  <advance width="2011"/>
  <unicode hex="0059"/>
  <anchor x="1017.8613707165108" y="0.0" name="bottom"/>
  <anchor x="1066.4781931464174" y="1456.0" name="top"/>
  <anchor x="140.9890965732087" y="1074.0" name="tonos"/>
  <outline>
    <contour>
      <point x="701" y="0" type="line"/>
      <point x="701" y="544" type="line"/>
      <point x="53" y="1456" type="line"/>
      <point x="713" y="1456" type="line"/>
      <point x="1064" y="955" type="line" smooth="yes"/>
      <point x="1064" y="955"/>
      <point x="1064" y="955"/>
      <point x="1064" y="955" type="qcurve"/>
      <point x="1064" y="955" type="line"/>
      <point x="1064" y="955"/>
      <point x="1064" y="955"/>
      <point x="1064" y="955" type="qcurve" smooth="yes"/>
      <point x="1427" y="1456" type="line"/>
      <point x="1959" y="1456" type="line"/>
      <point x="1312" y="544" type="line"/>
      <point x="1312" y="0" type="line"/>
    </contour>
  </outline>
</glyph>
<glyph name="Z" format="2">
  <advance width="1779.1246105919004"/>
  <unicode hex="005A"/>
  <anchor x="943.2788161993769" y="0.0" name="bottom"/>
  <anchor x="894.6619937694703" y="1456.0" name="top"/>
  <outline>
    <contour>
      <point x="102.5" y="0.0" type="line"/>
      <point x="102.5" y="395.22388059701495" type="line"/>
      <point x="811.4177477100479" y="957.7014925373135" type="line"/>
      <point x="114.5" y="957.7014925373135" type="line"/>
      <point x="114.5" y="1456.0" type="line"/>
      <point x="1633.6588785046729" y="1456.0" type="line"/>
      <point x="1633.6588785046729" y="1060.7761194029852" type="line"/>
      <point x="915.0033709954898" y="491.4925373134328" type="line"/>
      <point x="1675.6246105919004" y="491.4925373134328" type="line"/>
      <point x="1675.6246105919004" y="0.0" type="line"/>
    </contour>
  </outline>
</glyph>
<glyph name="bracketleft" format="2">
  <advance width="1075.9750778816197"/>
  <unicode hex="005B"/>
  <outline>
    <contour>
      <point x="181.5" y="-310.0" type="line"/>
      <point x="181.5" y="1456.0" type="line"/>
      <point x="958.4750778816199" y="1456.0" type="line"/>
      <point x="958.4750778816199" y="955.7014925373135" type="line"/>
      <point x="747.8084112149533" y="955.7014925373135" type="line"/>
      <point x="747.8084112149533" y="190.2985074626866" type="line"/>
      <point x="958.4750778816199" y="190.2985074626866" type="line"/>
      <point x="958.4750778816199" y="-310.0" type="line"/>
    </contour>
  </outline>
</glyph>
<glyph name="bracketright" format="2">
  <advance width="1075.9750778816197"/>
  <unicode hex="005D"/>
  <outline>
    <contour>
      <point x="894.4750778816199" y="-310.0" type="line"/>
      <point x="117.5" y="-310.0" type="line"/>
      <point x="117.5" y="190.2985074626866" type="line"/>
      <point x="328.1666666666667" y="190.2985074626866" type="line"/>
      <point x="328.1666666666667" y="955.7014925373135" type="line"/>
      <point x="117.5" y="955.7014925373135" type="line"/>
      <point x="117.5" y="1456.0" type="line"/>
      <point x="894.4750778816199" y="1456.0" type="line"/>
    </contour>
  </outline>
</glyph>
<glyph name="asciicircum" format="2">
  <advance width="1743"/>
  <unicode hex="005E"/>
  <outline>
    <contour>
      <point x="10.0" y="720.0" type="line"/>
      <point x="531.4825870646766" y="1456.0" type="line"/>
      <point x="1211.9303482587065" y="1456.0" type="line"/>
      <point x="1733.4129353233832" y="720.0" type="line"/>
      <point x="994.8731343283582" y="722" type="line"/>
      <point x="870.8731343283582" y="997" type="line"/>
      <point x="760.8731343283582" y="722" type="line"/>
    </contour>
  </outline>
</glyph>
<glyph name="underscore" format="2">
  <advance width="1047"/>
  <unicode hex="005F"/>
  <outline>
    <contour>
      <point x="-32" y="-471" type="line"/>
      <point x="-32" y="-74" type="line"/>
      <point x="1079" y="-74" type="line"/>
      <point x="1079" y="-471" type="line"/>
    </contour>
  </outline>
</glyph>
<glyph name="a" format="2">
  <advance width="1752"/>
  <unicode hex="0061"/>
  <anchor x="709.9797507788162" y="0.0" name="bottom"/>
  <anchor x="1577.0856697819315" y="0.0" name="ogonek"/>
  <anchor x="857.7367601246106" y="916.0" name="top"/>
  <outline>
    <contour>
      <point x="594" y="-20" type="qcurve" smooth="yes"/>
      <point x="341" y="-20"/>
      <point x="128" y="133"/>
      <point x="128" y="276" type="qcurve" smooth="yes"/>
      <point x="128" y="414"/>
      <point x="401" y="545"/>
      <point x="741" y="554" type="qcurve" smooth="yes"/>
      <point x="1297" y="554" type="line"/>
      <point x="1297" y="384" type="line"/>
      <point x="887" y="384" type="line" smooth="yes"/>
      <point x="783" y="384"/>
      <point x="671" y="355"/>
      <point x="671" y="328" type="qcurve" smooth="yes"/>
      <point x="671" y="298"/>
      <point x="747" y="266"/>
      <point x="817" y="266" type="qcurve" smooth="yes"/>
      <point x="921" y="266"/>
      <point x="1014" y="316"/>
      <point x="1014" y="372" type="qcurve"/>
      <point x="1014" y="522" type="line" smooth="yes"/>
      <point x="1016" y="605"/>
      <point x="943" y="656"/>
      <point x="859" y="656" type="qcurve" smooth="yes"/>
      <point x="791" y="656"/>
      <point x="711" y="632"/>
      <point x="711" y="611" type="qcurve" smooth="yes"/>
      <point x="711" y="577" type="line"/>
      <point x="194" y="577" type="line"/>
      <point x="194" y="611" type="line" smooth="yes"/>
      <point x="194" y="772"/>
      <point x="538" y="946"/>
      <point x="858" y="946" type="qcurve" smooth="yes"/>
      <point x="1202" y="946"/>
      <point x="1573" y="739"/>
      <point x="1573" y="547" type="qcurve" smooth="yes"/>
      <point x="1573" y="240" type="line" smooth="yes"/>
      <point x="1573" y="175"/>
      <point x="1593" y="60"/>
      <point x="1611" y="16" type="qcurve"/>
      <point x="1611" y="0" type="line"/>
      <point x="1058" y="0" type="line"/>
      <point x="1045" y="25"/>
      <point x="1028" y="86"/>
      <point x="1022" y="126" type="qcurve"/>
      <point x="975" y="62"/>
      <point x="761" y="-20"/>
    </contour>
  </outline>
</glyph>
<glyph name="b" format="2">
  <advance width="1844"/>
  <unicode hex="0062"/>
  <anchor x="1005.5373831775701" y="0.0" name="bottom"/>
  <anchor x="1005.5373831775701" y="1535.0467289719627" name="top"/>
  <outline>
    <contour>
      <point x="186" y="0" type="line"/>
      <point x="186" y="1456" type="line"/>
      <point x="753" y="1456" type="line"/>
      <point x="753" y="117" type="line"/>
      <point x="743" y="117" type="line"/>
      <point x="735" y="0" type="line"/>
    </contour>
    <contour>
      <point x="937" y="346" type="qcurve" smooth="yes"/>
      <point x="1033" y="346"/>
      <point x="1137" y="402"/>
      <point x="1137" y="454" type="qcurve" smooth="yes"/>
      <point x="1137" y="461" type="line" smooth="yes"/>
      <point x="1137" y="514"/>
      <point x="1033" y="570"/>
      <point x="936" y="570" type="qcurve" smooth="yes"/>
      <point x="827" y="570"/>
      <point x="719" y="515"/>
      <point x="719" y="464" type="qcurve" smooth="yes"/>
      <point x="719" y="457" type="line" smooth="yes"/>
      <point x="719" y="404"/>
      <point x="828" y="346"/>
    </contour>
    <contour>
      <point x="1143" y="-20" type="qcurve" smooth="yes"/>
      <point x="873" y="-20"/>
      <point x="583" y="225"/>
      <point x="583" y="452" type="qcurve" smooth="yes"/>
      <point x="583" y="486" type="line" smooth="yes"/>
      <point x="583" y="703"/>
      <point x="875" y="936"/>
      <point x="1146" y="936" type="qcurve" smooth="yes"/>
      <point x="1424" y="936"/>
      <point x="1722" y="704"/>
      <point x="1722" y="488" type="qcurve" smooth="yes"/>
      <point x="1722" y="426" type="line" smooth="yes"/>
      <point x="1722" y="211"/>
      <point x="1422" y="-20"/>
    </contour>
  </outline>
</glyph>
<glyph name="c" format="2">
  <advance width="1725"/>
  <unicode hex="0063"/>
  <anchor x="908.4875389408099" y="0.0" name="bottom"/>
  <anchor x="908.4875389408099" y="916.0" name="top"/>
  <outline>
    <contour>
      <point x="122" y="426" type="qcurve" smooth="yes"/>
      <point x="122" y="488" type="line" smooth="yes"/>
      <point x="122" y="709"/>
      <point x="533" y="956"/>
      <point x="915" y="956" type="qcurve" smooth="yes"/>
      <point x="1254" y="956"/>
      <point x="1619" y="713"/>
      <point x="1619" y="496" type="qcurve" smooth="yes"/>
      <point x="1619" y="488" type="line"/>
      <point x="1078" y="488" type="line"/>
      <point x="1078" y="496" type="line" smooth="yes"/>
      <point x="1078" y="532"/>
      <point x="990" y="580"/>
      <point x="909" y="580" type="qcurve" smooth="yes"/>
      <point x="812" y="580"/>
      <point x="707" y="514"/>
      <point x="707" y="462" type="qcurve" smooth="yes"/>
      <point x="707" y="455" type="line" smooth="yes"/>
      <point x="707" y="402"/>
      <point x="812" y="336"/>
      <point x="909" y="336" type="qcurve" smooth="yes"/>
      <point x="990" y="336"/>
      <point x="1078" y="379"/>
      <point x="1078" y="409" type="qcurve" smooth="yes"/>
      <point x="1078" y="428" type="line"/>
      <point x="1619" y="428" type="line"/>
      <point x="1619" y="420" type="line" smooth="yes"/>
      <point x="1619" y="203"/>
      <point x="1254" y="-40"/>
      <point x="915" y="-40" type="qcurve" smooth="yes"/>
      <point x="533" y="-40"/>
      <point x="122" y="206"/>
    </contour>
  </outline>
</glyph>
<glyph name="d" format="2">
  <advance width="1844.9158878504672"/>
  <unicode hex="0064"/>
  <anchor x="705.5218068535825" y="0.0" name="bottom"/>
  <anchor x="1048.9174454828662" y="1313.0" name="center"/>
  <anchor x="705.5218068535825" y="1536.0" name="top"/>
  <anchor x="1737.9890965732088" y="1052.0" name="topright"/>
  <outline>
    <contour>
      <point x="1092.107476635514" y="1536.0" type="line"/>
      <point x="1659.4158878504672" y="1536.0" type="line"/>
      <point x="1659.4158878504672" y="0.0" type="line"/>
      <point x="1110.107476635514" y="0.0" type="line"/>
      <point x="1102.107476635514" y="117.0" type="line"/>
      <point x="1092.107476635514" y="117.0" type="line"/>
    </contour>
    <contour>
      <point x="909.4408099688474" y="476.88059701492534" type="qcurve" smooth="yes"/>
      <point x="818.747476635514" y="476.88059701492534"/>
      <point x="708.107476635514" y="470.50985074626874"/>
      <point x="708.107476635514" y="460.3880597014926" type="qcurve" smooth="yes"/>
      <point x="708.107476635514" y="453.05970149253733" type="line" smooth="yes"/>
      <point x="708.107476635514" y="445.4901492537313"/>
      <point x="811.947476635514" y="439.11940298507466"/>
      <point x="908.7741433021806" y="439.11940298507466" type="qcurve" smooth="yes"/>
      <point x="1005.4670786255639" y="439.11940298507466"/>
      <point x="1135.107476635514" y="438.64716417910444"/>
      <point x="1135.107476635514" y="459.7164179104477" type="qcurve" smooth="yes"/>
      <point x="1135.107476635514" y="466.4477611940298" type="line" smooth="yes"/>
      <point x="1135.107476635514" y="463.3683582089552"/>
      <point x="1015.7078746454642" y="476.88059701492534"/>
    </contour>
    <contour>
      <point x="707.2445482866044" y="936.0" type="qcurve" smooth="yes"/>
      <point x="974.8506542056074" y="936.0"/>
      <point x="1261.2632398753892" y="668.2933333333334"/>
      <point x="1261.2632398753892" y="470.66666666666663" type="qcurve" smooth="yes"/>
      <point x="1261.2632398753892" y="442.0" type="line" smooth="yes"/>
      <point x="1261.2632398753892" y="234.17333333333332"/>
      <point x="966.5109657320872" y="-20.0"/>
      <point x="707.2445482866044" y="-20.0" type="qcurve" smooth="yes"/>
      <point x="431.4982554517134" y="-20.0"/>
      <point x="122.5" y="223.89333333333332"/>
      <point x="122.5" y="415.3333333333333" type="qcurve" smooth="yes"/>
      <point x="122.5" y="500.66666666666663" type="line" smooth="yes"/>
      <point x="122.5" y="698.7733333333333"/>
      <point x="438.29825545171343" y="936.0"/>
    </contour>
  </outline>
</glyph>
<glyph name="e" format="2">
  <advance width="1759"/>
  <unicode hex="0065"/>
  <anchor x="942.7928348909658" y="0.0" name="bottom"/>
  <anchor x="1248.2227414330218" y="0.0" name="ogonek"/>
  <anchor x="903.727414330218" y="916.0" name="top"/>
  <outline>
    <contour>
      <point x="123" y="426" type="qcurve" smooth="yes"/>
      <point x="123" y="488" type="line" smooth="yes"/>
      <point x="123" y="709"/>
      <point x="528" y="946"/>
      <point x="905" y="946" type="qcurve" smooth="yes"/>
      <point x="1260" y="946"/>
      <point x="1642" y="717"/>
      <point x="1642" y="504" type="qcurve" smooth="yes"/>
      <point x="1642" y="424" type="line"/>
      <point x="412" y="424" type="line"/>
      <point x="412" y="507" type="line"/>
      <point x="1073" y="507" type="line"/>
      <point x="1073" y="516" type="line" smooth="yes"/>
      <point x="1073" y="547"/>
      <point x="985" y="580"/>
      <point x="904" y="580" type="qcurve" smooth="yes"/>
      <point x="806" y="580"/>
      <point x="700" y="519"/>
      <point x="700" y="462" type="qcurve" smooth="yes"/>
      <point x="700" y="455" type="line" smooth="yes"/>
      <point x="700" y="398"/>
      <point x="806" y="337"/>
      <point x="905" y="337" type="qcurve" smooth="yes"/>
      <point x="990" y="337"/>
      <point x="1112" y="372"/>
      <point x="1140" y="404" type="qcurve"/>
      <point x="1636" y="334" type="line"/>
      <point x="1570" y="159"/>
      <point x="1192" y="-30"/>
      <point x="906" y="-30" type="qcurve" smooth="yes"/>
      <point x="529" y="-30"/>
      <point x="123" y="206"/>
    </contour>
  </outline>
</glyph>
<glyph name="f" format="2">
  <advance width="1028"/>
  <unicode hex="0066"/>
  <anchor x="498.48753894080994" y="0.0" name="bottom"/>
  <anchor x="593.8146417445483" y="1536.0" name="top"/>
  <outline>
    <contour>
      <point x="190" y="0" type="line"/>
      <point x="190" y="1036" type="line" smooth="yes"/>
      <point x="190" y="1249"/>
      <point x="479" y="1478"/>
      <point x="747" y="1478" type="qcurve" smooth="yes"/>
      <point x="835" y="1478"/>
      <point x="1009" y="1467"/>
      <point x="1045" y="1461" type="qcurve"/>
      <point x="1033" y="1049" type="line"/>
      <point x="1010" y="1053"/>
      <point x="956" y="1061"/>
      <point x="925" y="1061" type="qcurve" smooth="yes"/>
      <point x="830" y="1061"/>
      <point x="761" y="976"/>
      <point x="761" y="897" type="qcurve" smooth="yes"/>
      <point x="761" y="613" type="line"/>
      <point x="761" y="834" type="line"/>
      <point x="761" y="0" type="line"/>
    </contour>
    <contour>
      <point x="-37" y="516" type="line"/>
      <point x="-37" y="916" type="line"/>
      <point x="259" y="916" type="line"/>
      <point x="686" y="916" type="line"/>
      <point x="974" y="916" type="line"/>
      <point x="974" y="516" type="line"/>
    </contour>
  </outline>
</glyph>
<glyph name="g" format="2">
  <advance width="1844"/>
  <unicode hex="0067"/>
  <anchor x="825.7803738317757" y="-416.0" name="bottom"/>
  <anchor x="902.9953271028037" y="916.0" name="top"/>
  <outline>
    <contour>
      <point x="919" y="-436" type="qcurve" smooth="yes"/>
      <point x="701" y="-436"/>
      <point x="332" y="-395"/>
      <point x="206" y="-357" type="qcurve"/>
      <point x="255" y="27" type="line"/>
      <point x="354" y="-30"/>
      <point x="630" y="-92"/>
      <point x="786" y="-92" type="qcurve" smooth="yes"/>
      <point x="933" y="-92"/>
      <point x="1091" y="-13"/>
      <point x="1091" y="60" type="qcurve" smooth="yes"/>
      <point x="1091" y="779" type="line"/>
      <point x="1098" y="779" type="line"/>
      <point x="1104" y="916" type="line"/>
      <point x="1658" y="916" type="line"/>
      <point x="1658" y="106" type="line" smooth="yes"/>
      <point x="1658" y="-155"/>
      <point x="1275" y="-436"/>
    </contour>
    <contour>
      <point x="907" y="570" type="qcurve" smooth="yes"/>
      <point x="811" y="570"/>
      <point x="707" y="514"/>
      <point x="707" y="462" type="qcurve" smooth="yes"/>
      <point x="707" y="455" type="line" smooth="yes"/>
      <point x="707" y="402"/>
      <point x="811" y="346"/>
      <point x="908" y="346" type="qcurve" smooth="yes"/>
      <point x="1017" y="346"/>
      <point x="1125" y="401"/>
      <point x="1125" y="452" type="qcurve" smooth="yes"/>
      <point x="1125" y="459" type="line" smooth="yes"/>
      <point x="1125" y="512"/>
      <point x="1016" y="570"/>
    </contour>
    <contour>
      <point x="701" y="936" type="qcurve" smooth="yes"/>
      <point x="971" y="936"/>
      <point x="1261" y="691"/>
      <point x="1261" y="464" type="qcurve" smooth="yes"/>
      <point x="1261" y="430" type="line" smooth="yes"/>
      <point x="1261" y="213"/>
      <point x="969" y="-20"/>
      <point x="698" y="-20" type="qcurve" smooth="yes"/>
      <point x="420" y="-20"/>
      <point x="122" y="212"/>
      <point x="122" y="428" type="qcurve" smooth="yes"/>
      <point x="122" y="490" type="line" smooth="yes"/>
      <point x="122" y="705"/>
      <point x="422" y="936"/>
    </contour>
  </outline>
</glyph>
<glyph name="h" format="2">
  <advance width="1826"/>
  <unicode hex="0068"/>
  <anchor x="910.6619937694703" y="0.0" name="bottom"/>
  <anchor x="528.1542056074766" y="1327.0" name="center"/>
  <anchor x="445.46261682242994" y="1536.0" name="top"/>
  <anchor x="1366.46261682243" y="0.0" name="engtail"/>
  <outline>
    <contour>
      <point x="753" y="0" type="line"/>
      <point x="186" y="0" type="line"/>
      <point x="186" y="1456" type="line"/>
      <point x="753" y="1456" type="line"/>
    </contour>
    <contour>
      <point x="489" y="330" type="line"/>
      <point x="685" y="751"/>
      <point x="979" y="936"/>
      <point x="1147" y="936" type="qcurve" smooth="yes"/>
      <point x="1368" y="936"/>
      <point x="1651" y="774"/>
      <point x="1651" y="546" type="qcurve" smooth="yes"/>
      <point x="1651" y="0" type="line"/>
      <point x="1083" y="0" type="line"/>
      <point x="1083" y="366" type="line" smooth="yes"/>
      <point x="1083" y="463"/>
      <point x="1019" y="535"/>
      <point x="963" y="535" type="qcurve" smooth="yes"/>
      <point x="877" y="535"/>
      <point x="688" y="359"/>
      <point x="489" y="122" type="qcurve"/>
    </contour>
  </outline>
</glyph>
<glyph name="k" format="2">
  <advance width="1755"/>
  <unicode hex="006B"/>
  <anchor x="878.1417445482866" y="0.0" name="bottom"/>
  <anchor x="878.1417445482866" y="1536.0" name="top"/>
  <outline>
    <contour>
      <point x="186" y="0" type="line"/>
      <point x="186" y="1456" type="line"/>
      <point x="753" y="1456" type="line"/>
      <point x="753" y="0" type="line"/>
    </contour>
    <contour>
      <point x="1030" y="0" type="line"/>
      <point x="593" y="376" type="line"/>
      <point x="944" y="653" type="line"/>
      <point x="1734" y="0" type="line"/>
    </contour>
    <contour>
      <point x="451" y="55" type="line"/>
      <point x="451" y="512" type="line"/>
      <point x="979" y="916" type="line"/>
      <point x="1587" y="916" type="line"/>
    </contour>
  </outline>
</glyph>
<glyph name="l" format="2">
  <advance width="955"/>
  <unicode hex="006C"/>
  <anchor x="480.96728971962614" y="0.0" name="bottom"/>
  <anchor x="480.96728971962614" y="791.0" name="center"/>
  <anchor x="480.96728971962614" y="1536.0" name="top"/>
  <anchor x="846.0545171339563" y="1052.0" name="topright"/>
  <anchor x="476.20093457943926" y="471.96" name="yu_dash"/>
  <outline>
    <contour>
      <point x="194" y="0" type="line"/>
      <point x="194" y="1456" type="line"/>
      <point x="761" y="1456" type="line"/>
      <point x="761" y="0" type="line"/>
    </contour>
  </outline>
</glyph>
<glyph name="m" format="2">
  <advance width="2698"/>
  <unicode hex="006D"/>
  <anchor x="1366.3348909657323" y="0.0" name="bottom"/>
  <anchor x="1366.3348909657323" y="916.0" name="top"/>
  <outline>
    <contour>
      <point x="185.5" y="0.0" type="line"/>
      <point x="185.5" y="916.0" type="line"/>
      <point x="734.8084112149533" y="916.0" type="line"/>
      <point x="752.8084112149533" y="687.6666666666666" type="line"/>
      <point x="752.8084112149533" y="0.0" type="line"/>
    </contour>
    <contour>
      <point x="1638" y="546" type="qcurve" smooth="yes"/>
      <point x="1638" y="0" type="line"/>
      <point x="1070" y="0" type="line"/>
      <point x="1070" y="366" type="line" smooth="yes"/>
      <point x="1070" y="463"/>
      <point x="1006" y="535"/>
      <point x="950" y="535" type="qcurve" smooth="yes"/>
      <point x="864" y="535"/>
      <point x="675" y="359"/>
      <point x="476" y="122" type="qcurve"/>
      <point x="476" y="330" type="line"/>
      <point x="672" y="751"/>
      <point x="966" y="936"/>
      <point x="1134" y="936" type="qcurve" smooth="yes"/>
      <point x="1355" y="936"/>
      <point x="1638" y="774"/>
    </contour>
    <contour>
      <point x="1361" y="330" type="line"/>
      <point x="1557" y="751"/>
      <point x="1851" y="936"/>
      <point x="2019" y="936" type="qcurve" smooth="yes"/>
      <point x="2240" y="936"/>
      <point x="2523" y="774"/>
      <point x="2523" y="546" type="qcurve" smooth="yes"/>
      <point x="2523" y="0" type="line"/>
      <point x="1955" y="0" type="line"/>
      <point x="1955" y="366" type="line" smooth="yes"/>
      <point x="1955" y="463"/>
      <point x="1891" y="535"/>
      <point x="1835" y="535" type="qcurve" smooth="yes"/>
      <point x="1749" y="535"/>
      <point x="1560" y="359"/>
      <point x="1361" y="122" type="qcurve"/>
    </contour>
  </outline>
</glyph>
<glyph name="n" format="2">
  <advance width="1826"/>
  <unicode hex="006E"/>
  <anchor x="916.1417445482866" y="0.0" name="bottom"/>
  <anchor x="918.0482866043614" y="916.0" name="top"/>
  <anchor x="1366.46261682243" y="0.0" name="engtail"/>
  <outline>
    <contour>
      <point x="186" y="0" type="line"/>
      <point x="186" y="916" type="line"/>
      <point x="735" y="916" type="line"/>
      <point x="753" y="679" type="line"/>
      <point x="753" y="0" type="line"/>
    </contour>
    <contour>
      <point x="489" y="122" type="qcurve"/>
      <point x="489" y="330" type="line"/>
      <point x="685" y="751"/>
      <point x="979" y="936"/>
      <point x="1147" y="936" type="qcurve" smooth="yes"/>
      <point x="1368" y="936"/>
      <point x="1651" y="774"/>
      <point x="1651" y="546" type="qcurve" smooth="yes"/>
      <point x="1651" y="0" type="line"/>
      <point x="1083" y="0" type="line"/>
      <point x="1083" y="366" type="line" smooth="yes"/>
      <point x="1083" y="463"/>
      <point x="1019" y="535"/>
      <point x="963" y="535" type="qcurve" smooth="yes"/>
      <point x="877" y="535"/>
      <point x="688" y="359"/>
    </contour>
  </outline>
</glyph>
<glyph name="o" format="2">
  <advance width="1832"/>
  <unicode hex="006F"/>
  <anchor x="913.8676012461059" y="0.0" name="bottom"/>
  <anchor x="914.8208722741432" y="458.0" name="center"/>
  <anchor x="1193.2725856697818" y="0.0" name="ogonek"/>
  <anchor x="914.8208722741432" y="916.0" name="top"/>
  <anchor x="1188.4595015576322" y="916.0" name="topright"/>
  <anchor x="436.4723364485982" y="470.03999999999996" name="yu_dash"/>
  <outline>
    <contour>
      <point x="122" y="426" type="qcurve" smooth="yes"/>
      <point x="122" y="488" type="line" smooth="yes"/>
      <point x="122" y="710"/>
      <point x="547" y="956"/>
      <point x="917" y="956" type="qcurve" smooth="yes"/>
      <point x="1285" y="956"/>
      <point x="1710" y="710"/>
      <point x="1710" y="488" type="qcurve" smooth="yes"/>
      <point x="1710" y="426" type="line" smooth="yes"/>
      <point x="1710" y="206"/>
      <point x="1285" y="-40"/>
      <point x="917" y="-40" type="qcurve" smooth="yes"/>
      <point x="547" y="-40"/>
      <point x="122" y="206"/>
    </contour>
    <contour>
      <point x="707" y="462" type="qcurve" smooth="yes"/>
      <point x="707" y="454" type="line" smooth="yes"/>
      <point x="707" y="402"/>
      <point x="815" y="336"/>
      <point x="916" y="336" type="qcurve" smooth="yes"/>
      <point x="1017" y="336"/>
      <point x="1125" y="402"/>
      <point x="1125" y="454" type="qcurve" smooth="yes"/>
      <point x="1125" y="462" type="line" smooth="yes"/>
      <point x="1125" y="514"/>
      <point x="1017" y="580"/>
      <point x="916" y="580" type="qcurve" smooth="yes"/>
      <point x="815" y="580"/>
      <point x="707" y="514"/>
    </contour>
  </outline>
</glyph>
<glyph name="p" format="2">
  <advance width="1844.9158878504672"/>
  <unicode hex="0070"/>
  <anchor x="1125.0576323987539" y="0.0" name="bottom"/>
  <anchor x="1126.0109034267912" y="916.0" name="top"/>
  <outline>
    <contour>
      <point x="185.5" y="-416.0" type="line"/>
      <point x="185.5" y="916.0" type="line"/>
      <point x="734.8084112149533" y="916.0" type="line"/>
      <point x="742.8084112149533" y="799.0" type="line"/>
      <point x="752.8084112149533" y="799.0" type="line"/>
      <point x="752.8084112149533" y="-416.0" type="line"/>
    </contour>
    <contour>
      <point x="936.1417445482866" y="439.11940298507466" type="qcurve" smooth="yes"/>
      <point x="1026.168411214953" y="439.11940298507466"/>
      <point x="1136.8084112149531" y="438.6901492537313"/>
      <point x="1136.8084112149531" y="453.05970149253733" type="qcurve" smooth="yes"/>
      <point x="1136.8084112149531" y="460.3880597014926" type="line" smooth="yes"/>
      <point x="1136.8084112149531" y="470.50985074626874"/>
      <point x="1026.168411214953" y="476.88059701492534"/>
      <point x="935.4750778816199" y="476.88059701492534" type="qcurve" smooth="yes"/>
      <point x="833.5284112149533" y="476.88059701492534"/>
      <point x="709.8084112149533" y="475.3528358208955"/>
      <point x="709.8084112149533" y="463.1343283582089" type="qcurve" smooth="yes"/>
      <point x="709.8084112149533" y="456.4029850746268" type="line" smooth="yes"/>
      <point x="709.8084112149533" y="443.8316417910447"/>
      <point x="835.1284112149533" y="439.11940298507466"/>
    </contour>
    <contour>
      <point x="1142.2912772585669" y="-20.0" type="qcurve" smooth="yes"/>
      <point x="884.5047352024923" y="-20.0"/>
      <point x="582.6993769470404" y="233.04"/>
      <point x="582.6993769470404" y="452.0" type="qcurve" smooth="yes"/>
      <point x="582.6993769470404" y="486.0" type="line" smooth="yes"/>
      <point x="582.6993769470404" y="667.7472897196261"/>
      <point x="878.5984423676013" y="936.0"/>
      <point x="1145.2912772585669" y="936.0" type="qcurve" smooth="yes"/>
      <point x="1406.6176323987538" y="936.0"/>
      <point x="1722.4158878504672" y="721.6269158878504"/>
      <point x="1722.4158878504672" y="534.9470404984423" type="qcurve" smooth="yes"/>
      <point x="1722.4158878504672" y="390.1059190031153" type="line" smooth="yes"/>
      <point x="1722.4158878504672" y="200.766230529595"/>
      <point x="1406.6176323987538" y="-20.0"/>
    </contour>
  </outline>
</glyph>
<glyph name="q" format="2">
  <advance width="1845"/>
  <unicode hex="0071"/>
  <anchor x="704.7616822429907" y="0.0" name="bottom"/>
  <anchor x="704.7616822429907" y="916.0" name="top"/>
  <outline>
    <contour>
      <point x="1092" y="-416" type="line"/>
      <point x="1092" y="799" type="line"/>
      <point x="1102" y="799" type="line"/>
      <point x="1110" y="916" type="line"/>
      <point x="1659" y="916" type="line"/>
      <point x="1659" y="-416" type="line"/>
    </contour>
    <contour>
      <point x="907" y="346" type="qcurve" smooth="yes"/>
      <point x="1016" y="346"/>
      <point x="1125" y="404"/>
      <point x="1125" y="457" type="qcurve" smooth="yes"/>
      <point x="1125" y="464" type="line" smooth="yes"/>
      <point x="1125" y="515"/>
      <point x="1017" y="570"/>
      <point x="908" y="570" type="qcurve" smooth="yes"/>
      <point x="811" y="570"/>
      <point x="707" y="514"/>
      <point x="707" y="461" type="qcurve" smooth="yes"/>
      <point x="707" y="454" type="line" smooth="yes"/>
      <point x="707" y="402"/>
      <point x="811" y="346"/>
    </contour>
    <contour>
      <point x="702" y="-20" type="qcurve" smooth="yes"/>
      <point x="423" y="-20"/>
      <point x="122" y="211"/>
      <point x="122" y="426" type="qcurve" smooth="yes"/>
      <point x="122" y="488" type="line" smooth="yes"/>
      <point x="122" y="704"/>
      <point x="421" y="936"/>
      <point x="699" y="936" type="qcurve" smooth="yes"/>
      <point x="970" y="936"/>
      <point x="1262" y="703"/>
      <point x="1262" y="486" type="qcurve" smooth="yes"/>
      <point x="1262" y="452" type="line" smooth="yes"/>
      <point x="1262" y="225"/>
      <point x="972" y="-20"/>
    </contour>
  </outline>
</glyph>
<glyph name="r" format="2">
  <advance width="1367"/>
  <unicode hex="0072"/>
  <anchor x="715.923676012461" y="0.0" name="bottom"/>
  <anchor x="693.1292834890966" y="916.0" name="top"/>
  <outline>
    <contour>
      <point x="186" y="0" type="line"/>
      <point x="186" y="916" type="line"/>
      <point x="735" y="916" type="line"/>
      <point x="753" y="694" type="line"/>
      <point x="753" y="0" type="line"/>
    </contour>
    <contour>
      <point x="469" y="195" type="qcurve"/>
      <point x="469" y="340" type="line"/>
      <point x="648" y="687"/>
      <point x="939" y="946"/>
      <point x="1150" y="946" type="qcurve" smooth="yes"/>
      <point x="1211" y="946"/>
      <point x="1331" y="936"/>
      <point x="1358" y="932" type="qcurve"/>
      <point x="1358" y="520" type="line"/>
      <point x="1307" y="524"/>
      <point x="1190" y="528"/>
      <point x="1124" y="528" type="qcurve" smooth="yes"/>
      <point x="862" y="528"/>
      <point x="582" y="386"/>
    </contour>
  </outline>
</glyph>
<glyph name="s" format="2">
  <advance width="1630.8878504672898"/>
  <unicode hex="0073"/>
  <anchor x="850.714953271028" y="0.0" name="bottom"/>
  <anchor x="850.714953271028" y="916.0" name="top"/>
  <outline>
    <contour>
      <point x="146.0981308411215" y="395.9373134328358" type="line"/>
      <point x="713.0732087227415" y="395.9373134328358" type="line"/>
      <point x="713.0732087227415" y="354.2706467661691" type="line" smooth="yes"/>
      <point x="713.0732087227415" y="349.1989547589157"/>
      <point x="735.5489105872506" y="355.95522388059703"/>
      <point x="790.8574650113916" y="355.95522388059703" type="qcurve" smooth="yes"/>
      <point x="865.7949290928535" y="355.95522388059703"/>
      <point x="896.6938438647883" y="307.69519133305437"/>
      <point x="896.6938438647883" y="295.8670479378807" type="qcurve" smooth="yes"/>
      <point x="896.6938438647883" y="274.7166801506486"/>
      <point x="791.5371730134375" y="274.8389473194774"/>
      <point x="763.1978193146418" y="255.2367601246106" type="qcurve" smooth="yes"/>
      <point x="404.43857813735065" y="267.32603710419863"/>
      <point x="179.303738317757" y="416.04532663783885"/>
      <point x="179.303738317757" y="579.2467289719625" type="qcurve" smooth="yes"/>
      <point x="179.303738317757" y="787.3941209838656"/>
      <point x="487.08661831031753" y="946.0"/>
      <point x="886.8457943925234" y="946.0" type="qcurve" smooth="yes"/>
      <point x="1227.5002269028687" y="946.0"/>
      <point x="1493.9143302180685" y="747.9931240991305"/>
      <point x="1494.2476635514017" y="560.0985074626865" type="qcurve" smooth="yes"/>
      <point x="1494.2476635514017" y="515.0985074626865" type="line"/>
      <point x="930.7990654205607" y="515.0985074626865" type="line"/>
      <point x="930.7990654205607" y="564.0985074626865" type="line" smooth="yes"/>
      <point x="930.7990654205607" y="580.328966383038"/>
      <point x="910.7623071558097" y="571.1044776119403"/>
      <point x="851.1479750778816" y="571.1044776119403" type="qcurve" smooth="yes"/>
      <point x="796.6042023527225" y="571.1044776119403"/>
      <point x="742.5725345236434" y="612.4421481378156"/>
      <point x="742.5725345236434" y="617.2230157623098" type="qcurve" smooth="yes"/>
      <point x="742.5725345236434" y="620.1753773190125"/>
      <point x="880.7446384897938" y="625.598062026317"/>
      <point x="955.4127725856698" y="655.2866043613708" type="qcurve" smooth="yes"/>
      <point x="1295.2760691867766" y="659.6499130515646"/>
      <point x="1513.721183800623" y="497.25295950155765"/>
      <point x="1513.721183800623" y="362.2735202492212" type="qcurve" smooth="yes"/>
      <point x="1513.721183800623" y="178.9632398753894"/>
      <point x="1173.9852336448598" y="-30.0"/>
      <point x="814.0109034267913" y="-30.0" type="qcurve" smooth="yes"/>
      <point x="515.2953819686613" y="-30.0"/>
      <point x="146.0981308411215" y="148.67967638443298"/>
      <point x="146.0981308411215" y="354.2706467661691" type="qcurve" smooth="yes"/>
    </contour>
  </outline>
</glyph>
<glyph name="t" format="2">
  <advance width="1141"/>
  <unicode hex="0074"/>
  <anchor x="644.0856697819315" y="0.0" name="bottom"/>
  <anchor x="532.0015576323988" y="551.0" name="center"/>
  <anchor x="532.0015576323988" y="1176.0" name="top"/>
  <anchor x="1045.8084112149531" y="916.0" name="topright"/>
  <outline>
    <contour>
      <point x="10" y="514" type="line"/>
      <point x="10" y="916" type="line"/>
      <point x="1131" y="916" type="line"/>
      <point x="1131" y="514" type="line"/>
    </contour>
    <contour>
      <point x="229" y="451" type="qcurve" smooth="yes"/>
      <point x="229" y="830" type="line"/>
      <point x="229" y="860" type="line"/>
      <point x="229" y="1176" type="line"/>
      <point x="796" y="1176" type="line"/>
      <point x="796" y="541" type="line" smooth="yes"/>
      <point x="796" y="451"/>
      <point x="875" y="370"/>
      <point x="963" y="370" type="qcurve" smooth="yes"/>
      <point x="988" y="370"/>
      <point x="1092" y="380"/>
      <point x="1127" y="392" type="qcurve"/>
      <point x="1127" y="0" type="line"/>
      <point x="1095" y="-16"/>
      <point x="897" y="-30"/>
      <point x="707" y="-30" type="qcurve" smooth="yes"/>
      <point x="455" y="-30"/>
      <point x="229" y="197"/>
    </contour>
  </outline>
</glyph>
<glyph name="v" format="2">
  <advance width="1685"/>
  <unicode hex="0076"/>
  <anchor x="908.5685358255452" y="0.0" name="bottom"/>
  <anchor x="907.6152647975077" y="916.0" name="top"/>
  <outline>
    <contour>
      <point x="40" y="916" type="line"/>
      <point x="672" y="913" type="line"/>
      <point x="896" y="497" type="line" smooth="yes"/>
      <point x="896" y="497"/>
      <point x="896" y="497"/>
      <point x="896" y="497" type="qcurve"/>
      <point x="896" y="497" type="line"/>
      <point x="896" y="497"/>
      <point x="896" y="497"/>
      <point x="896" y="497" type="qcurve" smooth="yes"/>
      <point x="1123" y="916" type="line"/>
      <point x="1645" y="916" type="line"/>
      <point x="1140" y="0" type="line"/>
      <point x="550" y="0" type="line"/>
    </contour>
  </outline>
</glyph>
<glyph name="w" format="2">
  <advance width="2212.314641744548"/>
  <unicode hex="0077"/>
  <anchor x="1130.6090342679126" y="0.0" name="bottom"/>
  <anchor x="1131.6090342679126" y="916.0" name="top"/>
  <outline>
    <contour>
      <point x="-81.44392523364485" y="916.0" type="line"/>
      <point x="528.481308411215" y="916.0" type="line"/>
      <point x="664.5809968847352" y="680.7439252336449" type="line" smooth="yes"/>
      <point x="673.9543302180684" y="661.7892834890965"/>
      <point x="681.2476635514018" y="564.0523364485981"/>
      <point x="684.6744548286605" y="525.9588785046728" type="qcurve"/>
      <point x="691.6277258566978" y="525.9588785046728" type="line"/>
      <point x="693.1479750778816" y="563.0990654205607"/>
      <point x="700.1079750778816" y="663.362492211838"/>
      <point x="708.2881619937694" y="680.7439252336449" type="qcurve" smooth="yes"/>
      <point x="828.4439252336449" y="916.0" type="line"/>
      <point x="1474.4252336448599" y="916.0" type="line"/>
      <point x="1606.5872274143303" y="680.7439252336449" type="line" smooth="yes"/>
      <point x="1616.387352024922" y="661.1226168224299"/>
      <point x="1630.0202492211836" y="563.0990654205607"/>
      <point x="1629.0140186915887" y="525.9588785046728" type="qcurve"/>
      <point x="1635.967289719626" y="525.9588785046728" type="line"/>
      <point x="1634.6277258566977" y="564.0523364485981"/>
      <point x="1647.2138940809969" y="663.0158255451713"/>
      <point x="1655.967289719626" y="680.7439252336449" type="qcurve" smooth="yes"/>
      <point x="1799.1728971962616" y="916.0" type="line"/>
      <point x="2293.7585669781934" y="916.0" type="line"/>
      <point x="1922.5591900311526" y="0.0" type="line"/>
      <point x="1283.7647975077882" y="0.0" type="line"/>
      <point x="1120.1853582554518" y="240.41495327102803" type="line" smooth="yes"/>
      <point x="1100.2192523364486" y="271.14218068535826"/>
      <point x="1092.6588785046729" y="355.6485981308411"/>
      <point x="1092.6651090342677" y="391.8355140186916" type="qcurve"/>
      <point x="1084.7585669781931" y="391.8355140186916" type="line"/>
      <point x="1086.671339563863" y="355.6485981308411"/>
      <point x="1073.391339563863" y="270.1889096573209"/>
      <point x="1057.8582554517136" y="240.41495327102803" type="qcurve" smooth="yes"/>
      <point x="936.1292834890966" y="0.0" type="line"/>
      <point x="288.75545171339564" y="0.0" type="line"/>
    </contour>
  </outline>
</glyph>
<glyph name="x" format="2">
  <advance width="1803"/>
  <unicode hex="0078"/>
  <anchor x="889.2445482866044" y="0.0" name="bottom"/>
  <anchor x="890.1978193146418" y="916.0" name="top"/>
  <anchor x="1274.2320872274142" y="0.0" name="cy_descender"/>
  <outline>
    <contour>
      <point x="60" y="0" type="line"/>
      <point x="612" y="529" type="line"/>
      <point x="772" y="529" type="line"/>
      <point x="1200" y="916" type="line"/>
      <point x="1706" y="916" type="line"/>
      <point x="1165" y="404" type="line"/>
      <point x="1025" y="404" type="line"/>
      <point x="597" y="0" type="line"/>
    </contour>
    <contour>
      <point x="97" y="916" type="line"/>
      <point x="815" y="916" type="line"/>
      <point x="1200" y="537" type="line"/>
      <point x="1198" y="537" type="line"/>
      <point x="1743" y="0" type="line"/>
      <point x="1017" y="0" type="line"/>
      <point x="648" y="391" type="line"/>
      <point x="640" y="391" type="line"/>
    </contour>
  </outline>
</glyph>
<glyph name="y" format="2">
  <advance width="1754.1401869158879"/>
  <unicode hex="0079"/>
  <anchor x="1584.3878504672898" y="0.0" name="bottom"/>
  <anchor x="934.3940809968848" y="916.0" name="top"/>
  <outline>
    <contour>
      <point x="269.5872274143302" y="-399.7943925233645" type="qcurve"/>
      <point x="269.5872274143302" y="-17.775700934579447" type="line"/>
      <point x="301.35981308411215" y="-27.682242990654203"/>
      <point x="434.6277258566978" y="-51.98130841121497"/>
      <point x="522.7834890965732" y="-51.98130841121497" type="qcurve" smooth="yes"/>
      <point x="579.690031152648" y="-51.98130841121497"/>
      <point x="664.8364485981308" y="-24.196261682243005"/>
      <point x="662.8395638629282" y="4.0" type="qcurve"/>
      <point x="623.7554517133956" y="3.7133956386292835" type="line"/>
      <point x="51.166666666666664" y="916.0" type="line"/>
      <point x="696.3629283489096" y="916.0" type="line"/>
      <point x="900.6339563862928" y="566.3514018691588" type="line" smooth="yes"/>
      <point x="913.973894080997" y="543.9170093457943"/>
      <point x="928.1604361370718" y="456.3514018691589"/>
      <point x="930.6339563862928" y="426.3514018691589" type="qcurve"/>
      <point x="936.9672897196261" y="426.3514018691589" type="line"/>
      <point x="939.1542056074766" y="456.3514018691589"/>
      <point x="956.5939563862928" y="544.8702803738317"/>
      <point x="967.6339563862927" y="566.3514018691588" type="qcurve" smooth="yes"/>
      <point x="1158.3785046728972" y="916.0" type="line"/>
      <point x="1716.6401869158879" y="916.0" type="line"/>
      <point x="1160.0482866043612" y="-54.20560747663552" type="line" smooth="yes"/>
      <point x="1065.691526479751" y="-219.13046728971963"/>
      <point x="810.2258566978194" y="-436.0"/>
      <point x="536.8769470404984" y="-436.0" type="qcurve" smooth="yes"/>
      <point x="458.3130841121495" y="-436.0"/>
      <point x="292.92056074766356" y="-409.7943925233645"/>
    </contour>
  </outline>
</glyph>
<glyph name="z" format="2">
  <advance width="1471"/>
  <unicode hex="007A"/>
  <anchor x="768.4532710280373" y="0.0" name="bottom"/>
  <anchor x="768.4532710280373" y="916.0" name="top"/>
  <outline>
    <contour>
      <point x="60" y="0" type="line"/>
      <point x="60" y="285" type="line"/>
      <point x="550" y="580" type="line"/>
      <point x="79" y="580" type="line"/>
      <point x="79" y="914" type="line"/>
      <point x="1373" y="914" type="line"/>
      <point x="1373" y="609" type="line"/>
      <point x="884" y="314" type="line"/>
      <point x="1411" y="314" type="line"/>
      <point x="1411" y="0" type="line"/>
    </contour>
  </outline>
</glyph>
<glyph name="braceright" format="2">
  <advance width="1041.6417445482866"/>
  <unicode hex="007D"/>
  <outline>
    <contour>
      <point x="67.5" y="-312.0" type="qcurve"/>
      <point x="67.5" y="55.19402985074626" type="line"/>
      <point x="186.2363184079602" y="55.19402985074626"/>
      <point x="262.89800995024876" y="89.47761194029852"/>
      <point x="259.5" y="123.0" type="qcurve" smooth="yes"/>
      <point x="236.23208722741435" y="251.06542056074767" type="line" smooth="yes"/>
      <point x="204.93302180685356" y="393.8816199376947"/>
      <point x="405.00467289719626" y="552.7663551401869"/>
      <point x="543.8208722741433" y="574.0" type="qcurve"/>
      <point x="397.3785046728972" y="586.6542056074767"/>
      <point x="203.9797507788162" y="741.7258566978194"/>
      <point x="235.278816199377" y="888.3551401869158" type="qcurve" smooth="yes"/>
      <point x="259.5" y="1025.0" type="line" smooth="yes"/>
      <point x="262.89800995024876" y="1058.5223880597014"/>
      <point x="186.2363184079602" y="1092.8059701492537"/>
      <point x="67.5" y="1092.8059701492537" type="qcurve"/>
      <point x="67.5" y="1460.0" type="line"/>
      <point x="488.3380062305296" y="1460.0"/>
      <point x="854.1417445482866" y="1192.0"/>
      <point x="804.9828660436137" y="951.5981308411215" type="qcurve" smooth="yes"/>
      <point x="789.3878504672897" y="847.3644859813085" type="line" smooth="yes"/>
      <point x="778.8581624587343" y="786.1194029850747"/>
      <point x="812.3346584832846" y="767.6119402985074"/>
      <point x="940.1417445482866" y="767.6119402985074" type="qcurve"/>
      <point x="940.1417445482866" y="380.3880597014925" type="line"/>
      <point x="811.4839122146278" y="380.3880597014925"/>
      <point x="778.8581624587343" y="361.88059701492534"/>
      <point x="788.4345794392523" y="300.6355140186916" type="qcurve" smooth="yes"/>
      <point x="805.9361370716512" y="192.58878504672896" type="line" smooth="yes"/>
      <point x="855.1417445482866" y="-54.0"/>
      <point x="507.40342679127724" y="-312.0"/>
    </contour>
  </outline>
</glyph>
<glyph name="asciitilde" format="2">
  <advance width="962.3333333333334"/>
  <unicode hex="007E"/>
  <outline>
    <contour>
      <point x="-199.94776119402985" y="276.77611940298505" type="qcurve"/>
      <point x="-199.94776119402985" y="929.6716417910447" type="line"/>
      <point x="-131.02238805970148" y="980.6716417910447"/>
      <point x="61.61442786069651" y="1037.6716417910447"/>
      <point x="157.2661691542289" y="1038.6716417910447" type="qcurve" smooth="yes"/>
      <point x="272.2412935323383" y="1039.6716417910447"/>
      <point x="415.72388059701495" y="999.0049751243781"/>
      <point x="505.67412935323387" y="965.6716417910447" type="qcurve" smooth="yes"/>
      <point x="588.4054726368161" y="935.6716417910447"/>
      <point x="709.3009950248756" y="896.6716417910447"/>
      <point x="817.723880597015" y="896.6716417910447" type="qcurve" smooth="yes"/>
      <point x="913.042288557214" y="896.6716417910447"/>
      <point x="1095.4253731343283" y="964.6716417910447"/>
      <point x="1164.68407960199" y="1024.6716417910447" type="qcurve"/>
      <point x="1164.68407960199" y="370.77611940298505" type="line"/>
      <point x="1095.4253731343283" y="319.77611940298505"/>
      <point x="914.042288557214" y="261.77611940298505"/>
      <point x="819.2412935323382" y="261.77611940298505" type="qcurve" smooth="yes"/>
      <point x="711.1517412935323" y="261.77611940298505"/>
      <point x="579.9228855721393" y="297.4427860696517"/>
      <point x="493.85820895522386" y="330.77611940298505" type="qcurve" smooth="yes"/>
      <point x="403.57462686567163" y="363.4427860696517"/>
      <point x="272.2412935323383" y="403.77611940298505"/>
      <point x="157.2661691542289" y="403.77611940298505" type="qcurve" smooth="yes"/>
      <point x="61.61442786069651" y="403.77611940298505"/>
      <point x="-131.02238805970148" y="336.77611940298505"/>
    </contour>
  </outline>
</glyph>
<glyph name="currency" format="2">
  <advance width="1224.3208722741433"/>
  <unicode hex="00A4"/>
  <guideline y="901.0" identifier="bRYxxRaQQf"/>
  <guideline y="555.0" identifier="917FhrihjR"/>
  <outline>
    <contour>
      <point x="393.8271028037383" y="712.0" type="qcurve"/>
      <point x="393.8271028037383" y="550.6666666666666"/>
      <point x="518.4937694704049" y="373.0"/>
      <point x="608.4937694704049" y="373.0" type="qcurve" smooth="yes"/>
      <point x="698.1604361370717" y="373.0"/>
      <point x="822.4937694704049" y="550.6666666666666"/>
      <point x="822.4937694704049" y="712.0" type="qcurve" smooth="yes"/>
      <point x="822.4937694704049" y="871.6666666666666"/>
      <point x="698.1604361370717" y="1049.0"/>
      <point x="608.4937694704049" y="1049.0" type="qcurve" smooth="yes"/>
      <point x="518.4937694704049" y="1049.0"/>
      <point x="393.8271028037383" y="871.6666666666666"/>
    </contour>
    <contour>
      <point x="99.29439252336448" y="718.0" type="qcurve"/>
      <point x="99.29439252336448" y="1006.6168224299065"/>
      <point x="391.3566978193146" y="1338.4392523364486"/>
      <point x="607.4937694704049" y="1338.4392523364486" type="qcurve" smooth="yes"/>
      <point x="824.6308411214953" y="1338.4392523364486"/>
      <point x="1117.026479750779" y="1006.6168224299065"/>
      <point x="1117.026479750779" y="718.0" type="qcurve" smooth="yes"/>
      <point x="1117.026479750779" y="430.33644859813086"/>
      <point x="824.6308411214953" y="95.5607476635514"/>
      <point x="607.4937694704049" y="95.5607476635514" type="qcurve" smooth="yes"/>
      <point x="391.3566978193146" y="95.5607476635514"/>
      <point x="99.29439252336448" y="430.33644859813086"/>
    </contour>
    <contour>
      <point x="1147.8208722741433" y="1271.3271028037384" type="line"/>
      <point x="903.0919003115266" y="1022.9314641744548" type="line"/>
      <point x="781.0919003115266" y="1149.9314641744547" type="line"/>
      <point x="1025.8208722741433" y="1398.3271028037384" type="line"/>
    </contour>
    <contour>
      <point x="419.8956386292835" y="305.73520249221184" type="line"/>
      <point x="170.5" y="52.67289719626169" type="line"/>
      <point x="49.5" y="178.6728971962617" type="line"/>
      <point x="298.8956386292835" y="430.73520249221184" type="line"/>
    </contour>
    <contour>
      <point x="1051.8208722741433" y="59.67289719626169" type="line"/>
      <point x="804.7585669781932" y="310.4018691588785" type="line"/>
      <point x="927.7585669781932" y="436.4018691588785" type="line"/>
      <point x="1174.8208722741433" y="186.6728971962617" type="line"/>
    </contour>
    <contour>
      <point x="315.2289719626168" y="1032.9314641744547" type="line"/>
      <point x="66.5" y="1285.3271028037384" type="line"/>
      <point x="187.5" y="1411.3271028037384" type="line"/>
      <point x="436.2289719626168" y="1158.9314641744547" type="line"/>
    </contour>
  </outline>
</glyph>
<glyph name="registered" format="2">
  <advance width="1729.0"/>
  <unicode hex="00AE"/>
  <outline>
    <contour>
      <point x="75.5" y="687.0" type="qcurve" smooth="yes"/>
      <point x="75.5" y="1068.0"/>
      <point x="444.83333333333337" y="1519.0"/>
      <point x="729.5" y="1519.0" type="qcurve" smooth="yes"/>
      <point x="1012.1666666666667" y="1519.0"/>
      <point x="1380.8333333333335" y="1068.0"/>
      <point x="1380.8333333333335" y="687.0" type="qcurve" smooth="yes"/>
      <point x="1380.8333333333335" y="307.0"/>
      <point x="1012.1666666666667" y="-147.0"/>
      <point x="729.5" y="-147.0" type="qcurve" smooth="yes"/>
      <point x="444.83333333333337" y="-147.0"/>
      <point x="75.5" y="307.0"/>
    </contour>
    <contour>
      <point x="223.5" y="687.0" type="qcurve" smooth="yes"/>
      <point x="223.5" y="375.6666666666667"/>
      <point x="512.1666666666667" y="4.0"/>
      <point x="730.5" y="4.0" type="qcurve" smooth="yes"/>
      <point x="946.5" y="4.0"/>
      <point x="1233.8333333333335" y="375.6666666666667"/>
      <point x="1233.8333333333335" y="687.0" type="qcurve" smooth="yes"/>
      <point x="1233.8333333333335" y="998.6666666666666"/>
      <point x="946.5" y="1367.0"/>
      <point x="730.5" y="1367.0" type="qcurve" smooth="yes"/>
      <point x="512.1666666666667" y="1367.0"/>
      <point x="223.5" y="998.6666666666666"/>
    </contour>
    <contour>
      <point x="392.303738317757" y="225.0" type="line"/>
      <point x="392.303738317757" y="1158.0" type="line"/>
      <point x="790.8956386292834" y="1158.0" type="line" smooth="yes"/>
      <point x="975.3068535825546" y="1158.0"/>
      <point x="1135.4937694704051" y="1018.0"/>
      <point x="1135.4937694704051" y="877.0" type="qcurve" smooth="yes"/>
      <point x="1135.4937694704051" y="746.8411214953271"/>
      <point x="980.481308411215" y="597.0"/>
      <point x="815.7305295950156" y="597.0" type="qcurve" smooth="yes"/>
      <point x="544.5" y="597.0" type="line"/>
      <point x="544.5" y="738.0" type="line"/>
      <point x="722.7679127725858" y="738.0" type="line" smooth="yes"/>
      <point x="774.4345794392524" y="738.0"/>
      <point x="840.101246105919" y="795.0"/>
      <point x="840.101246105919" y="859.0" type="qcurve" smooth="yes"/>
      <point x="840.101246105919" y="940.0"/>
      <point x="787.7679127725858" y="1007.2866043613708"/>
      <point x="706.101246105919" y="1007.0" type="qcurve" smooth="yes"/>
      <point x="709.8271028037383" y="1007.0" type="line"/>
      <point x="709.8271028037383" y="225.0" type="line"/>
    </contour>
    <contour>
      <point x="857.4345794392524" y="225.0" type="line"/>
      <point x="699.0482866043614" y="672.0" type="line"/>
      <point x="895.3940809968848" y="672.0" type="line"/>
      <point x="953.3940809968848" y="638.0"/>
      <point x="1031.4127725856697" y="567.0062305295951"/>
      <point x="1047.2258566978194" y="530.0" type="qcurve" smooth="yes"/>
      <point x="1166.892523364486" y="243.0" type="line"/>
      <point x="1166.892523364486" y="225.0" type="line"/>
    </contour>
  </outline>
</glyph>
<glyph name="plusminus" format="2">
  <advance width="937.0"/>
  <unicode hex="00B1"/>
  <outline>
    <contour>
      <point x="94.5" y="420.3457943925234" type="line"/>
      <point x="94.5" y="965.6542056074766" type="line"/>
      <point x="842.5" y="965.6542056074766" type="line"/>
      <point x="842.5" y="420.3457943925234" type="line"/>
    </contour>
    <contour>
      <point x="378.5" y="308.6666666666667" type="line"/>
      <point x="378.5" y="1174.9937694704051" type="line"/>
      <point x="558.5" y="1174.9937694704051" type="line"/>
      <point x="558.5" y="308.6666666666667" type="line"/>
    </contour>
    <contour>
      <point x="94.5" y="1.0" type="line"/>
      <point x="94.5" y="165.0" type="line"/>
      <point x="842.5" y="165.0" type="line"/>
      <point x="842.5" y="1.0" type="line"/>
    </contour>
  </outline>
</glyph>
<glyph name="ordmasculine" format="2">
  <advance width="1661.8566978193146"/>
  <unicode hex="00BA"/>
  <guideline y="1975.0" identifier="Jnt0R9CyOf"/>
  <outline>
    <contour>
      <point x="175.49906542056073" y="1073.5046728971963" type="qcurve"/>
      <point x="175.49906542056073" y="1093.4953271028037" type="line"/>
      <point x="175.49906542056073" y="1260.8411214953271"/>
      <point x="527.2591900311527" y="1477.0"/>
      <point x="836.801246105919" y="1477.0" type="qcurve" smooth="yes"/>
      <point x="1148.2965732087227" y="1477.0"/>
      <point x="1500.0566978193146" y="1260.8411214953271"/>
      <point x="1500.0566978193146" y="1093.4953271028037" type="qcurve"/>
      <point x="1500.0566978193146" y="1073.5046728971963" type="line"/>
      <point x="1500.0566978193146" y="906.1588785046729"/>
      <point x="1151.2031152647976" y="691.0"/>
      <point x="840.7077881619938" y="691.0" type="qcurve" smooth="yes"/>
      <point x="530.1657320872274" y="691.0"/>
      <point x="175.49906542056073" y="906.1588785046729"/>
    </contour>
    <contour>
      <point x="713.1345794392523" y="1124.0" type="qcurve"/>
      <point x="713.1345794392523" y="1043.0" type="line"/>
      <point x="713.1345794392523" y="952.0"/>
      <point x="774.1345794392523" y="830.0"/>
      <point x="838.801246105919" y="830.0" type="qcurve" smooth="yes"/>
      <point x="901.4679127725857" y="830.0"/>
      <point x="962.4679127725857" y="952.0"/>
      <point x="962.4679127725857" y="1043.0" type="qcurve"/>
      <point x="962.4679127725857" y="1124.0" type="line"/>
      <point x="962.4679127725857" y="1213.0"/>
      <point x="900.4679127725857" y="1336.0"/>
      <point x="836.801246105919" y="1336.0" type="qcurve" smooth="yes"/>
      <point x="774.1345794392523" y="1336.0"/>
      <point x="713.1345794392523" y="1213.0"/>
    </contour>
  </outline>
</glyph>
<glyph name="AE" format="2">
  <advance width="1943.3084112149531"/>
  <unicode hex="00C6"/>
  <anchor x="801.1666666666667" y="1456.0" name="top"/>
  <outline>
    <contour>
      <point x="22.5" y="0.0" type="line"/>
      <point x="674.1666666666667" y="1456.0" type="line"/>
      <point x="1829.8084112149531" y="1456.0" type="line"/>
      <point x="1829.8084112149531" y="957.7014925373135" type="line"/>
      <point x="1328.633956386293" y="957.7014925373135" type="line"/>
      <point x="1328.633956386293" y="492.34328358208955" type="line"/>
      <point x="1837.8084112149531" y="492.34328358208955" type="line"/>
      <point x="1837.8084112149531" y="0.0" type="line"/>
      <point x="738.1666666666667" y="0.0" type="line"/>
      <point x="738.1666666666667" y="1238.0" type="line"/>
      <point x="249.5" y="0.0" type="line"/>
    </contour>
    <contour>
      <point x="1033.6806853582555" y="501.85074626865674" type="line"/>
      <point x="1033.6806853582555" y="1000.1492537313433" type="line"/>
      <point x="1755.1417445482866" y="1000.1492537313433" type="line"/>
      <point x="1755.1417445482866" y="501.85074626865674" type="line"/>
    </contour>
    <contour>
      <point x="230.7885572139304" y="267.92537313432837" type="line"/>
      <point x="454.2562189054727" y="698.1492537313433" type="line"/>
      <point x="1033.8208722741433" y="698.1492537313433" type="line"/>
      <point x="1033.8208722741433" y="267.92537313432837" type="line"/>
    </contour>
  </outline>
</glyph>
<glyph name="multiply" format="2">
  <advance width="1323"/>
  <unicode hex="00D7"/>
  <outline>
    <contour>
      <point x="478" y="121" type="line"/>
      <point x="123" y="480" type="line"/>
      <point x="841" y="1222" type="line"/>
      <point x="1196" y="861" type="line"/>
    </contour>
    <contour>
      <point x="835" y="118" type="line"/>
      <point x="120" y="850" type="line"/>
      <point x="487" y="1223" type="line"/>
      <point x="1203" y="491" type="line"/>
    </contour>
  </outline>
</glyph>
<glyph name="germandbls" format="2">
  <advance width="2359.252336448598"/>
  <unicode hex="00DF"/>
  <outline>
    <contour>
      <point x="750.8084112149533" y="1092.0" type="qcurve" name="hr00"/>
      <point x="750.8084112149533" y="0.0" type="line"/>
      <point x="185.5" y="0.0" type="line"/>
      <point x="185.5" y="1092.0" type="line" smooth="yes"/>
      <point x="185.5" y="1371.5671641791046"/>
      <point x="769.3991956107313" y="1534.0"/>
      <point x="1096.46261682243" y="1534.0" type="qcurve" smooth="yes"/>
      <point x="1395.779769377412" y="1534.0"/>
      <point x="2067.085669781931" y="1346.3755223880596"/>
      <point x="2067.085669781931" y="999.6202985074625" type="qcurve" smooth="yes"/>
      <point x="2067.085669781931" y="911.3056716417912"/>
      <point x="2019.8590031152646" y="783.8477611940299"/>
      <point x="1994.5256697819311" y="741.710447761194" type="qcurve" smooth="yes"/>
      <point x="1980.6856697819312" y="715.1916417910447"/>
      <point x="1949.872336448598" y="671.9462686567165"/>
      <point x="1949.872336448598" y="662.6811940298506" type="qcurve" smooth="yes"/>
      <point x="1949.872336448598" y="648.0250746268656"/>
      <point x="1987.4723364485978" y="643.9773134328359"/>
      <point x="2084.4590031152643" y="635.5594029850747" type="qcurve" smooth="yes"/>
      <point x="2200.8856697819315" y="617.7359203980099"/>
      <point x="2273.752336448598" y="571.6471641791045"/>
      <point x="2273.752336448598" y="511.20417910447765" type="qcurve" smooth="yes"/>
      <point x="2273.752336448598" y="174.86567164179104"/>
      <point x="1885.6366996791742" y="-20.0"/>
      <point x="1476.4501557632398" y="-20.0" type="qcurve" smooth="yes"/>
      <point x="1082.4725670711862" y="-20.0"/>
      <point x="795.8084112149533" y="169.83582089552237"/>
      <point x="795.8084112149533" y="523.8656716417911" type="qcurve" smooth="yes"/>
      <point x="795.8084112149533" y="539.6567164179105" type="line"/>
      <point x="1340.1168224299065" y="539.6567164179105" type="line"/>
      <point x="1340.1168224299065" y="534.0597014925373" type="line" smooth="yes"/>
      <point x="1340.1168224299065" y="484.94029850746267"/>
      <point x="1411.7834890965732" y="438.11940298507466"/>
      <point x="1478.4501557632398" y="438.11940298507466" type="qcurve" smooth="yes"/>
      <point x="1549.1168224299065" y="438.11940298507466"/>
      <point x="1622.1168224299065" y="474.42805970149254"/>
      <point x="1622.1168224299065" y="509.2674626865671" type="qcurve" smooth="yes"/>
      <point x="1622.1168224299065" y="537.1020895522388"/>
      <point x="1552.8234890965732" y="570.52776119403"/>
      <point x="1489.7034890965733" y="572.983880597015" type="qcurve" smooth="yes"/>
      <point x="1395.9434890965733" y="581.164776119403"/>
      <point x="1291.1168224299065" y="612.3546268656717"/>
      <point x="1291.1168224299065" y="634.1176119402985" type="qcurve" smooth="yes"/>
      <point x="1291.1168224299065" y="651.809552238806"/>
      <point x="1335.8634890965732" y="734.4541293532337"/>
      <point x="1352.0768224299065" y="763.924776119403" type="qcurve" smooth="yes"/>
      <point x="1374.7968224299066" y="802.0435820895523"/>
      <point x="1415.4501557632398" y="926.3289552238806"/>
      <point x="1415.4501557632398" y="988.6232835820895" type="qcurve" smooth="yes"/>
      <point x="1415.4501557632398" y="1093.0805970149254"/>
      <point x="1293.5933017157206" y="1144.7910447761194"/>
      <point x="1092.46261682243" y="1144.7910447761194" type="qcurve" smooth="yes"/>
      <point x="889.4041707351095" y="1144.7910447761194"/>
      <point x="750.8084112149533" y="1120.1940298507463"/>
    </contour>
  </outline>
</glyph>
<glyph name="divide" format="2">
  <advance width="937.0"/>
  <unicode hex="00F7"/>
  <outline>
    <contour>
      <point x="203.6557632398754" y="1203.2242990654206" type="qcurve" smooth="yes"/>
      <point x="203.6557632398754" y="1316.2803738317757"/>
      <point x="335.291277258567" y="1463.4953271028037"/>
      <point x="466.88006230529595" y="1463.4953271028037" type="qcurve" smooth="yes"/>
      <point x="595.5623052959502" y="1463.4953271028037"/>
      <point x="732.057632398754" y="1316.2803738317757"/>
      <point x="732.057632398754" y="1203.2242990654206" type="qcurve" smooth="yes"/>
      <point x="732.057632398754" y="1095.981308411215"/>
      <point x="595.5623052959502" y="950.7196261682243"/>
      <point x="466.88006230529595" y="950.7196261682243" type="qcurve" smooth="yes"/>
      <point x="335.291277258567" y="950.7196261682243"/>
      <point x="203.6557632398754" y="1095.981308411215"/>
    </contour>
    <contour>
      <point x="204.6090342679128" y="138.33644859813083" type="qcurve" smooth="yes"/>
      <point x="204.6090342679128" y="247.53271028037383"/>
      <point x="336.2445482866044" y="397.6542056074766"/>
      <point x="467.83333333333337" y="397.6542056074766" type="qcurve" smooth="yes"/>
      <point x="596.5155763239876" y="397.6542056074766"/>
      <point x="733.0109034267913" y="247.53271028037383"/>
      <point x="733.0109034267913" y="138.33644859813083" type="qcurve" smooth="yes"/>
      <point x="733.0109034267913" y="30.140186915887853"/>
      <point x="596.5155763239876" y="-117.07476635514018"/>
      <point x="467.83333333333337" y="-117.07476635514018" type="qcurve" smooth="yes"/>
      <point x="336.2445482866044" y="-117.07476635514018"/>
      <point x="204.6090342679128" y="30.140186915887853"/>
    </contour>
    <contour>
      <point x="94.5" y="588.0" type="line"/>
      <point x="94.5" y="760.0" type="line"/>
      <point x="842.5" y="760.0" type="line"/>
      <point x="842.5" y="588.0" type="line"/>
    </contour>
  </outline>
</glyph>
<glyph name="oe" format="2">
  <advance width="2689.16199376947"/>
  <unicode hex="0153"/>
  <outline>
    <contour>
      <point x="946.7255451713395" y="-30.0" type="qcurve" smooth="yes"/>
      <point x="543.9392523364486" y="-30.0"/>
      <point x="122.5" y="232.2930841121495"/>
      <point x="122.5" y="448.6728971962617" type="qcurve" smooth="yes"/>
      <point x="122.5" y="464.46728971962614" type="line" smooth="yes"/>
      <point x="122.5" y="682.7536448598131"/>
      <point x="544.9058566978193" y="946.9666043613705"/>
      <point x="929.3266666666666" y="946.9666043613705" type="qcurve" smooth="yes"/>
      <point x="1057.0182554517137" y="946.9666043613705"/>
      <point x="1286.6202492211837" y="951.1820560747664"/>
      <point x="1383.8501557632399" y="907.3409345794392" type="qcurve"/>
      <point x="1479.0533956386294" y="944.0357632398753"/>
      <point x="1650.478691588785" y="948.1173506300271"/>
      <point x="1807.4880373831775" y="948.1173506300271" type="qcurve" smooth="yes"/>
      <point x="2196.1479750778813" y="948.1173506300271"/>
      <point x="2571.66199376947" y="700.72"/>
      <point x="2571.66199376947" y="492.0" type="qcurve" smooth="yes"/>
      <point x="2571.66199376947" y="245.85074626865674" type="line"/>
      <point x="1381.7647975077882" y="245.85074626865674" type="line"/>
      <point x="1381.7647975077882" y="649.0746268656717" type="line"/>
      <point x="2003.3201869158881" y="649.0746268656717" type="line"/>
      <point x="2004.4709331845447" y="490.176119402985" type="line" smooth="yes"/>
      <point x="2003.3201869158881" y="497.51223880597007"/>
      <point x="1921.4869158878503" y="510.2666043613707"/>
      <point x="1830.0202492211838" y="510.2666043613707" type="qcurve" smooth="yes"/>
      <point x="1734.153582554517" y="510.2666043613707"/>
      <point x="1629.353582554517" y="490.0674254893754"/>
      <point x="1629.353582554517" y="474.0" type="qcurve" smooth="yes"/>
      <point x="1629.353582554517" y="442.0" type="line" smooth="yes"/>
      <point x="1629.353582554517" y="435.2907834658483"/>
      <point x="1846.1196884735202" y="429.97014925373134"/>
      <point x="2011.6121309341145" y="429.97014925373134" type="qcurve" smooth="yes"/>
      <point x="2181.6540707676572" y="429.97014925373134"/>
      <point x="2355.41853815037" y="463.5223880597015"/>
      <point x="2412.4177012135583" y="486.08955223880594" type="qcurve"/>
      <point x="2549.369158878505" y="175.0" type="line"/>
      <point x="2472.665109034268" y="100.0"/>
      <point x="2130.8831775700937" y="-30.0"/>
      <point x="1859.0393146417448" y="-30.0" type="qcurve" smooth="yes"/>
      <point x="1722.4481619937696" y="-30.0"/>
      <point x="1522.5376323987539" y="-21.962990654205612"/>
      <point x="1383.4901557632397" y="18.211464174454832" type="qcurve"/>
      <point x="1235.6033021806854" y="-34.42890965732087"/>
      <point x="1035.0795638629284" y="-30.0"/>
    </contour>
    <contour>
      <point x="916.7741433021806" y="435.92537313432837" type="qcurve" smooth="yes"/>
      <point x="1016.667476635514" y="435.92537313432837"/>
      <point x="1125.7741433021808" y="438.6997386897289"/>
      <point x="1125.7741433021808" y="454.7611940298508" type="qcurve" smooth="yes"/>
      <point x="1125.7741433021808" y="462.08955223880594" type="line" smooth="yes"/>
      <point x="1125.7741433021808" y="476.44951504161423"/>
      <point x="1016.667476635514" y="479.22388059701484"/>
      <point x="916.7741433021806" y="479.22388059701484" type="qcurve" smooth="yes"/>
      <point x="816.8808099688474" y="479.22388059701484"/>
      <point x="707.7741433021806" y="478.26686567164177"/>
      <point x="707.7741433021806" y="462.08955223880594" type="qcurve" smooth="yes"/>
      <point x="707.7741433021806" y="454.7611940298508" type="line" smooth="yes"/>
      <point x="707.7741433021806" y="436.8823880597015"/>
      <point x="816.8808099688474" y="435.92537313432837"/>
    </contour>
  </outline>
</glyph>
<glyph name="Schwa" format="2">
  <advance width="1981.1841121495327"/>
  <unicode hex="018F"/>
  <outline>
    <contour>
      <point x="990.2619937694703" y="-30.0" type="qcurve" smooth="yes"/>
      <point x="567.0532710280374" y="-30.0"/>
      <point x="143.35233644859812" y="310.04672897196264"/>
      <point x="130.00654205607478" y="724.0934579439253" type="qcurve" smooth="yes"/>
      <point x="128.1" y="783.0467289719626" type="line"/>
      <point x="1543.2433021806853" y="783.0467289719626" type="line"/>
      <point x="1543.2433021806853" y="455.25373134328356" type="line"/>
      <point x="976.4769470404984" y="456.85074626865674" type="line"/>
      <point x="684.1436137071652" y="456.4029850746268" type="line"/>
      <point x="684.1436137071652" y="671.6417910447761" type="line" smooth="yes"/>
      <point x="684.1436137071652" y="605.6716417910447"/>
      <point x="834.4769470404984" y="505.8805970149254"/>
      <point x="980.7490854140514" y="505.8805970149254" type="qcurve" smooth="yes"/>
      <point x="1094.8102803738316" y="505.8805970149254"/>
      <point x="1249.7754545031848" y="621.0895522388059"/>
      <point x="1249.4769470404983" y="734.5373134328358" type="qcurve" smooth="yes"/>
      <point x="1249.1784395778118" y="853.5223880597015"/>
      <point x="1081.8102803738316" y="945.9253731343283"/>
      <point x="953.4769470404984" y="945.9253731343283" type="qcurve" smooth="yes"/>
      <point x="833.1436137071652" y="945.9253731343283"/>
      <point x="710.8102803738318" y="879.8009950248756"/>
      <point x="693.4769470404984" y="830.8656716417911" type="qcurve" smooth="yes"/>
      <point x="691.4769470404984" y="825.0746268656717" type="line"/>
      <point x="146.86635514018693" y="825.0746268656717" type="line"/>
      <point x="147.34894220486353" y="858.7443158041568" type="line" smooth="yes"/>
      <point x="144.4722508950574" y="1106.2160691867764"/>
      <point x="575.2362812107685" y="1489.9532710280373"/>
      <point x="978.4135853443064" y="1489.9532710280373" type="qcurve" smooth="yes"/>
      <point x="1418.2877528246615" y="1489.9532710280373"/>
      <point x="1839.1841121495327" y="1114.6542056074766"/>
      <point x="1839.1841121495327" y="759.0" type="qcurve" smooth="yes"/>
      <point x="1839.1841121495327" y="403.06542056074767"/>
      <point x="1404.517445482866" y="-30.0"/>
    </contour>
  </outline>
</glyph>
<glyph name="primemod" format="2">
  <advance width="1065.8411214953271"/>
  <unicode hex="02B9"/>
  <outline>
    <contour>
      <point x="271.03271028037386" y="1502.0" type="line"/>
      <point x="841.3411214953271" y="1502.0" type="line"/>
      <point x="712.8084112149533" y="895.6728971962617" type="line"/>
      <point x="209.5" y="900.6728971962617" type="line"/>
    </contour>
  </outline>
</glyph>
<glyph name="doubleprimemod" format="2">
  <advance width="1599.570093457944"/>
  <unicode hex="02BA"/>
  <outline>
    <contour>
      <point x="261.5" y="1502.0" type="line"/>
      <point x="831.8084112149533" y="1502.0" type="line"/>
      <point x="713.8084112149533" y="893.4205607476636" type="line"/>
      <point x="210.5" y="898.4205607476636" type="line"/>
    </contour>
    <contour>
      <point x="915.8084112149533" y="1502.0" type="line"/>
      <point x="1486.1168224299065" y="1502.0" type="line"/>
      <point x="1368.1168224299065" y="893.4205607476636" type="line"/>
      <point x="864.8084112149533" y="898.4205607476636" type="line"/>
    </contour>
  </outline>
</glyph>
<glyph name="gravecomb" format="2">
  <unicode hex="0300"/>
  <anchor x="0.0" y="1052.0" name="_top"/>
  <anchor x="0.0" y="1816.392523364486" name="top"/>
  <outline>
    <contour>
      <point x="-196" y="1173" type="line"/>
      <point x="-454" y="1543" type="line"/>
      <point x="76" y="1673" type="line"/>
      <point x="288" y="1303" type="line"/>
    </contour>
  </outline>
</glyph>
<glyph name="acutecomb" format="2">
  <unicode hex="0301"/>
  <anchor x="0.0" y="1052.0" name="_top"/>
  <anchor x="0.0" y="1686.4610591900312" name="top"/>
  <outline>
    <contour>
      <point x="-145.9532710280374" y="1275.7133956386294" type="line"/>
      <point x="55.14018691588785" y="1685.214953271028" type="line"/>
      <point x="293.0342679127726" y="1506.0872274143303" type="line"/>
      <point x="-38.0" y="1215.6666666666667" type="line"/>
    </contour>
  </outline>
</glyph>
<glyph name="circumflexcomb" format="2">
  <unicode hex="0302"/>
  <anchor x="0.0" y="1052.0" name="_top"/>
  <anchor x="0.0" y="1591.1495327102805" name="top"/>
  <outline>
    <contour>
      <point x="113.19626168224299" y="1592.1028037383178" type="line"/>
      <point x="258.0" y="1220.0" type="line"/>
      <point x="105.0" y="1220.0" type="line"/>
      <point x="0.0" y="1379.0" type="line"/>
      <point x="-105.0" y="1220.0" type="line"/>
      <point x="-260.85981308411215" y="1220.0" type="line"/>
      <point x="-103.66355140186916" y="1592.1028037383178" type="line"/>
    </contour>
  </outline>
</glyph>
<glyph name="brevecomb" format="2">
  <unicode hex="0306"/>
  <anchor x="0.0" y="1052.0" name="_top"/>
  <anchor x="0.0" y="1546.5981308411215" name="top"/>
  <outline>
    <contour>
      <point x="190.06542056074767" y="1548.4579439252336" type="qcurve"/>
      <point x="289.778816199377" y="1503.7040498442368" type="line"/>
      <point x="242.33333333333334" y="1359.6666666666667"/>
      <point x="99.66666666666667" y="1197.0"/>
      <point x="0.0" y="1197.0" type="qcurve" smooth="yes"/>
      <point x="-91.0" y="1197.0"/>
      <point x="-237.0" y="1351.0"/>
      <point x="-289.1121495327103" y="1503.1308411214952" type="qcurve"/>
      <point x="-191.97196261682245" y="1546.5514018691588" type="line"/>
      <point x="-166.8785046728972" y="1509.570093457944"/>
      <point x="-56.333333333333336" y="1431.5420560747664"/>
      <point x="0.0" y="1431.5420560747664" type="qcurve" smooth="yes"/>
      <point x="59.66666666666667" y="1431.5420560747664"/>
      <point x="164.30529595015577" y="1509.7632398753892"/>
    </contour>
  </outline>
</glyph>
<glyph name="dotaccentcomb" format="2">
  <unicode hex="0307"/>
  <anchor x="0.0" y="1052.0" name="_top"/>
  <anchor x="0.0" y="1554.2803738317757" name="top"/>
  <outline>
    <contour>
      <point x="-168.57009345794393" y="1391.9968847352025" type="qcurve" smooth="yes"/>
      <point x="-168.57009345794393" y="1461.3021806853583"/>
      <point x="-81.83177570093457" y="1554.2803738317757"/>
      <point x="0.0" y="1554.2803738317757" type="qcurve" smooth="yes"/>
      <point x="80.83177570093457" y="1554.2803738317757"/>
      <point x="167.90342679127727" y="1461.3021806853583"/>
      <point x="167.90342679127727" y="1391.9968847352025" type="qcurve" smooth="yes"/>
      <point x="167.90342679127727" y="1323.9781931464174"/>
      <point x="80.83177570093457" y="1230.6666666666667"/>
      <point x="0.0" y="1230.6666666666667" type="qcurve" smooth="yes"/>
      <point x="-81.83177570093457" y="1230.6666666666667"/>
      <point x="-168.57009345794393" y="1323.9781931464174"/>
    </contour>
  </outline>
</glyph>
<glyph name="caroncomb" format="2">
  <unicode hex="030C"/>
  <anchor x="0.0" y="1052.0" name="_top"/>
  <anchor x="0.0" y="1586.3831775700935" name="top"/>
  <outline>
    <contour>
      <point x="-103.66355140186916" y="1213.0" type="line"/>
      <point x="-260.85981308411215" y="1585.1028037383178" type="line"/>
      <point x="-105.28660436137073" y="1585.1028037383178" type="line"/>
      <point x="0.0" y="1426.1028037383178" type="line"/>
      <point x="104.71339563862928" y="1585.1028037383178" type="line"/>
      <point x="258.0" y="1585.1028037383178" type="line"/>
      <point x="113.19626168224299" y="1213.0" type="line"/>
    </contour>
  </outline>
</glyph>
<glyph name="commaaccentturnedcomb" format="2">
  <unicode hex="0312"/>
  <anchor x="0.0" y="1052.0" name="_top"/>
  <outline>
    <contour>
      <point x="151.5202492211838" y="1653.0" type="line"/>
      <point x="144.6822429906542" y="1232.5171339563863" type="line"/>
      <point x="-185.6417445482866" y="1275.582554517134" type="line"/>
      <point x="7.666666666666666" y="1676.619937694704" type="line"/>
    </contour>
  </outline>
</glyph>
<glyph name="horncomb" format="2">
  <unicode hex="031B"/>
  <anchor x="0.0" y="1052.0" name="_topright"/>
  <anchor x="0.0" y="1293.0" name="topright"/>
  <outline>
    <contour>
      <point x="0.0" y="1052.0" type="line"/>
      <point x="61.0" y="1052.0" type="line" smooth="yes"/>
      <point x="96.33333333333334" y="1052.0"/>
      <point x="146.0" y="1086.0"/>
      <point x="146.0" y="1138.0" type="qcurve" smooth="yes"/>
      <point x="146.0" y="1184.0"/>
      <point x="133.0" y="1257.0"/>
      <point x="123.0" y="1293.0" type="qcurve"/>
      <point x="459.65420560747657" y="1293.0" type="line"/>
      <point x="479.65420560747657" y="1260.0"/>
      <point x="512.6542056074766" y="1157.0"/>
      <point x="512.6542056074766" y="1093.0" type="qcurve" smooth="yes"/>
      <point x="512.6542056074766" y="1005.0"/>
      <point x="389.3208722741433" y="920.0"/>
      <point x="206.13395638629282" y="920.0" type="qcurve" smooth="yes"/>
      <point x="79.33333333333334" y="920.0"/>
      <point x="18.333333333333336" y="932.0"/>
      <point x="0.0" y="941.0" type="qcurve"/>
    </contour>
  </outline>
</glyph>
<glyph name="dotbelowcomb" format="2">
  <unicode hex="0323"/>
  <anchor x="0.0" y="0.0" name="_bottom"/>
  <anchor x="0.0" y="-506.6542056074766" name="bottom"/>
  <outline>
    <contour>
      <point x="-173.33644859813086" y="-325.89096573208724" type="qcurve" smooth="yes"/>
      <point x="-173.33644859813086" y="-254.67912772585672"/>
      <point x="-83.73831775700934" y="-158.84112149532712"/>
      <point x="0.0" y="-158.84112149532712" type="qcurve" smooth="yes"/>
      <point x="82.73831775700934" y="-158.84112149532712"/>
      <point x="172.6697819314642" y="-254.67912772585672"/>
      <point x="172.6697819314642" y="-325.89096573208724" type="qcurve" smooth="yes"/>
      <point x="172.6697819314642" y="-395.81619937694705"/>
      <point x="82.73831775700934" y="-491.98753894080994"/>
      <point x="0.0" y="-491.98753894080994" type="qcurve" smooth="yes"/>
      <point x="-83.73831775700934" y="-491.98753894080994"/>
      <point x="-173.33644859813086" y="-395.81619937694705"/>
    </contour>
  </outline>
</glyph>
<glyph name="dieresisbelowcomb" format="2">
  <unicode hex="0324"/>
  <anchor x="0.0" y="0.0" name="_bottom"/>
  <anchor x="0.0" y="-498.21495327102804" name="bottom"/>
  <outline>
    <contour>
      <point x="-367.82866043613706" y="-327.2180685358256" type="qcurve" smooth="yes"/>
      <point x="-367.82866043613706" y="-264.91900311526484"/>
      <point x="-287.09034267912773" y="-173.02803738317758"/>
      <point x="-210.63862928348908" y="-173.02803738317758" type="qcurve" smooth="yes"/>
      <point x="-131.42056074766356" y="-173.02803738317758"/>
      <point x="-50.255451713395644" y="-263.7725856697819"/>
      <point x="-50.255451713395644" y="-327.2180685358256" type="qcurve" smooth="yes"/>
      <point x="-50.255451713395644" y="-387.61059190031153"/>
      <point x="-132.56697819314644" y="-477.595015576324"/>
      <point x="-210.63862928348908" y="-477.595015576324" type="qcurve" smooth="yes"/>
      <point x="-287.9501557632399" y="-477.595015576324"/>
      <point x="-367.82866043613706" y="-388.4704049844237"/>
    </contour>
    <contour>
      <point x="49.92211838006231" y="-327.2180685358256" type="qcurve" smooth="yes"/>
      <point x="49.92211838006231" y="-264.91900311526484"/>
      <point x="129.70716510903426" y="-173.02803738317758"/>
      <point x="209.01869158878503" y="-173.02803738317758" type="qcurve" smooth="yes"/>
      <point x="286.3302180685358" y="-173.02803738317758"/>
      <point x="367.49532710280374" y="-263.7725856697819"/>
      <point x="367.49532710280374" y="-327.2180685358256" type="qcurve" smooth="yes"/>
      <point x="367.49532710280374" y="-387.61059190031153"/>
      <point x="285.18380062305295" y="-477.595015576324"/>
      <point x="209.01869158878503" y="-477.595015576324" type="qcurve" smooth="yes"/>
      <point x="128.84735202492212" y="-477.595015576324"/>
      <point x="49.92211838006231" y="-388.4704049844237"/>
    </contour>
  </outline>
</glyph>
<glyph name="cedillacomb" format="2">
  <unicode hex="0327"/>
  <anchor x="0.0" y="0.0" name="_bottom"/>
  <anchor x="0.0" y="-457.0" name="bottom"/>
  <outline>
    <contour>
      <point x="-72.0" y="20.0" type="line"/>
      <point x="57.0" y="20.0" type="line"/>
      <point x="29.0" y="-75.0" type="line"/>
      <point x="195.15887850467288" y="-82.14018691588785"/>
      <point x="337.38940809968847" y="-161.0"/>
      <point x="337.38940809968847" y="-248.0" type="qcurve" smooth="yes"/>
      <point x="337.38940809968847" y="-341.0"/>
      <point x="186.7227414330218" y="-457.0"/>
      <point x="-154.0" y="-457.0" type="qcurve"/>
      <point x="-161.0" y="-350.0" type="line"/>
      <point x="-72.33333333333333" y="-350.0"/>
      <point x="-6.666666666666664" y="-303.0"/>
      <point x="-6.666666666666664" y="-250.0" type="qcurve" smooth="yes"/>
      <point x="-6.666666666666664" y="-201.0"/>
      <point x="-49.666666666666664" y="-164.0"/>
      <point x="-113.0" y="-157.0" type="qcurve"/>
    </contour>
  </outline>
</glyph>
<glyph name="brevebelowcomb" format="2">
  <unicode hex="032E"/>
  <anchor x="0.0" y="0.0" name="_bottom"/>
  <anchor x="0.0" y="-463.0" name="bottom"/>
  <outline>
    <contour>
      <point x="346.314097735621" y="-81.29684474822152" type="qcurve"/>
      <point x="411.42825219695914" y="-156.9626168224299" type="line"/>
      <point x="361.4728683684382" y="-298.85981308411215"/>
      <point x="147.01262286697357" y="-463.0"/>
      <point x="0.0" y="-463.0" type="qcurve" smooth="yes"/>
      <point x="-128.94717533826196" y="-463.0"/>
      <point x="-379.93815315943647" y="-278.52740131120106"/>
      <point x="-411.3057274375784" y="-160.5306514158181" type="qcurve"/>
      <point x="-353.94026595992" y="-80.34357372018414" type="line"/>
      <point x="-305.24133630910865" y="-125.44954665922724"/>
      <point x="-100.58477518947319" y="-200.23879202120239"/>
      <point x="0.0" y="-200.23879202120239" type="qcurve" smooth="yes"/>
      <point x="109.53287208815733" y="-200.23879202120239"/>
      <point x="300.6857897428744" y="-125.56066675965965"/>
    </contour>
  </outline>
</glyph>
<glyph name="lownumeralsign" format="2">
  <advance width="649.0"/>
  <unicode hex="0375"/>
  <outline>
    <contour>
      <point x="298.5" y="285.0" type="line"/>
      <point x="421.5" y="255.0" type="line"/>
      <point x="332.5" y="-198.0" type="line"/>
      <point x="147.5" y="-179.0" type="line"/>
    </contour>
  </outline>
</glyph>
<glyph name="Pi" format="2">
  <advance width="2101.0"/>
  <unicode hex="03A0"/>
  <outline>
    <contour>
      <point x="207.5" y="0.0" type="line"/>
      <point x="207.5" y="1456.0" type="line"/>
      <point x="1893.5" y="1456.0" type="line"/>
      <point x="1893.5" y="0.0" type="line"/>
      <point x="1293.5" y="0.0" type="line"/>
      <point x="1293.5" y="956.0" type="line"/>
      <point x="807.5" y="956.0" type="line"/>
      <point x="807.5" y="0.0" type="line"/>
    </contour>
  </outline>
</glyph>
<glyph name="Sigma" format="2">
  <advance width="1495.348909657321"/>
  <unicode hex="03A3"/>
  <outline>
    <contour>
      <point x="102.5" y="0.0" type="line"/>
      <point x="102.5" y="291.14925373134326" type="line"/>
      <point x="466.5" y="748.0" type="line"/>
      <point x="466.5" y="702.0" type="line"/>
      <point x="114.5" y="1133.8507462686566" type="line"/>
      <point x="114.5" y="1456.0" type="line"/>
      <point x="1369.1822429906542" y="1456.0" type="line"/>
      <point x="1369.1822429906542" y="1041.2238805970148" type="line"/>
      <point x="872.5537964383689" y="1041.2238805970148" type="line"/>
      <point x="644.3195936206816" y="1322.0" type="line"/>
      <point x="1149.1355140186915" y="756.0" type="line"/>
      <point x="1149.1355140186915" y="716.0" type="line"/>
      <point x="642.9862602873483" y="135.0" type="line"/>
      <point x="956.2950899707072" y="500.0" type="line"/>
      <point x="1391.848909657321" y="500.0" type="line"/>
      <point x="1391.848909657321" y="0.0" type="line"/>
    </contour>
  </outline>
</glyph>
<glyph name="Phi" format="2">
  <advance width="2732.5669781931465"/>
  <unicode hex="03A6"/>
  <outline>
    <contour>
      <point x="1074.0732087227416" y="-20.0" type="line"/>
      <point x="1074.0732087227416" y="242.0" type="line"/>
      <point x="1074.0732087227416" y="285.0" type="line"/>
      <point x="1074.0732087227416" y="1192.0" type="line"/>
      <point x="1074.0732087227416" y="1228.0" type="line"/>
      <point x="1074.0732087227416" y="1476.0" type="line"/>
      <point x="1659.4470404984424" y="1476.0" type="line"/>
      <point x="1659.4470404984424" y="1230.0" type="line"/>
      <point x="1659.4470404984424" y="1193.0" type="line"/>
      <point x="1659.4470404984424" y="283.0" type="line"/>
      <point x="1659.4470404984424" y="240.0" type="line"/>
      <point x="1659.4470404984424" y="-20.0" type="line"/>
    </contour>
    <contour>
      <point x="1002.7429906542056" y="157.4179104477612" type="line" smooth="yes"/>
      <point x="499.7928348909657" y="157.4179104477612"/>
      <point x="142.5" y="468.9850746268657"/>
      <point x="142.5" y="739.0" type="qcurve" smooth="yes"/>
      <point x="142.5" y="1009.0149253731344"/>
      <point x="499.7928348909657" y="1319.5820895522388"/>
      <point x="1002.7429906542056" y="1319.5820895522388" type="qcurve" smooth="yes"/>
      <point x="1730.7772585669782" y="1319.5820895522388" type="line" smooth="yes"/>
      <point x="2233.727414330218" y="1319.5820895522388"/>
      <point x="2590.0669781931465" y="1007.1641791044776"/>
      <point x="2590.0669781931465" y="738.0" type="qcurve" smooth="yes"/>
      <point x="2590.0669781931465" y="467.13432835820896"/>
      <point x="2233.727414330218" y="157.4179104477612"/>
      <point x="1730.7772585669782" y="157.4179104477612" type="qcurve" smooth="yes"/>
    </contour>
    <contour>
      <point x="1053.739875389408" y="659.7761194029852" type="qcurve" smooth="yes"/>
      <point x="1679.7803738317757" y="659.7761194029852" type="line" smooth="yes"/>
      <point x="1850.4470404984424" y="659.7761194029852"/>
      <point x="1996.1137071651092" y="698.1343283582089"/>
      <point x="1996.1137071651092" y="730.8955223880597" type="qcurve" smooth="yes"/>
      <point x="1996.1137071651092" y="762.5074626865671"/>
      <point x="1850.4470404984424" y="801.9104477611941"/>
      <point x="1679.7803738317757" y="801.9104477611941" type="qcurve" smooth="yes"/>
      <point x="1053.739875389408" y="801.9104477611941" type="line" smooth="yes"/>
      <point x="883.0732087227415" y="801.9104477611941"/>
      <point x="737.4065420560748" y="763.5522388059701"/>
      <point x="737.4065420560748" y="731.6417910447761" type="qcurve" smooth="yes"/>
      <point x="737.4065420560748" y="700.0298507462687"/>
      <point x="883.0732087227415" y="659.7761194029852"/>
    </contour>
  </outline>
</glyph>
<glyph name="Omega" format="2">
  <advance width="2096.8130841121497"/>
  <unicode hex="03A9"/>
  <anchor x="45.5" y="1074.0" name="tonos"/>
  <outline>
    <contour>
      <point x="152.5" y="0.0" type="line"/>
      <point x="152.5" y="499.2985074626866" type="line"/>
      <point x="662.6152647975077" y="499.2985074626866" type="line"/>
      <point x="662.6152647975077" y="310.9065420560748" type="line"/>
      <point x="367.7803738317757" y="339.5420560747664"/>
      <point x="152.83333333333331" y="645.0654205607476"/>
      <point x="152.83333333333331" y="854.0654205607476" type="qcurve"/>
      <point x="152.83333333333331" y="871.9345794392524" type="line"/>
      <point x="152.83333333333331" y="1151.9345794392523"/>
      <point x="565.9890965732087" y="1486.0"/>
      <point x="1048.4065420560748" y="1486.0" type="qcurve"/>
      <point x="1529.157320872274" y="1486.0"/>
      <point x="1943.9797507788164" y="1151.9345794392523"/>
      <point x="1943.9797507788164" y="871.9345794392524" type="qcurve"/>
      <point x="1943.9797507788164" y="854.0654205607476" type="line"/>
      <point x="1943.9797507788164" y="588.8224299065421"/>
      <point x="1637.6651090342677" y="339.5420560747664"/>
      <point x="1434.1978193146417" y="311.85981308411215" type="qcurve"/>
      <point x="1434.1978193146417" y="499.2985074626866" type="line"/>
      <point x="1944.3130841121497" y="499.2985074626866" type="line"/>
      <point x="1944.3130841121497" y="0.0" type="line"/>
      <point x="1130.0732087227416" y="0.0" type="line"/>
      <point x="1130.0732087227416" y="522.9253731343283" type="line"/>
      <point x="1237.739875389408" y="538.5094155391268"/>
      <point x="1340.0732087227416" y="657.5963174780304"/>
      <point x="1340.0732087227416" y="729.7125122053285" type="qcurve"/>
      <point x="1340.0732087227416" y="758.4886316083135" type="line"/>
      <point x="1340.0732087227416" y="863.8020644441345"/>
      <point x="1184.4065420560748" y="978.2985074626865"/>
      <point x="1048.0732087227416" y="978.2985074626865" type="qcurve"/>
      <point x="911.4065420560748" y="978.2985074626865"/>
      <point x="756.7398753894082" y="863.8020644441345"/>
      <point x="756.7398753894082" y="758.4886316083135" type="qcurve"/>
      <point x="756.7398753894082" y="729.7125122053285" type="line"/>
      <point x="756.7398753894082" y="657.5963174780304"/>
      <point x="857.4065420560748" y="538.5094155391268"/>
      <point x="966.7398753894082" y="522.9253731343283" type="qcurve"/>
      <point x="966.7398753894082" y="0.0" type="line"/>
    </contour>
  </outline>
</glyph>
<glyph name="eta" format="2">
  <advance width="1825.9501557632398"/>
  <unicode hex="03B7"/>
  <anchor x="995.4345794392523" y="0.0" name="bottom"/>
  <anchor x="938.7679127725856" y="916.0" name="top"/>
  <outline>
    <contour>
      <point x="185.5" y="0.0" type="line"/>
      <point x="185.5" y="916.0" type="line"/>
      <point x="734.8084112149533" y="916.0" type="line"/>
      <point x="752.8084112149533" y="679.0" type="line"/>
      <point x="752.8084112149533" y="0.0" type="line"/>
    </contour>
    <contour>
      <point x="659.8084112149533" y="235.32835820895525" type="qcurve"/>
      <point x="659.8084112149533" y="610.0" type="line"/>
      <point x="746.8800623052961" y="803.5264797507788"/>
      <point x="1000.7616822429907" y="942.4666666666667"/>
      <point x="1146.3255451713396" y="942.8" type="qcurve" smooth="yes"/>
      <point x="1382.8457943925232" y="943.1333333333332"/>
      <point x="1650.1168224299065" y="738.7943925233645"/>
      <point x="1650.1168224299065" y="468.64485981308417" type="qcurve" smooth="yes"/>
      <point x="1650.1168224299065" y="-416.0" type="line"/>
      <point x="1082.8084112149531" y="-416.0" type="line"/>
      <point x="1082.8084112149531" y="232.77611940298505" type="line" smooth="yes"/>
      <point x="1082.8084112149531" y="388.77611940298505"/>
      <point x="1002.5895057423163" y="474.576119402985"/>
      <point x="932.4750778816199" y="474.576119402985" type="qcurve" smooth="yes"/>
      <point x="858.3009485283861" y="474.576119402985"/>
      <point x="739.4192820942019" y="366.915050913656"/>
    </contour>
  </outline>
</glyph>
<glyph name="theta" format="2">
  <advance width="1804.0965732087227"/>
  <unicode hex="03B8"/>
  <outline>
    <contour>
      <point x="904.334890965732" y="-30.0" type="qcurve" smooth="yes"/>
      <point x="542.2408127257189" y="-30.0"/>
      <point x="132.5" y="371.70093457943926"/>
      <point x="132.5" y="741.7009345794393" type="qcurve"/>
      <point x="132.5" y="796.2056074766356" type="line"/>
      <point x="132.5" y="1154.2990654205607"/>
      <point x="539.2875416976815" y="1556.0"/>
      <point x="900.4283489096573" y="1556.0" type="qcurve" smooth="yes"/>
      <point x="1266.6177597662174" y="1556.0"/>
      <point x="1671.524301822292" y="1154.2990654205607"/>
      <point x="1671.524301822292" y="796.2056074766356" type="qcurve"/>
      <point x="1671.524301822292" y="741.7009345794393" type="line"/>
      <point x="1671.524301822292" y="371.70093457943926"/>
      <point x="1269.5710307942547" y="-30.0"/>
    </contour>
    <contour>
      <point x="903.714953271028" y="429.97014925373134" type="qcurve" smooth="yes"/>
      <point x="997.0482866043614" y="429.97014925373134"/>
      <point x="1097.309348551264" y="549.3731343283582"/>
      <point x="1097.309348551264" y="685.4626865671642" type="qcurve"/>
      <point x="1097.309348551264" y="842.8358208955224" type="line" smooth="yes"/>
      <point x="1097.309348551264" y="978.9253731343283"/>
      <point x="995.0482866043614" y="1096.0298507462687"/>
      <point x="902.3816199376946" y="1096.0298507462687" type="qcurve" smooth="yes"/>
      <point x="811.0482866043614" y="1096.0298507462687"/>
      <point x="706.714953271028" y="978.9253731343283"/>
      <point x="706.714953271028" y="842.8358208955224" type="qcurve" smooth="yes"/>
      <point x="706.714953271028" y="685.4626865671642" type="line" smooth="yes"/>
      <point x="706.714953271028" y="549.3731343283582"/>
      <point x="812.3816199376946" y="429.97014925373134"/>
    </contour>
    <contour>
      <point x="420.0607476635514" y="478.88059701492534" type="line"/>
      <point x="420.0607476635514" y="910.1343283582089" type="line"/>
      <point x="1383.9635541587406" y="910.1343283582089" type="line"/>
      <point x="1383.9635541587406" y="478.88059701492534" type="line"/>
    </contour>
  </outline>
</glyph>
<glyph name="iota" format="2">
  <advance width="993.9750778816199"/>
  <unicode hex="03B9"/>
  <anchor x="469.8271028037383" y="916.0" name="top"/>
  <outline>
    <contour>
      <point x="540.7305295950155" y="-30.0" type="qcurve" smooth="yes"/>
      <point x="378.5342679127726" y="-30.0"/>
      <point x="175.5" y="155.7570093457944"/>
      <point x="175.5" y="317.196261682243" type="qcurve" smooth="yes"/>
      <point x="175.5" y="916.0" type="line"/>
      <point x="742.8084112149533" y="916.0" type="line"/>
      <point x="742.8084112149533" y="566.2686567164179" type="line" smooth="yes"/>
      <point x="742.8084112149533" y="496.2686567164179"/>
      <point x="782.1417445482866" y="436.2686567164179"/>
      <point x="826.8084112149533" y="436.2686567164179" type="qcurve" smooth="yes"/>
      <point x="847.4750778816199" y="436.2686567164179"/>
      <point x="886.8084112149533" y="448.2686567164179"/>
      <point x="906.4750778816199" y="458.2686567164179" type="qcurve"/>
      <point x="906.4750778816199" y="0.0" type="line"/>
      <point x="887.1417445482866" y="-12.0"/>
      <point x="698.076323987539" y="-30.0"/>
    </contour>
  </outline>
</glyph>
<glyph name="xi" format="2">
  <advance width="1237.8411214953271"/>
  <unicode hex="03BE"/>
  <outline>
    <contour>
      <point x="932.8084112149531" y="-348.0" type="line"/>
      <point x="948.9018691588785" y="-331.5209931650161"/>
      <point x="964.2757009345794" y="-309.63690891337706"/>
      <point x="964.2757009345794" y="-286.6342586134747" type="qcurve"/>
      <point x="964.2757009345794" y="-239.20658390291533"/>
      <point x="862.3181522295067" y="-173.02445715348492"/>
      <point x="705.417840703027" y="-133.6194727298089" type="qcurve" smooth="yes"/>
      <point x="519.9474357186033" y="-87.44190263635096" type="line" smooth="yes"/>
      <point x="264.9785883665783" y="-23.469940019528536"/>
      <point x="122.5" y="171.70042311805457"/>
      <point x="122.5" y="335.4134467847677" type="qcurve"/>
      <point x="122.5" y="553.2242990654206"/>
      <point x="328.9392523364486" y="725.4392523364486"/>
      <point x="444.49376947040497" y="767.0" type="qcurve"/>
      <point x="444.49376947040497" y="743.0" type="line"/>
      <point x="308.21651090342675" y="783.373831775701"/>
      <point x="161.59345794392524" y="927.8411214953271"/>
      <point x="161.5" y="1040.8411214953271" type="qcurve"/>
      <point x="161.5" y="1198.4392523364486"/>
      <point x="506.297507788162" y="1361.4392523364486"/>
      <point x="765.4750778816199" y="1393.0" type="qcurve"/>
      <point x="765.4750778816199" y="1052.2089552238806" type="line"/>
      <point x="130.5" y="1052.2089552238806" type="line"/>
      <point x="130.5" y="1536.0" type="line"/>
      <point x="1096.8084112149531" y="1536.0" type="line"/>
      <point x="1096.8084112149531" y="1052.2089552238806" type="line"/>
      <point x="879.7387594736598" y="1049.3731343283582"/>
      <point x="721.8084112149533" y="1025.3283582089553"/>
      <point x="721.8084112149533" y="1015.6417910447761" type="qcurve" smooth="yes"/>
      <point x="721.8084112149533" y="1009.8805970149253"/>
      <point x="819.8084112149533" y="997.4328358208955"/>
      <point x="923.1417445482866" y="990.6268656716418" type="qcurve" smooth="yes"/>
      <point x="1049.4750778816199" y="990.6268656716418" type="line"/>
      <point x="1049.4750778816199" y="540.8656716417911" type="line"/>
      <point x="923.1417445482866" y="540.8656716417911" type="line" smooth="yes"/>
      <point x="800.4750778816199" y="540.8656716417911"/>
      <point x="699.4560608174082" y="582.8865950620727"/>
      <point x="699.4560608174082" y="577.4625470776957" type="qcurve"/>
      <point x="699.4560608174082" y="582.7847677500349"/>
      <point x="785.4245826940066" y="563.7414795182963"/>
      <point x="809.278630213419" y="553.9685683730878" type="qcurve" smooth="yes"/>
      <point x="864.5542614032641" y="537.8388431673409" type="line" smooth="yes"/>
      <point x="1006.8604407867206" y="499.28516297019576"/>
      <point x="1161.3411214953271" y="216.20839726600641"/>
      <point x="1161.3411214953271" y="-3.331845445668847" type="qcurve"/>
      <point x="1161.3411214953271" y="-66.33184544566885"/>
      <point x="1129.1417445482864" y="-278.0"/>
      <point x="1102.8084112149531" y="-348.0" type="qcurve"/>
    </contour>
  </outline>
</glyph>
<glyph name="tau" format="2">
  <advance width="1104.6417445482864"/>
  <unicode hex="03C4"/>
  <outline>
    <contour>
      <point x="37.5" y="480.70149253731347" type="line"/>
      <point x="37.5" y="916.0" type="line"/>
      <point x="1014.1417445482865" y="916.0" type="line"/>
      <point x="1014.1417445482865" y="480.70149253731347" type="line"/>
    </contour>
    <contour>
      <point x="607.5965732087227" y="-30.0" type="qcurve" smooth="yes"/>
      <point x="408.22274143302184" y="-30.0"/>
      <point x="232.83333333333334" y="149.0841121495327"/>
      <point x="232.83333333333334" y="376.29906542056074" type="qcurve" smooth="yes"/>
      <point x="232.83333333333334" y="835.0" type="line"/>
      <point x="800.1417445482866" y="835.0" type="line"/>
      <point x="800.1417445482866" y="529.6865671641791" type="line" smooth="yes"/>
      <point x="800.1417445482866" y="479.25373134328356"/>
      <point x="839.4750778816199" y="436.2686567164179"/>
      <point x="884.1417445482866" y="436.2686567164179" type="qcurve" smooth="yes"/>
      <point x="904.8084112149533" y="436.2686567164179"/>
      <point x="944.1417445482865" y="448.2686567164179"/>
      <point x="963.8084112149531" y="458.2686567164179" type="qcurve"/>
      <point x="963.8084112149531" y="0.0" type="line"/>
      <point x="931.1292834890967" y="-11.046728971962617"/>
      <point x="804.0264797507788" y="-30.0"/>
    </contour>
  </outline>
</glyph>
<glyph name="phi" format="2">
  <advance width="2478.190031152648"/>
  <unicode hex="03C6"/>
  <outline>
    <contour>
      <point x="955.4408099688475" y="-416.0" type="line"/>
      <point x="955.4408099688475" y="45.0" type="line"/>
      <point x="955.4408099688475" y="89.0" type="line"/>
      <point x="955.4408099688475" y="845.0" type="line"/>
      <point x="955.4408099688475" y="886.0" type="line"/>
      <point x="955.4408099688475" y="1400.0" type="line"/>
      <point x="1522.7492211838005" y="1400.0" type="line"/>
      <point x="1522.7492211838005" y="886.0" type="line"/>
      <point x="1522.7492211838005" y="843.0" type="line"/>
      <point x="1522.7492211838005" y="85.0" type="line"/>
      <point x="1522.7492211838005" y="45.0" type="line"/>
      <point x="1522.7492211838005" y="-416.0" type="line"/>
    </contour>
    <contour>
      <point x="898.2445482866044" y="-30.0" type="line"/>
      <point x="509.8354517133956" y="-20.0"/>
      <point x="122.5" y="226.88"/>
      <point x="122.5" y="442.0" type="qcurve" smooth="yes"/>
      <point x="122.5" y="474.0" type="line" smooth="yes"/>
      <point x="122.5" y="689.12"/>
      <point x="509.8354517133956" y="936.0"/>
      <point x="898.2445482866044" y="946.0" type="qcurve"/>
      <point x="1579.9454828660434" y="946.0" type="line"/>
      <point x="1968.3545794392521" y="936.0"/>
      <point x="2355.690031152648" y="689.12"/>
      <point x="2355.690031152648" y="474.0" type="qcurve" smooth="yes"/>
      <point x="2355.690031152648" y="442.0" type="line" smooth="yes"/>
      <point x="2355.690031152648" y="226.88"/>
      <point x="1968.3545794392521" y="-20.0"/>
      <point x="1579.9454828660434" y="-30.0" type="qcurve"/>
    </contour>
    <contour>
      <point x="955.4408099688475" y="429.11940298507466" type="qcurve"/>
      <point x="1522.7492211838005" y="429.11940298507466" type="line"/>
      <point x="1645.4158878504672" y="430.78268656716415"/>
      <point x="1770.082554517134" y="440.2131343283582"/>
      <point x="1770.082554517134" y="455.6119402985074" type="qcurve" smooth="yes"/>
      <point x="1770.082554517134" y="463.7910447761194" type="line" smooth="yes"/>
      <point x="1770.082554517134" y="478.33910447761184"/>
      <point x="1645.4158878504672" y="488.6202985074626"/>
      <point x="1522.7492211838005" y="490.2835820895523" type="qcurve"/>
      <point x="955.4408099688475" y="490.2835820895523" type="line"/>
      <point x="832.7741433021806" y="488.6202985074626"/>
      <point x="708.107476635514" y="478.33910447761184"/>
      <point x="708.107476635514" y="463.7910447761194" type="qcurve" smooth="yes"/>
      <point x="708.107476635514" y="455.6119402985074" type="line" smooth="yes"/>
      <point x="708.107476635514" y="440.2131343283582"/>
      <point x="832.7741433021806" y="430.78268656716415"/>
    </contour>
  </outline>
</glyph>
<glyph name="chi" format="2">
  <advance width="1374.3021806853583"/>
  <unicode hex="03C7"/>
  <outline>
    <contour>
      <point x="626.1666666666667" y="-416.0" type="line"/>
      <point x="393.83333333333337" y="202.0" type="line"/>
      <point x="384.83333333333337" y="202.0" type="line"/>
      <point x="61.5" y="916.0" type="line"/>
      <point x="751.1355140186915" y="916.0" type="line"/>
      <point x="965.4688473520249" y="350.0" type="line"/>
      <point x="975.4688473520249" y="350.0" type="line"/>
      <point x="1316.8021806853583" y="-416.0" type="line"/>
    </contour>
    <contour>
      <point x="57.5" y="-416.0" type="line"/>
      <point x="407.83333333333337" y="370.0" type="line"/>
      <point x="901.4688473520249" y="370.0" type="line"/>
      <point x="1096.8021806853583" y="916.0" type="line"/>
      <point x="1306.8021806853583" y="916.0" type="line"/>
      <point x="1000.4688473520249" y="215.0" type="line"/>
      <point x="506.83333333333337" y="215.0" type="line"/>
      <point x="267.5" y="-416.0" type="line"/>
    </contour>
  </outline>
</glyph>
<glyph name="psi" format="2">
  <advance width="2464.152647975078"/>
  <unicode hex="03C8"/>
  <outline>
    <contour>
      <point x="948.4221183800623" y="-416.0" type="line"/>
      <point x="948.4221183800623" y="1400.0" type="line"/>
      <point x="1515.7305295950155" y="1400.0" type="line"/>
      <point x="1515.7305295950155" y="-416.0" type="line"/>
    </contour>
    <contour>
      <point x="888.3660436137071" y="-20.0" type="line"/>
      <point x="577.334890965732" y="-10.0"/>
      <point x="175.5" y="237.0"/>
      <point x="175.5" y="480.0" type="qcurve" smooth="yes"/>
      <point x="175.5" y="916.0" type="line"/>
      <point x="737.088785046729" y="916.0" type="line"/>
      <point x="737.088785046729" y="662.7014925373135" type="line" smooth="yes"/>
      <point x="737.088785046729" y="545.7462686567164"/>
      <point x="848.7554517133956" y="423.34328358208955"/>
      <point x="948.4221183800623" y="416.74626865671644" type="qcurve"/>
      <point x="1515.7305295950155" y="416.74626865671644" type="line"/>
      <point x="1616.3971962616822" y="423.34328358208955"/>
      <point x="1728.063862928349" y="545.7462686567164"/>
      <point x="1727.063862928349" y="662.7014925373135" type="qcurve" smooth="yes"/>
      <point x="1727.063862928349" y="916.0" type="line"/>
      <point x="2288.652647975078" y="916.0" type="line"/>
      <point x="2288.652647975078" y="480.0" type="line" smooth="yes"/>
      <point x="2288.652647975078" y="237.0"/>
      <point x="1886.8177570093458" y="-10.0"/>
      <point x="1575.7866043613706" y="-20.0" type="qcurve"/>
    </contour>
  </outline>
</glyph>
<glyph name="kaisymbol" format="2">
  <advance width="1731.209792160692"/>
  <unicode hex="03D7"/>
  <outline>
    <contour>
      <point x="185.5" y="0.0" type="line"/>
      <point x="185.5" y="916.0" type="line"/>
      <point x="752.8084112149533" y="916.0" type="line"/>
      <point x="752.8084112149533" y="0.0" type="line"/>
    </contour>
    <contour>
      <point x="482.1542056074766" y="397.0" type="line"/>
      <point x="482.1542056074766" y="542.0" type="line"/>
      <point x="785.8710977821174" y="542.0" type="line"/>
      <point x="1025.7636350955502" y="916.0" type="line"/>
      <point x="1538.9725903194308" y="916.0" type="line"/>
      <point x="1448.4250941553914" y="748.239503417492" type="line"/>
      <point x="1723.3814339517367" y="359.9450411493932" type="line"/>
      <point x="767.8084112149533" y="-590.0" type="line"/>
      <point x="503.480053005998" y="-286.4029850746268" type="line"/>
      <point x="1139.7636350955502" y="391.2686567164179" type="line"/>
      <point x="1210.358659971172" y="397.0" type="line"/>
    </contour>
  </outline>
</glyph>
<glyph name="Dje" format="2">
  <advance width="2213.1713395638626"/>
  <unicode hex="0402"/>
  <guideline x="568.0" y="625.0" angle="90.0" identifier="YDADns81zF"/>
  <outline>
    <contour>
      <point x="393.5" y="0.0" type="line"/>
      <point x="393.5" y="1378.0" type="line"/>
      <point x="983.9672897196263" y="1378.0" type="line"/>
      <point x="983.9672897196263" y="0.0" type="line"/>
    </contour>
    <contour>
      <point x="1282.633956386293" y="0.0" type="line"/>
      <point x="1282.633956386293" y="364.05970149253733" type="line"/>
      <point x="1290.633956386293" y="364.05970149253733" type="line" smooth="yes"/>
      <point x="1362.633956386293" y="364.05970149253733"/>
      <point x="1430.633956386293" y="384.97014925373134"/>
      <point x="1430.633956386293" y="401.8955223880597" type="qcurve" smooth="yes"/>
      <point x="1430.633956386293" y="404.2835820895522" type="line" smooth="yes"/>
      <point x="1430.633956386293" y="425.08955223880594"/>
      <point x="1324.9672897196263" y="448.6865671641791"/>
      <point x="1209.5716510903426" y="448.6865671641791" type="qcurve" smooth="yes"/>
      <point x="1096.5899011671283" y="448.6865671641791"/>
      <point x="960.9672897196263" y="445.55223880597015"/>
      <point x="842.2102803738318" y="429.9786581113126" type="qcurve"/>
      <point x="842.2102803738318" y="838.948807365044" type="line"/>
      <point x="959.9672897196263" y="873.2388059701493"/>
      <point x="1152.946616804419" y="895.9402985074627"/>
      <point x="1272.1417445482864" y="895.9402985074627" type="qcurve" smooth="yes"/>
      <point x="1629.8271028037384" y="895.9402985074627"/>
      <point x="2037.3068535825548" y="657.179104477612"/>
      <point x="2037.3068535825548" y="454.97014925373134" type="qcurve" smooth="yes"/>
      <point x="2037.3068535825548" y="431.11940298507466" type="line" smooth="yes"/>
      <point x="2037.3068535825548" y="247.76119402985074"/>
      <point x="1653.1947040498442" y="0.0"/>
      <point x="1366.8956386292837" y="0.0" type="qcurve" smooth="yes"/>
    </contour>
    <contour>
      <point x="61.5" y="956.0" type="line"/>
      <point x="61.5" y="1456.0" type="line"/>
      <point x="1342.633956386293" y="1456.0" type="line"/>
      <point x="1342.633956386293" y="956.0" type="line"/>
    </contour>
  </outline>
</glyph>
<glyph name="Lje" format="2">
  <advance width="2897.694704049844"/>
  <unicode hex="0409"/>
  <outline>
    <contour>
      <point x="265.0264797507788" y="-30.0" type="qcurve" smooth="yes"/>
      <point x="188.30996884735202" y="-30.0"/>
      <point x="101.03271028037383" y="-22.046728971962615"/>
      <point x="68.5" y="-13.0" type="qcurve"/>
      <point x="68.5" y="151.0" type="line"/>
      <point x="85.5" y="143.0"/>
      <point x="113.83333333333333" y="138.0"/>
      <point x="149.80529595015577" y="138.0" type="qcurve" smooth="yes"/>
      <point x="202.5" y="138.0"/>
      <point x="259.5" y="336.0"/>
      <point x="269.1666666666667" y="575.0" type="qcurve" smooth="yes"/>
      <point x="305.1666666666667" y="1456.0" type="line"/>
      <point x="1802.8613707165107" y="1456.0" type="line"/>
      <point x="1802.8613707165107" y="443.85074626865674" type="line"/>
      <point x="2001.1947040498442" y="443.85074626865674" type="line" smooth="yes"/>
      <point x="2117.861370716511" y="443.85074626865674"/>
      <point x="2210.194704049844" y="473.02985074626866"/>
      <point x="2210.194704049844" y="494.34328358208955" type="qcurve" smooth="yes"/>
      <point x="2210.194704049844" y="515.6567164179105"/>
      <point x="2117.861370716511" y="547.6417910447761"/>
      <point x="2001.1947040498442" y="544.2388059701493" type="qcurve" smooth="yes"/>
      <point x="1512.6744548286604" y="544.2388059701493" type="line"/>
      <point x="1512.6744548286604" y="937.044776119403" type="line"/>
      <point x="2257.6246105919004" y="937.044776119403" type="line" smooth="yes"/>
      <point x="2551.9922118380064" y="937.044776119403"/>
      <point x="2810.194704049844" y="679.0298507462686"/>
      <point x="2810.194704049844" y="479.02985074626866" type="qcurve" smooth="yes"/>
      <point x="2810.194704049844" y="279.02985074626866"/>
      <point x="2551.9922118380064" y="0.0"/>
      <point x="2257.6246105919004" y="0.0" type="qcurve" smooth="yes"/>
      <point x="1212.3940809968847" y="0.0" type="line"/>
      <point x="1212.3940809968847" y="957.7014925373135" type="line"/>
      <point x="875.0607476635514" y="957.7014925373135" type="line"/>
      <point x="844.0607476635514" y="542.0" type="line" smooth="yes"/>
      <point x="816.9781234016832" y="235.9722415957595"/>
      <point x="499.60903426791276" y="-30.0"/>
    </contour>
  </outline>
</glyph>
<glyph name="Tshe" format="2">
  <advance width="2528.607476635514"/>
  <unicode hex="040B"/>
  <guideline x="568.0" y="683.0" angle="90.0" identifier="juO2xYoEN4"/>
  <outline>
    <contour>
      <point x="393.5" y="0.0" type="line"/>
      <point x="393.5" y="1378.4672897196263" type="line"/>
      <point x="992.5467289719627" y="1378.4672897196263" type="line"/>
      <point x="992.5467289719627" y="0.0" type="line"/>
    </contour>
    <contour>
      <point x="1437.5934579439252" y="0.0" type="line"/>
      <point x="1437.5934579439252" y="274.8955223880597" type="line" smooth="yes"/>
      <point x="1437.5934579439252" y="355.05970149253733"/>
      <point x="1323.9267912772584" y="408.7014925373134"/>
      <point x="1191.9267912772584" y="408.7014925373134" type="qcurve" smooth="yes"/>
      <point x="1131.9267912772584" y="408.7014925373134"/>
      <point x="839.309968847352" y="395.4893290556563"/>
      <point x="729.7242990654206" y="377.27911842655874" type="qcurve"/>
      <point x="729.7242990654206" y="838.1447900683498" type="line"/>
      <point x="834.7834890965732" y="869.4376249593156"/>
      <point x="1138.9267912772584" y="892.5373134328358"/>
      <point x="1238.8520249221183" y="892.5373134328358" type="qcurve" smooth="yes"/>
      <point x="1613.702492211838" y="892.5373134328358"/>
      <point x="2032.8271028037384" y="669.8706467661692"/>
      <point x="2027.107476635514" y="433.53731343283584" type="qcurve" smooth="yes"/>
      <point x="2027.107476635514" y="0.0" type="line"/>
    </contour>
    <contour>
      <point x="61.5" y="956.0" type="line"/>
      <point x="61.5" y="1456.0" type="line"/>
      <point x="1350.260124610592" y="1456.0" type="line"/>
      <point x="1350.260124610592" y="956.0" type="line"/>
    </contour>
  </outline>
</glyph>
<glyph name="Dzhe" format="2">
  <advance width="2080.9813084112147"/>
  <unicode hex="040F"/>
  <outline>
    <contour>
      <point x="207.5" y="0.0" type="line"/>
      <point x="207.5" y="1456.0" type="line"/>
      <point x="797.9672897196263" y="1456.0" type="line"/>
      <point x="797.9672897196263" y="500.0" type="line"/>
      <point x="1283.0140186915887" y="500.0" type="line"/>
      <point x="1283.0140186915887" y="1456.0" type="line"/>
      <point x="1873.4813084112147" y="1456.0" type="line"/>
      <point x="1873.4813084112147" y="0.0" type="line"/>
    </contour>
    <contour>
      <point x="954.9672897196263" y="-290.0" type="line"/>
      <point x="954.9672897196263" y="80.0" type="line"/>
      <point x="1126.9672897196263" y="80.0" type="line"/>
      <point x="1126.9672897196263" y="-290.0" type="line"/>
    </contour>
  </outline>
</glyph>
<glyph name="De" format="2">
  <advance width="2109.881619937695"/>
  <unicode hex="0414"/>
  <outline>
    <contour>
      <point x="1615.15773934068" y="-290.0" type="line"/>
      <point x="1615.15773934068" y="0.0" type="line"/>
      <point x="474.72388059701495" y="0.0" type="line"/>
      <point x="474.72388059701495" y="-290.0" type="line"/>
      <point x="47.5" y="-290.0" type="line"/>
      <point x="47.5" y="500.0" type="line"/>
      <point x="2042.381619937695" y="500.0" type="line"/>
      <point x="2042.381619937695" y="-290.0" type="line"/>
    </contour>
    <contour>
      <point x="309.5" y="1456.0" type="line"/>
      <point x="1862.381619937695" y="1456.0" type="line"/>
      <point x="1862.381619937695" y="79.0" type="line"/>
      <point x="1270.0077881619939" y="79.0" type="line"/>
      <point x="1270.0077881619939" y="956.0" type="line"/>
      <point x="846.3709722415957" y="956.0" type="line"/>
      <point x="839.6744548286605" y="659.0" type="line" smooth="yes"/>
      <point x="830.5252010973172" y="446.14925373134326"/>
      <point x="794.6744548286605" y="205.0"/>
      <point x="754.3411214953271" y="79.0" type="qcurve"/>
      <point x="160.5" y="79.0" type="line"/>
      <point x="215.83333333333334" y="209.0"/>
      <point x="258.5" y="457.0"/>
      <point x="268.83333333333337" y="657.0" type="qcurve" smooth="yes"/>
    </contour>
  </outline>
</glyph>
<glyph name="Ze" format="2">
  <advance width="1905.2149532710282"/>
  <unicode hex="0417"/>
  <anchor x="966.8738317757009" y="0.0" name="bottom"/>
  <outline>
    <contour>
      <point x="950.3878504672898" y="452.17910447761193" type="qcurve" smooth="yes"/>
      <point x="1069.0545171339566" y="452.17910447761193"/>
      <point x="1176.0545171339566" y="484.67164179104475"/>
      <point x="1176.0545171339566" y="518.6865671641791" type="qcurve" smooth="yes"/>
      <point x="1176.0545171339566" y="551.0597014925373"/>
      <point x="1047.0246663876878" y="571.1044776119403"/>
      <point x="977.7211838006232" y="571.1044776119403" type="qcurve" smooth="yes"/>
      <point x="800.0545171339563" y="571.1044776119403" type="line"/>
      <point x="800.0545171339563" y="891.2985074626865" type="line"/>
      <point x="957.7211838006232" y="891.2985074626865" type="line" smooth="yes"/>
      <point x="1007.9592458269402" y="891.2985074626865"/>
      <point x="1131.6557632398753" y="906.5036869728763"/>
      <point x="1131.6557632398753" y="936.3283582089553" type="qcurve" smooth="yes"/>
      <point x="1131.6557632398753" y="968.277573543802"/>
      <point x="1032.6557632398753" y="991.0597014925373"/>
      <point x="942.3878504672897" y="991.0597014925373" type="qcurve" smooth="yes"/>
      <point x="833.0545171339563" y="991.0597014925373"/>
      <point x="732.2601246105918" y="911.5828334960712"/>
      <point x="720.8208722741432" y="852.1997489189566" type="qcurve" smooth="yes"/>
      <point x="717.0077881619937" y="819.2583344957455" type="line"/>
      <point x="129.40031152647975" y="819.2583344957455" type="line"/>
      <point x="133.2133956386293" y="1030.5579578741806" type="line" smooth="yes"/>
      <point x="152.27881619937693" y="1231.5579578741806"/>
      <point x="506.5218068535825" y="1487.9065420560748"/>
      <point x="912.4563862928348" y="1487.9065420560748" type="qcurve" smooth="yes"/>
      <point x="1317.9828660436135" y="1487.9065420560748"/>
      <point x="1713.7834890965732" y="1286.7560515516504"/>
      <point x="1713.7834890965732" y="1075.0" type="qcurve" smooth="yes"/>
      <point x="1713.7834890965732" y="930.1137257329199"/>
      <point x="1546.0927562447996" y="792.2877394305283"/>
      <point x="1375.3068535825546" y="768.0" type="qcurve"/>
      <point x="1375.3068535825546" y="764.0" type="line"/>
      <point x="1555.848909657321" y="735.8130841121496"/>
      <point x="1767.3816199376947" y="571.4392523364486"/>
      <point x="1767.3816199376947" y="420.0" type="qcurve" smooth="yes"/>
      <point x="1767.3816199376947" y="206.0"/>
      <point x="1411.3909657320874" y="-30.0"/>
      <point x="978.9859813084113" y="-30.0" type="qcurve" smooth="yes"/>
      <point x="545.9267912772586" y="-30.0"/>
      <point x="126.26635514018692" y="175.4018691588785"/>
      <point x="122.45327102803738" y="427.4018691588785" type="qcurve" smooth="yes"/>
      <point x="121.5" y="630.3685311758962" type="line"/>
      <point x="703.3878504672897" y="630.3685311758962" type="line"/>
      <point x="707.2009345794393" y="597.7256242153717" type="line" smooth="yes"/>
      <point x="723.4065420560748" y="534.2181615288046"/>
      <point x="825.0545171339563" y="452.17910447761193"/>
    </contour>
  </outline>
</glyph>
<glyph name="Icyr" format="2">
  <advance width="2102.7819314641747"/>
  <unicode hex="0418"/>
  <guideline x="739.0" y="930.0" angle="90.0" identifier="jpSOnFR6u4"/>
  <anchor x="1050.9143302180682" y="1456.0" name="top"/>
  <outline>
    <contour>
      <point x="1895.2819314641745" y="0.0" type="line"/>
      <point x="1309.580996884735" y="0.0" type="line"/>
      <point x="1309.580996884735" y="739.7164179104477" type="line" smooth="yes"/>
      <point x="1309.580996884735" y="769.7164179104477"/>
      <point x="1310.580996884735" y="844.7164179104477"/>
      <point x="1311.580996884735" y="874.7164179104477" type="qcurve"/>
      <point x="1304.580996884735" y="874.7164179104477" type="line"/>
      <point x="1294.2476635514017" y="849.7164179104477"/>
      <point x="1269.580996884735" y="791.5323383084578"/>
      <point x="1256.580996884735" y="759.7164179104477" type="qcurve" smooth="yes"/>
      <point x="985.9043799693122" y="0.0" type="line"/>
      <point x="207.5" y="0.0" type="line"/>
      <point x="207.5" y="1456.0" type="line"/>
      <point x="792.2476635514018" y="1456.0" type="line"/>
      <point x="793.2476635514018" y="707.7761194029852" type="line" smooth="yes"/>
      <point x="793.2476635514018" y="677.7761194029852"/>
      <point x="791.2476635514018" y="602.7761194029852"/>
      <point x="790.2476635514018" y="572.7761194029852" type="qcurve"/>
      <point x="798.2476635514018" y="572.7761194029852" type="line"/>
      <point x="806.9143302180685" y="597.7761194029852"/>
      <point x="830.212837680755" y="654.2587064676617"/>
      <point x="844.9143302180685" y="687.7761194029852" type="qcurve" smooth="yes"/>
      <point x="1124.4317431533916" y="1456.0" type="line"/>
      <point x="1895.2819314641745" y="1456.0" type="line"/>
    </contour>
  </outline>
</glyph>
<glyph name="Ka" format="2">
  <advance width="2170.7268796205885"/>
  <unicode hex="041A"/>
  <guideline x="480.0" y="796.0" angle="90.0" identifier="LxfLwWU0sJ"/>
  <anchor x="612.1666666666666" y="1456.0" name="top"/>
  <anchor x="1735.7180685358255" y="0.0" name="cy_descender"/>
  <outline>
    <contour>
      <point x="1355.933533268238" y="0.0" type="line"/>
      <point x="899.0559734040079" y="758.472895336402" type="line"/>
      <point x="1443.8032036081277" y="977.163760636072" type="line"/>
      <point x="2085.1671781280515" y="0.0" type="line"/>
    </contour>
    <contour>
      <point x="713.4065420560748" y="900.6119402985074" type="line"/>
      <point x="1086.8243595108568" y="900.6119402985074" type="line"/>
      <point x="1402.834309759613" y="1456.0" type="line"/>
      <point x="2000.8442600083695" y="1456.0" type="line"/>
      <point x="1375.3915236899616" y="502.1840796019901" type="line"/>
      <point x="713.4065420560748" y="502.1840796019901" type="line"/>
    </contour>
    <contour>
      <point x="207.5" y="0.0" type="line"/>
      <point x="207.5" y="1456.0" type="line"/>
      <point x="807.5" y="1456.0" type="line"/>
      <point x="807.5" y="0.0" type="line"/>
    </contour>
  </outline>
</glyph>
<glyph name="Che" format="2">
  <advance width="2068.1526479750783"/>
  <unicode hex="0427"/>
  <guideline x="1123.0" y="741.0" angle="90.0" identifier="nfCxFSb4p1"/>
  <anchor x="1760.886292834891" y="0.0" name="cy_descender"/>
  <outline>
    <contour>
      <point x="785.1261682242991" y="1287.2238805970148" type="line" smooth="yes"/>
      <point x="785.1261682242991" y="1109.2238805970148"/>
      <point x="895.4595015576325" y="988.2706095689775"/>
      <point x="1030.7928348909659" y="989.223880597015" type="qcurve" smooth="yes"/>
      <point x="1152.8507704792037" y="990.1771516250524"/>
      <point x="1381.6191190784134" y="1022.5024470053811"/>
      <point x="1568.278816199377" y="1092.1864974194448" type="qcurve"/>
      <point x="1568.278816199377" y="592.1864974194449" type="line"/>
      <point x="1370.52119920354" y="523.3044994334149"/>
      <point x="1103.1436255663757" y="489.22388059701495"/>
      <point x="952.5903426791277" y="489.22388059701495" type="qcurve" smooth="yes"/>
      <point x="632.3753894080997" y="489.22388059701495"/>
      <point x="182.2663551401869" y="684.8126656437439"/>
      <point x="180.35981308411215" y="983.494908634398" type="qcurve" smooth="yes"/>
      <point x="177.5" y="1456.0" type="line"/>
      <point x="785.1261682242991" y="1456.0" type="line"/>
    </contour>
    <contour>
      <point x="1860.652647975078" y="1456.0" type="line"/>
      <point x="1860.652647975078" y="0.0" type="line"/>
      <point x="1257.7928348909659" y="0.0" type="line"/>
      <point x="1257.7928348909659" y="1456.0" type="line"/>
    </contour>
  </outline>
</glyph>
<glyph name="Hard" format="2">
  <advance width="1958.7009345794395"/>
  <unicode hex="042A"/>
  <outline>
    <contour>
      <point x="278.1666666666667" y="0.0" type="line"/>
      <point x="278.1666666666667" y="957.7014925373135" type="line"/>
      <point x="61.5" y="957.7014925373135" type="line"/>
      <point x="61.5" y="1456.0" type="line"/>
      <point x="876.2601246105918" y="1456.0" type="line"/>
      <point x="876.2601246105918" y="429.3880597014925" type="line"/>
      <point x="1074.5934579439252" y="429.3880597014925" type="line" smooth="yes"/>
      <point x="1191.260124610592" y="429.3880597014925"/>
      <point x="1283.5934579439252" y="459.4179104477612"/>
      <point x="1283.5934579439252" y="480.7313432835821" type="qcurve" smooth="yes"/>
      <point x="1283.5934579439252" y="502.04477611940297"/>
      <point x="1191.260124610592" y="531.4776119402985"/>
      <point x="1074.5934579439252" y="531.4776119402985" type="qcurve" smooth="yes"/>
      <point x="565.0015576323988" y="531.4776119402985" type="line"/>
      <point x="565.0015576323988" y="969.3731343283582" type="line"/>
      <point x="1370.107476635514" y="969.3731343283582" type="line" smooth="yes"/>
      <point x="1625.3909657320874" y="969.3731343283582"/>
      <point x="1871.2009345794395" y="705.4029850746268"/>
      <point x="1871.2009345794395" y="486.6865671641791" type="qcurve" smooth="yes"/>
      <point x="1871.2009345794395" y="267.97014925373134"/>
      <point x="1626.3442367601247" y="0.0"/>
      <point x="1371.0607476635514" y="0.0" type="qcurve" smooth="yes"/>
    </contour>
  </outline>
</glyph>
<glyph name="Ecyr" format="2">
  <advance width="1864.1090342679126"/>
  <unicode hex="042D"/>
  <guideline x="1147.0" y="753.0" angle="90.0" identifier="Ovo68woMtl"/>
  <anchor x="931.1292834890966" y="1456.0" name="top"/>
  <outline>
    <contour>
      <point x="1494.4968847352025" y="889.5522388059701" type="line"/>
      <point x="1494.4968847352025" y="569.9104477611941" type="line"/>
      <point x="742.6433021806853" y="569.9104477611941" type="line"/>
      <point x="742.6433021806853" y="889.5522388059701" type="line"/>
    </contour>
    <contour>
      <point x="1204.936137071651" y="724.7895103919653" type="qcurve" smooth="yes"/>
      <point x="1204.936137071651" y="733.3467708188032" type="line" smooth="yes"/>
      <point x="1204.936137071651" y="898.1549727995537"/>
      <point x="1058.5093457943926" y="984.2537313432836"/>
      <point x="930.8426791277259" y="984.2537313432836" type="qcurve" smooth="yes"/>
      <point x="810.8426791277259" y="984.2537313432836"/>
      <point x="700.5280373831775" y="911.4477611940299"/>
      <point x="693.8551401869158" y="854.9701492537313" type="qcurve" smooth="yes"/>
      <point x="690.9953271028037" y="785.799135165295" type="line"/>
      <point x="121.5" y="785.799135165295" type="line"/>
      <point x="124.35981308411215" y="850.7164179104477" type="line" smooth="yes"/>
      <point x="133.89252336448598" y="1129.0746268656717"/>
      <point x="522.9610591900312" y="1486.0"/>
      <point x="920.690031152648" y="1486.0" type="qcurve" smooth="yes"/>
      <point x="1400.48753894081" y="1486.0"/>
      <point x="1806.936137071651" y="1117.0"/>
      <point x="1806.936137071651" y="756.8691588785047" type="qcurve" smooth="yes"/>
      <point x="1806.936137071651" y="744.1775700934579" type="line" smooth="yes"/>
      <point x="1806.936137071651" y="349.1121495327103"/>
      <point x="1378.3816199376947" y="-30.0"/>
      <point x="916.0700934579439" y="-30.0" type="qcurve" smooth="yes"/>
      <point x="453.9454828660437" y="-30.0"/>
      <point x="134.84579439252337" y="348.78348370682113"/>
      <point x="124.35981308411215" y="614.1343283582089" type="qcurve" smooth="yes"/>
      <point x="121.5" y="668.4993722973916" type="line"/>
      <point x="690.9953271028037" y="668.4993722973916" type="line"/>
      <point x="693.8551401869158" y="602.223880597015" type="line" smooth="yes"/>
      <point x="700.5280373831775" y="547.3432835820895"/>
      <point x="792.6433021806853" y="470.04477611940297"/>
      <point x="917.9766355140187" y="470.04477611940297" type="qcurve" smooth="yes"/>
      <point x="1061.9766355140187" y="470.04477611940297"/>
      <point x="1204.936137071651" y="570.0708606500209"/>
    </contour>
  </outline>
</glyph>
<glyph name="ve" format="2">
  <advance width="1722.1557632398753"/>
  <unicode hex="0432"/>
  <outline>
    <contour>
      <point x="185.5" y="0.0" type="line"/>
      <point x="185.5" y="916.0" type="line"/>
      <point x="1140.7292834890966" y="916.0" type="line" smooth="yes"/>
      <point x="1325.1596884735202" y="916.0"/>
      <point x="1538.4096573208724" y="789.6"/>
      <point x="1538.4096573208724" y="669.0" type="qcurve" smooth="yes"/>
      <point x="1538.4096573208724" y="592.92"/>
      <point x="1417.218446107734" y="497.70583509440314"/>
      <point x="1295.886292834891" y="476.0" type="qcurve"/>
      <point x="1295.886292834891" y="473.0" type="line"/>
      <point x="1442.0511526479752" y="454.96"/>
      <point x="1574.6557632398753" y="356.44"/>
      <point x="1574.6557632398753" y="272.0" type="qcurve" smooth="yes"/>
      <point x="1574.6557632398753" y="141.96"/>
      <point x="1353.2325856697819" y="0.0"/>
      <point x="1168.3554517133955" y="0.0" type="qcurve" smooth="yes"/>
    </contour>
    <contour>
      <point x="752.8084112149533" y="326.2089552238806" type="line"/>
      <point x="970.0750778816199" y="326.2089552238806" type="line" smooth="yes"/>
      <point x="1035.3017445482867" y="326.2089552238806"/>
      <point x="1092.1417445482864" y="317.7355223880597"/>
      <point x="1092.1417445482864" y="325.5970149253731" type="qcurve" smooth="yes"/>
      <point x="1092.1417445482864" y="331.9492537313433"/>
      <point x="1035.2884112149532" y="324.3880597014925"/>
      <point x="970.0750778816199" y="326.94029850746267" type="qcurve" smooth="yes"/>
      <point x="482.1542056074766" y="326.94029850746267" type="line"/>
      <point x="482.1542056074766" y="615.5671641791045" type="line"/>
      <point x="948.4084112149533" y="615.5671641791045" type="line" smooth="yes"/>
      <point x="1010.9284112149531" y="615.5671641791045"/>
      <point x="1063.4750778816199" y="606.5367164179105"/>
      <point x="1063.4750778816199" y="612.2089552238806" type="qcurve" smooth="yes"/>
      <point x="1063.4750778816199" y="615.6919402985075"/>
      <point x="1010.9284112149531" y="609.3582089552239"/>
      <point x="948.4084112149533" y="609.3582089552239" type="qcurve" smooth="yes"/>
      <point x="752.8084112149533" y="609.3582089552239" type="line"/>
    </contour>
  </outline>
</glyph>
<glyph name="ze" format="2">
  <advance width="1793.9283489096574"/>
  <unicode hex="0437"/>
  <anchor x="872.3691588785047" y="-1.0" name="bottom"/>
  <outline>
    <contour>
      <point x="887.3473520249221" y="-30.0" type="qcurve" smooth="yes"/>
      <point x="388.5365309251045" y="-30.0"/>
      <point x="126.5" y="214.56298507462688"/>
      <point x="126.5" y="400.8358208955224" type="qcurve" smooth="yes"/>
      <point x="126.5" y="406.6865671641791" type="line"/>
      <point x="691.6214953271028" y="406.6865671641791" type="line"/>
      <point x="691.6214953271028" y="405.94029850746267" type="line" smooth="yes"/>
      <point x="691.6214953271028" y="391.97850746268654"/>
      <point x="785.5582316545589" y="400.1940298507463"/>
      <point x="875.9548286604362" y="400.1940298507463" type="qcurve" smooth="yes"/>
      <point x="963.5365140998225" y="400.1940298507463"/>
      <point x="1054.2881619937696" y="360.51880597014923"/>
      <point x="1054.2881619937696" y="342.2089552238806" type="qcurve" smooth="yes"/>
      <point x="1054.2881619937696" y="325.44179104477615"/>
      <point x="987.3014953271028" y="262.2835820895522"/>
      <point x="913.6214953271028" y="267.3880597014925" type="qcurve" smooth="yes"/>
      <point x="754.9548286604362" y="267.3880597014925" type="line"/>
      <point x="754.9548286604362" y="666.6119402985074" type="line"/>
      <point x="893.6214953271028" y="666.6119402985074" type="line" smooth="yes"/>
      <point x="967.1329128631428" y="666.6119402985074"/>
      <point x="1030.6214953271028" y="613.3426865671642"/>
      <point x="1030.6214953271028" y="600.2985074626865" type="qcurve" smooth="yes"/>
      <point x="1030.6214953271028" y="583.3068656716417"/>
      <point x="955.9814953271028" y="528.5671641791045"/>
      <point x="883.6214953271028" y="528.5671641791045" type="qcurve" smooth="yes"/>
      <point x="796.3414953271028" y="528.5671641791045"/>
      <point x="704.9548286604362" y="531.5844776119403"/>
      <point x="704.9548286604362" y="524.5223880597015" type="qcurve" smooth="yes"/>
      <point x="704.9548286604362" y="523.776119402985" type="line"/>
      <point x="157.94548286604362" y="523.776119402985" type="line"/>
      <point x="157.94548286604362" y="530.4776119402985" type="line" smooth="yes"/>
      <point x="157.94548286604362" y="725.3904477611941"/>
      <point x="530.7132087227413" y="946.0"/>
      <point x="880.328660436137" y="946.0" type="qcurve" smooth="yes"/>
      <point x="1243.1022429906543" y="946.0"/>
      <point x="1595.1635514018692" y="806.52"/>
      <point x="1595.1635514018692" y="680.8" type="qcurve" smooth="yes"/>
      <point x="1595.1635514018692" y="605.92"/>
      <point x="1403.5797501245424" y="495.93372522692846"/>
      <point x="1225.7087227414331" y="476.0" type="qcurve"/>
      <point x="1225.7087227414331" y="473.0" type="line"/>
      <point x="1433.019637655602" y="457.6744785104799"/>
      <point x="1646.4283489096574" y="350.96"/>
      <point x="1646.4283489096574" y="268.2" type="qcurve" smooth="yes"/>
      <point x="1646.4283489096574" y="124.6"/>
      <point x="1340.4237928866603" y="-30.0"/>
    </contour>
  </outline>
</glyph>
<glyph name="el" format="2">
  <advance width="1798.8034267912774"/>
  <unicode hex="043B"/>
  <outline>
    <contour>
      <point x="768.4482494071698" y="447.7164179104477" type="line"/>
      <point x="768.9109359743339" y="469.6" type="line" smooth="yes"/>
      <point x="758.3913339842841" y="197.28"/>
      <point x="576.6339563862929" y="-22.0"/>
      <point x="331.4408099688473" y="-22.0" type="qcurve" smooth="yes"/>
      <point x="254.44392523364485" y="-22.0"/>
      <point x="103.49065420560748" y="-12.046728971962617"/>
      <point x="47.5" y="-4.0" type="qcurve"/>
      <point x="47.5" y="407.22388059701495" type="line"/>
      <point x="60.5" y="400.22388059701495"/>
      <point x="88.5" y="394.22388059701495"/>
      <point x="105.83333333333334" y="394.22388059701495" type="qcurve" smooth="yes"/>
      <point x="167.83333333333334" y="394.22388059701495"/>
      <point x="217.75866927047005" y="535.823880597015"/>
      <point x="226.8582089552239" y="665.7492537313433" type="qcurve" smooth="yes"/>
      <point x="236.5" y="916.0" type="line"/>
      <point x="1612.4034267912773" y="916.0" type="line"/>
      <point x="1612.4034267912773" y="0.0" type="line"/>
      <point x="1045.095015576324" y="0.0" type="line"/>
      <point x="1045.095015576324" y="447.7164179104477" type="line"/>
    </contour>
  </outline>
</glyph>
<glyph name="em" format="2">
  <advance width="2142.9501557632398"/>
  <unicode hex="043C"/>
  <outline>
    <contour>
      <point x="185.5" y="0.0" type="line"/>
      <point x="185.5" y="916.0" type="line"/>
      <point x="820.8084112149533" y="916.0" type="line"/>
      <point x="1037.1417445482866" y="299.8" type="line" smooth="yes"/>
      <point x="1057.5417445482867" y="242.85333333333332"/>
      <point x="1064.4750778816199" y="196.8"/>
      <point x="1068.4750778816199" y="172.8" type="qcurve"/>
      <point x="1078.4750778816199" y="172.8" type="line"/>
      <point x="1082.4750778816199" y="196.8"/>
      <point x="1088.408411214953" y="242.17333333333332"/>
      <point x="1108.8084112149531" y="298.7532710280374" type="qcurve" smooth="yes"/>
      <point x="1327.1417445482864" y="916.0" type="line"/>
      <point x="1957.4501557632395" y="916.0" type="line"/>
      <point x="1957.4501557632395" y="0.0" type="line"/>
      <point x="1399.1417445482864" y="0.0" type="line"/>
      <point x="1399.1417445482864" y="600.4" type="line" smooth="yes"/>
      <point x="1399.1417445482864" y="659.4"/>
      <point x="1402.1417445482864" y="710.4"/>
      <point x="1404.1417445482864" y="730.4" type="qcurve"/>
      <point x="1395.1417445482864" y="730.4" type="line"/>
      <point x="1390.1417445482864" y="710.4"/>
      <point x="1388.9413707165106" y="657.5001869158879"/>
      <point x="1362.1417445482864" y="603.4" type="qcurve" smooth="yes"/>
      <point x="1148.4750778816199" y="0.0" type="line"/>
      <point x="607.1666666666666" y="0.0" type="line"/>
      <point x="392.5" y="606.4" type="line" smooth="yes"/>
      <point x="373.42" y="657.0266666666666"/>
      <point x="366.5" y="710.4"/>
      <point x="361.5" y="730.4" type="qcurve"/>
      <point x="351.5" y="730.4" type="line"/>
      <point x="353.5" y="710.4"/>
      <point x="356.5" y="660.4"/>
      <point x="356.5" y="607.4" type="qcurve" smooth="yes"/>
      <point x="356.5" y="0.0" type="line"/>
    </contour>
  </outline>
</glyph>
<glyph name="te" format="2">
  <advance width="1208.9750778816199"/>
  <unicode hex="0442"/>
  <anchor x="788.8489096573209" y="0.0" name="cy_descender"/>
  <outline>
    <contour>
      <point x="67.5" y="433.25373134328356" type="line"/>
      <point x="67.5" y="916.0" type="line"/>
      <point x="1141.4750778816199" y="916.0" type="line"/>
      <point x="1141.4750778816199" y="433.25373134328356" type="line"/>
    </contour>
    <contour>
      <point x="320.83333333333337" y="0.0" type="line"/>
      <point x="320.83333333333337" y="841.0" type="line"/>
      <point x="888.1417445482866" y="841.0" type="line"/>
      <point x="888.1417445482866" y="0.0" type="line"/>
    </contour>
  </outline>
</glyph>
<glyph name="tse" format="2">
  <advance width="1852.6168224299065"/>
  <unicode hex="0446"/>
  <outline>
    <contour>
      <point x="1405.1416980517972" y="-270.0" type="line"/>
      <point x="1405.1416980517972" y="0.0" type="line"/>
      <point x="185.5" y="0.0" type="line"/>
      <point x="185.5" y="916.0" type="line"/>
      <point x="752.8084112149533" y="916.0" type="line"/>
      <point x="752.8084112149533" y="481.04477611940297" type="line"/>
      <point x="1069.4750778816199" y="481.04477611940297" type="line"/>
      <point x="1069.4750778816199" y="916.0" type="line"/>
      <point x="1636.7834890965732" y="916.0" type="line"/>
      <point x="1636.7834890965732" y="481.04477611940297" type="line"/>
      <point x="1791.7834890965732" y="481.04477611940297" type="line"/>
      <point x="1791.7834890965732" y="-270.0" type="line"/>
    </contour>
  </outline>
</glyph>
<glyph name="sha" format="2">
  <advance width="2639.5919003115264"/>
  <unicode hex="0448"/>
  <anchor x="2354.9454828660437" y="0.0" name="cy_descender"/>
  <outline>
    <contour>
      <point x="185.5" y="0.0" type="line"/>
      <point x="185.5" y="916.0" type="line"/>
      <point x="752.8084112149533" y="916.0" type="line"/>
      <point x="752.8084112149533" y="447.01492537313436" type="line"/>
      <point x="1036.1417445482866" y="447.01492537313436" type="line"/>
      <point x="1036.1417445482866" y="916.0" type="line"/>
      <point x="1603.4501557632398" y="916.0" type="line"/>
      <point x="1603.4501557632398" y="447.01492537313436" type="line"/>
      <point x="1886.783489096573" y="447.01492537313436" type="line"/>
      <point x="1886.783489096573" y="916.0" type="line"/>
      <point x="2454.0919003115264" y="916.0" type="line"/>
      <point x="2454.0919003115264" y="0.0" type="line"/>
    </contour>
  </outline>
</glyph>
<glyph name="soft" format="2">
  <advance width="1739.6168224299065"/>
  <unicode hex="044C"/>
  <outline>
    <contour>
      <point x="185.5" y="0.0" type="line"/>
      <point x="185.5" y="916.0" type="line"/>
      <point x="752.8084112149533" y="916.0" type="line"/>
      <point x="752.8084112149533" y="373.0" type="line"/>
      <point x="919.1417445482866" y="373.0" type="line" smooth="yes"/>
      <point x="994.9284112149531" y="373.0"/>
      <point x="1074.8084112149531" y="371.6364179104478"/>
      <point x="1074.8084112149531" y="380.35223880597016" type="qcurve" smooth="yes"/>
      <point x="1074.8084112149531" y="389.42805970149254"/>
      <point x="994.9284112149531" y="388.29671641791043"/>
      <point x="919.1417445482866" y="386.2567164179104" type="qcurve" smooth="yes"/>
      <point x="472.1542056074766" y="386.2567164179104" type="line"/>
      <point x="472.1542056074766" y="765.2119402985074" type="line"/>
      <point x="1215.6090342679126" y="765.2119402985074" type="line" smooth="yes"/>
      <point x="1421.946355140187" y="765.2119402985074"/>
      <point x="1642.1168224299065" y="564.2220895522388"/>
      <point x="1642.1168224299065" y="385.45671641791046" type="qcurve" smooth="yes"/>
      <point x="1642.1168224299065" y="204.48059701492537"/>
      <point x="1421.946355140187" y="0.0"/>
      <point x="1215.6090342679126" y="0.0" type="qcurve" smooth="yes"/>
    </contour>
  </outline>
</glyph>
